<?xml version="1.0" standalone="no"?>
<!DOCTYPE svg PUBLIC "-//W3C//DTD SVG 1.1//EN" "http://www.w3.org/Graphics/SVG/1.1/DTD/svg11.dtd" >
<svg>
<metadata>
Created by FontForge 20090622 at Sat Nov  3 06:21:40 2018
 By deploy user
&#194;&#169; 2015-2017 Apple Inc. All rights reserved.
</metadata>
<defs>
<font id="SFProDisplay-Ultralight" horiz-adv-x="1661" >
  <font-face 
    font-family="SF Pro Display"
    font-weight="100"
    font-stretch="normal"
    units-per-em="2048"
    panose-1="0 0 2 0 0 0 0 0 0 0"
    ascent="1638"
    descent="-410"
    x-height="1040"
    cap-height="1443"
    bbox="-757 -539 2395 2108"
    underline-thickness="44"
    underline-position="-325"
    unicode-range="U+0020-U+1F189"
  />
<missing-glyph horiz-adv-x="2048" 
d="M100 -494v355h1848v-355h-1848zM100 -76v354h1848v-354h-1848zM100 342v354h1848v-354h-1848zM100 760v354h1848v-354h-1848zM100 1178v354h1848v-354h-1848zM100 1595v355h1848v-355h-1848z" />
    <glyph glyph-name="uni2460" unicode="&#x31;&#x20dd;" 
d="M875 395h-46v625h-5l-178 -115v51l183 118h46v-679zM831 10q144 0 275 56.5t226 152t151.5 227t56.5 275.5t-56.5 275.5t-151.5 227t-226 152t-275 56.5t-275.5 -56.5t-226.5 -152t-151.5 -227t-56.5 -275.5t56.5 -275.5t151.5 -227t226.5 -152t275.5 -56.5zM831 -39
q-205 0 -380 102.5t-277 277.5t-102 380t102 380t277 277.5t380 102.5t380 -102.5t277 -277.5t102 -380t-102 -380t-277 -277.5t-380 -102.5z" />
    <glyph glyph-name="uni2461" unicode="&#x32;&#x20dd;" 
d="M662 896h-48v2q0 81 62 136t155 55t149 -49.5t56 -132.5q0 -49 -24.5 -94.5t-87.5 -114.5l-231 -257v-4h366v-42h-434v37l279 307q46 52 65 89.5t19 78.5q0 63 -43 101.5t-114 38.5q-73 0 -121 -42.5t-48 -106.5v-2zM831 10q144 0 275 56.5t226 152t151.5 227t56.5 275.5
t-56.5 275.5t-151.5 227t-226 152t-275 56.5t-275.5 -56.5t-226.5 -152t-151.5 -227t-56.5 -275.5t56.5 -275.5t151.5 -227t226.5 -152t275.5 -56.5zM831 -39q-205 0 -380 102.5t-277 277.5t-102 380t102 380t277 277.5t380 102.5t380 -102.5t277 -277.5t102 -380t-102 -380
t-277 -277.5t-380 -102.5z" />
    <glyph glyph-name="uni2462" unicode="&#x33;&#x20dd;" 
d="M758 726v42h78q67 0 112 41.5t45 101.5t-45 98t-117 38q-63 0 -109.5 -35t-50.5 -86h-46q3 69 62 116t145 47q91 0 150 -49t59 -123q0 -62 -39 -108.5t-98 -57.5v-4q69 -7 115.5 -55.5t46.5 -114.5q0 -86 -66 -141.5t-168 -55.5q-91 0 -154 48t-69 120h46
q4 -51 56.5 -88.5t120.5 -37.5q82 0 134 43.5t52 112.5q0 62 -50.5 105t-125.5 43h-84zM831 10q144 0 275 56.5t226 152t151.5 227t56.5 275.5t-56.5 275.5t-151.5 227t-226 152t-275 56.5t-275.5 -56.5t-226.5 -152t-151.5 -227t-56.5 -275.5t56.5 -275.5t151.5 -227
t226.5 -152t275.5 -56.5zM831 -39q-205 0 -380 102.5t-277 277.5t-102 380t102 380t277 277.5t380 102.5t380 -102.5t277 -277.5t102 -380t-102 -380t-277 -277.5t-380 -102.5z" />
    <glyph glyph-name="uni2463" unicode="&#x34;&#x20dd;" 
d="M875 1074h76v-479h108v-42h-108v-158h-46v158h-344v47q56 94 314 474zM613 595h292v439h-5l-148.5 -220.5t-138.5 -214.5v-4zM831 10q144 0 275 56.5t226 152t151.5 227t56.5 275.5t-56.5 275.5t-151.5 227t-226 152t-275 56.5t-275.5 -56.5t-226.5 -152t-151.5 -227
t-56.5 -275.5t56.5 -275.5t151.5 -227t226.5 -152t275.5 -56.5zM831 -39q-205 0 -380 102.5t-277 277.5t-102 380t102 380t277 277.5t380 102.5t380 -102.5t277 -277.5t102 -380t-102 -380t-277 -277.5t-380 -102.5z" />
    <glyph glyph-name="uni2464" unicode="&#x35;&#x20dd;" 
d="M603 548h46q10 -53 60.5 -89t114.5 -36q81 0 135 52.5t54 133.5q0 79 -50.5 128.5t-129.5 49.5q-54 0 -94 -22.5t-78 -70.5h-44l30 381h380v-42h-338l-23 -284h4q28 37 73.5 59t95.5 22q97 0 159.5 -62t62.5 -158q0 -103 -67 -166t-174 -63q-85 0 -147 48t-70 119z
M831 10q144 0 275 56.5t226 152t151.5 227t56.5 275.5t-56.5 275.5t-151.5 227t-226 152t-275 56.5t-275.5 -56.5t-226.5 -152t-151.5 -227t-56.5 -275.5t56.5 -275.5t151.5 -227t226.5 -152t275.5 -56.5zM831 -39q-205 0 -380 102.5t-277 277.5t-102 380t102 380t277 277.5
t380 102.5t380 -102.5t277 -277.5t102 -380t-102 -380t-277 -277.5t-380 -102.5z" />
    <glyph glyph-name="uni2465" unicode="&#x36;&#x20dd;" 
d="M846 374q-37 0 -71.5 9t-70.5 33t-62 60t-42.5 96t-16.5 136q0 170 71.5 268.5t194.5 98.5q88 0 149.5 -46.5t74.5 -122.5h-46q-12 56 -61 91t-117 35q-107 0 -165 -92.5t-55 -257.5h1q19 64 80.5 105.5t141.5 41.5q101 0 169 -64t68 -159q0 -100 -69.5 -166t-173.5 -66z
M845 416q83 0 140.5 54.5t57.5 134.5q0 77 -56.5 129.5t-141.5 52.5q-82 0 -141 -52t-59 -125q0 -81 58 -137.5t142 -56.5zM831 10q144 0 275 56.5t226 152t151.5 227t56.5 275.5t-56.5 275.5t-151.5 227t-226 152t-275 56.5t-275.5 -56.5t-226.5 -152t-151.5 -227
t-56.5 -275.5t56.5 -275.5t151.5 -227t226.5 -152t275.5 -56.5zM831 -39q-205 0 -380 102.5t-277 277.5t-102 380t102 380t277 277.5t380 102.5t380 -102.5t277 -277.5t102 -380t-102 -380t-277 -277.5t-380 -102.5z" />
    <glyph glyph-name="uni2466" unicode="&#x37;&#x20dd;" 
d="M619 1074h437v-45l-297 -635h-54l300 633v4h-386v43zM831 10q144 0 275 56.5t226 152t151.5 227t56.5 275.5t-56.5 275.5t-151.5 227t-226 152t-275 56.5t-275.5 -56.5t-226.5 -152t-151.5 -227t-56.5 -275.5t56.5 -275.5t151.5 -227t226.5 -152t275.5 -56.5zM831 -39
q-205 0 -380 102.5t-277 277.5t-102 380t102 380t277 277.5t380 102.5t380 -102.5t277 -277.5t102 -380t-102 -380t-277 -277.5t-380 -102.5z" />
    <glyph glyph-name="uni2467" unicode="&#x38;&#x20dd;" 
d="M833 422q86 0 142 45t56 113q0 67 -56 110.5t-142 43.5t-142.5 -43.5t-56.5 -110.5q0 -68 56.5 -113t142.5 -45zM833 773q73 0 120.5 38.5t47.5 98.5q0 61 -47 99.5t-121 38.5t-121.5 -38.5t-47.5 -99.5q0 -60 48 -98.5t121 -38.5zM832 381q-107 0 -175 56t-68 144
q0 61 42 110t106 62v4q-54 16 -87.5 58.5t-33.5 94.5q0 78 61 128.5t156 50.5q94 0 155 -50.5t61 -128.5q0 -52 -34 -95t-87 -58v-4q64 -13 106 -62t42 -110q0 -87 -69 -143.5t-175 -56.5zM831 10q144 0 275 56.5t226 152t151.5 227t56.5 275.5t-56.5 275.5t-151.5 227
t-226 152t-275 56.5t-275.5 -56.5t-226.5 -152t-151.5 -227t-56.5 -275.5t56.5 -275.5t151.5 -227t226.5 -152t275.5 -56.5zM831 -39q-205 0 -380 102.5t-277 277.5t-102 380t102 380t277 277.5t380 102.5t380 -102.5t277 -277.5t102 -380t-102 -380t-277 -277.5
t-380 -102.5z" />
    <glyph glyph-name="uni2468" unicode="&#x39;&#x20dd;" 
d="M823 374q-89 0 -150.5 46.5t-73.5 121.5h46q11 -57 59 -91.5t119 -34.5q97 0 160.5 85t60.5 266h-1q-18 -64 -80.5 -106t-141.5 -42q-103 0 -170.5 63.5t-67.5 158.5q0 100 69 167t174 67q47 0 90 -16t83.5 -51.5t65 -104t24.5 -162.5q0 -170 -71 -268.5t-195 -98.5z
M827 661q82 0 141 52.5t59 124.5q0 81 -57.5 137t-143.5 56q-83 0 -139.5 -54.5t-56.5 -134.5q0 -77 56 -129t141 -52zM831 10q144 0 275 56.5t226 152t151.5 227t56.5 275.5t-56.5 275.5t-151.5 227t-226 152t-275 56.5t-275.5 -56.5t-226.5 -152t-151.5 -227t-56.5 -275.5
t56.5 -275.5t151.5 -227t226.5 -152t275.5 -56.5zM831 -39q-205 0 -380 102.5t-277 277.5t-102 380t102 380t277 277.5t380 102.5t380 -102.5t277 -277.5t102 -380t-102 -380t-277 -277.5t-380 -102.5z" />
    <glyph glyph-name="uni24B6" unicode="A&#x20dd;" 
d="M694 669h275l-136 362h-4zM593 402h-49l257 680h60l257 -680h-49l-84 225h-307zM831 10q144 0 275 56.5t226 152t151.5 227t56.5 275.5t-56.5 275.5t-151.5 227t-226 152t-275 56.5t-275.5 -56.5t-226.5 -152t-151.5 -227t-56.5 -275.5t56.5 -275.5t151.5 -227
t226.5 -152t275.5 -56.5zM831 -39q-205 0 -380 102.5t-277 277.5t-102 380t102 380t277 277.5t380 102.5t380 -102.5t277 -277.5t102 -380t-102 -380t-277 -277.5t-380 -102.5z" />
    <glyph glyph-name="uni24B7" unicode="B&#x20dd;" 
d="M614 392v680h244q89 0 142.5 -48t53.5 -120q0 -59 -32 -101t-79 -52v-4q67 -8 109 -53t42 -115q0 -87 -62.5 -137t-170.5 -50h-247zM660 1030v-268h180q75 0 120.5 39t45.5 95q0 63 -41 98.5t-116 35.5h-189zM660 720v-286h179q206 0 206 144q0 65 -45.5 103.5
t-123.5 38.5h-216zM831 10q144 0 275 56.5t226 152t151.5 227t56.5 275.5t-56.5 275.5t-151.5 227t-226 152t-275 56.5t-275.5 -56.5t-226.5 -152t-151.5 -227t-56.5 -275.5t56.5 -275.5t151.5 -227t226.5 -152t275.5 -56.5zM831 -39q-205 0 -380 102.5t-277 277.5t-102 380
t102 380t277 277.5t380 102.5t380 -102.5t277 -277.5t102 -380t-102 -380t-277 -277.5t-380 -102.5z" />
    <glyph glyph-name="uni24B8" unicode="C&#x20dd;" 
d="M1060 576h46q-11 -91 -84 -150t-183 -59q-134 0 -218 98.5t-84 256.5t84 256.5t218 98.5q109 0 185 -62t82 -157h-46q-8 78 -69.5 127.5t-151.5 49.5q-112 0 -183.5 -87.5t-71.5 -225.5t71.5 -225.5t183.5 -87.5q90 0 149.5 46.5t71.5 120.5zM831 10q144 0 275 56.5
t226 152t151.5 227t56.5 275.5t-56.5 275.5t-151.5 227t-226 152t-275 56.5t-275.5 -56.5t-226.5 -152t-151.5 -227t-56.5 -275.5t56.5 -275.5t151.5 -227t226.5 -152t275.5 -56.5zM831 -39q-205 0 -380 102.5t-277 277.5t-102 380t102 380t277 277.5t380 102.5t380 -102.5
t277 -277.5t102 -380t-102 -380t-277 -277.5t-380 -102.5z" />
    <glyph glyph-name="uni24B9" unicode="D&#x20dd;" 
d="M618 1050h202q140 0 221.5 -87.5t81.5 -237.5q0 -157 -80.5 -243.5t-222.5 -86.5h-202v655zM665 1008v-571h150q119 0 188 74t69 213q0 132 -70 208t-187 76h-150zM831 10q144 0 275 56.5t226 152t151.5 227t56.5 275.5t-56.5 275.5t-151.5 227t-226 152t-275 56.5
t-275.5 -56.5t-226.5 -152t-151.5 -227t-56.5 -275.5t56.5 -275.5t151.5 -227t226.5 -152t275.5 -56.5zM831 -39q-205 0 -380 102.5t-277 277.5t-102 380t102 380t277 277.5t380 102.5t380 -102.5t277 -277.5t102 -380t-102 -380t-277 -277.5t-380 -102.5z" />
    <glyph glyph-name="uni24BA" unicode="E&#x20dd;" 
d="M1041 425v-43h-415v680h415v-42h-369v-268h351v-42h-351v-285h369zM831 10q144 0 275 56.5t226 152t151.5 227t56.5 275.5t-56.5 275.5t-151.5 227t-226 152t-275 56.5t-275.5 -56.5t-226.5 -152t-151.5 -227t-56.5 -275.5t56.5 -275.5t151.5 -227t226.5 -152
t275.5 -56.5zM831 -39q-205 0 -380 102.5t-277 277.5t-102 380t102 380t277 277.5t380 102.5t380 -102.5t277 -277.5t102 -380t-102 -380t-277 -277.5t-380 -102.5z" />
    <glyph glyph-name="uni24BB" unicode="F&#x20dd;" 
d="M693 382h-46v680h408v-42h-362v-278h334v-42h-334v-318zM831 10q144 0 275 56.5t226 152t151.5 227t56.5 275.5t-56.5 275.5t-151.5 227t-226 152t-275 56.5t-275.5 -56.5t-226.5 -152t-151.5 -227t-56.5 -275.5t56.5 -275.5t151.5 -227t226.5 -152t275.5 -56.5zM831 -39
q-205 0 -380 102.5t-277 277.5t-102 380t102 380t277 277.5t380 102.5t380 -102.5t277 -277.5t102 -380t-102 -380t-277 -277.5t-380 -102.5z" />
    <glyph glyph-name="uni24BC" unicode="G&#x20dd;" 
d="M1060 641v40h-228v42h273v-80q0 -125 -72.5 -200.5t-193.5 -75.5q-134 0 -218 98.5t-84 256.5t84 256.5t218 98.5q109 0 182 -59t85 -150h-46q-13 74 -72 120.5t-149 46.5q-112 0 -183.5 -87.5t-71.5 -225.5t71.5 -225.5t183.5 -87.5q103 0 162 62.5t59 169.5zM831 10
q144 0 275 56.5t226 152t151.5 227t56.5 275.5t-56.5 275.5t-151.5 227t-226 152t-275 56.5t-275.5 -56.5t-226.5 -152t-151.5 -227t-56.5 -275.5t56.5 -275.5t151.5 -227t226.5 -152t275.5 -56.5zM831 -39q-205 0 -380 102.5t-277 277.5t-102 380t102 380t277 277.5
t380 102.5t380 -102.5t277 -277.5t102 -380t-102 -380t-277 -277.5t-380 -102.5z" />
    <glyph glyph-name="uni24BD" unicode="H&#x20dd;" 
d="M1090 382h-46v333h-425v-333h-47v680h47v-304h425v304h46v-680zM831 10q144 0 275 56.5t226 152t151.5 227t56.5 275.5t-56.5 275.5t-151.5 227t-226 152t-275 56.5t-275.5 -56.5t-226.5 -152t-151.5 -227t-56.5 -275.5t56.5 -275.5t151.5 -227t226.5 -152t275.5 -56.5z
M831 -39q-205 0 -380 102.5t-277 277.5t-102 380t102 380t277 277.5t380 102.5t380 -102.5t277 -277.5t102 -380t-102 -380t-277 -277.5t-380 -102.5z" />
    <glyph glyph-name="uni24BE" unicode="I&#x20dd;" 
d="M854 382h-47v680h47v-680zM831 10q144 0 275 56.5t226 152t151.5 227t56.5 275.5t-56.5 275.5t-151.5 227t-226 152t-275 56.5t-275.5 -56.5t-226.5 -152t-151.5 -227t-56.5 -275.5t56.5 -275.5t151.5 -227t226.5 -152t275.5 -56.5zM831 -39q-205 0 -380 102.5
t-277 277.5t-102 380t102 380t277 277.5t380 102.5t380 -102.5t277 -277.5t102 -380t-102 -380t-277 -277.5t-380 -102.5z" />
    <glyph glyph-name="uni24BF" unicode="J&#x20dd;" 
d="M610 545h46q1 -57 45 -94.5t107 -37.5q65 0 102.5 43t37.5 113v493h46v-492q0 -90 -51 -145t-136 -55q-82 0 -139 49.5t-58 125.5zM831 10q144 0 275 56.5t226 152t151.5 227t56.5 275.5t-56.5 275.5t-151.5 227t-226 152t-275 56.5t-275.5 -56.5t-226.5 -152
t-151.5 -227t-56.5 -275.5t56.5 -275.5t151.5 -227t226.5 -152t275.5 -56.5zM831 -39q-205 0 -380 102.5t-277 277.5t-102 380t102 380t277 277.5t380 102.5t380 -102.5t277 -277.5t102 -380t-102 -380t-277 -277.5t-380 -102.5z" />
    <glyph glyph-name="uni24C0" unicode="&#x212a;&#x20dd;" 
d="M1071 1062l-285 -289l307 -391h-65l-278 356l-104 -105v-251h-46v680h46v-364h4l358 364h63zM831 10q144 0 275 56.5t226 152t151.5 227t56.5 275.5t-56.5 275.5t-151.5 227t-226 152t-275 56.5t-275.5 -56.5t-226.5 -152t-151.5 -227t-56.5 -275.5t56.5 -275.5
t151.5 -227t226.5 -152t275.5 -56.5zM831 -39q-205 0 -380 102.5t-277 277.5t-102 380t102 380t277 277.5t380 102.5t380 -102.5t277 -277.5t102 -380t-102 -380t-277 -277.5t-380 -102.5z" />
    <glyph glyph-name="uni24C1" unicode="L&#x20dd;" 
d="M1064 425v-43h-408v680h47v-637h361zM831 10q144 0 275 56.5t226 152t151.5 227t56.5 275.5t-56.5 275.5t-151.5 227t-226 152t-275 56.5t-275.5 -56.5t-226.5 -152t-151.5 -227t-56.5 -275.5t56.5 -275.5t151.5 -227t226.5 -152t275.5 -56.5zM831 -39q-205 0 -380 102.5
t-277 277.5t-102 380t102 380t277 277.5t380 102.5t380 -102.5t277 -277.5t102 -380t-102 -380t-277 -277.5t-380 -102.5z" />
    <glyph glyph-name="uni24C2" unicode="M&#x20dd;" 
d="M558 382h-44v680h65l250 -627h4l250 627h65v-680h-43v618h-5l-243 -616h-52l-243 616h-4v-618zM831 10q144 0 275 56.5t226 152t151.5 227t56.5 275.5t-56.5 275.5t-151.5 227t-226 152t-275 56.5t-275.5 -56.5t-226.5 -152t-151.5 -227t-56.5 -275.5t56.5 -275.5
t151.5 -227t226.5 -152t275.5 -56.5zM831 -39q-205 0 -380 102.5t-277 277.5t-102 380t102 380t277 277.5t380 102.5t380 -102.5t277 -277.5t102 -380t-102 -380t-277 -277.5t-380 -102.5z" />
    <glyph glyph-name="uni24C3" unicode="N&#x20dd;" 
d="M618 382h-45v680h61l407 -618h3v618h46v-680h-62l-406 619h-4v-619zM831 10q144 0 275 56.5t226 152t151.5 227t56.5 275.5t-56.5 275.5t-151.5 227t-226 152t-275 56.5t-275.5 -56.5t-226.5 -152t-151.5 -227t-56.5 -275.5t56.5 -275.5t151.5 -227t226.5 -152
t275.5 -56.5zM831 -39q-205 0 -380 102.5t-277 277.5t-102 380t102 380t277 277.5t380 102.5t380 -102.5t277 -277.5t102 -380t-102 -380t-277 -277.5t-380 -102.5z" />
    <glyph glyph-name="uni24C4" unicode="O&#x20dd;" 
d="M831 409q118 0 191 87t73 226t-73 226t-191 87q-119 0 -192 -87t-73 -226t73 -226t192 -87zM831 367q-141 0 -226 98t-85 257t85 257t226 98q140 0 225.5 -98t85.5 -257t-85.5 -257t-225.5 -98zM831 10q144 0 275 56.5t226 152t151.5 227t56.5 275.5t-56.5 275.5
t-151.5 227t-226 152t-275 56.5t-275.5 -56.5t-226.5 -152t-151.5 -227t-56.5 -275.5t56.5 -275.5t151.5 -227t226.5 -152t275.5 -56.5zM831 -39q-205 0 -380 102.5t-277 277.5t-102 380t102 380t277 277.5t380 102.5t380 -102.5t277 -277.5t102 -380t-102 -380t-277 -277.5
t-380 -102.5z" />
    <glyph glyph-name="uni24C5" unicode="P&#x20dd;" 
d="M876 1062q92 0 151.5 -58t59.5 -147q0 -90 -59 -148t-152 -58h-189v-269h-47v680h236zM1039 857q0 71 -45.5 117t-117.5 46h-189v-326h189q71 0 117 46t46 117zM831 10q144 0 275 56.5t226 152t151.5 227t56.5 275.5t-56.5 275.5t-151.5 227t-226 152t-275 56.5
t-275.5 -56.5t-226.5 -152t-151.5 -227t-56.5 -275.5t56.5 -275.5t151.5 -227t226.5 -152t275.5 -56.5zM831 -39q-205 0 -380 102.5t-277 277.5t-102 380t102 380t277 277.5t380 102.5t380 -102.5t277 -277.5t102 -380t-102 -380t-277 -277.5t-380 -102.5z" />
    <glyph glyph-name="uni24C6" unicode="Q&#x20dd;" 
d="M1087 295h-52l-72 100q-56 -28 -132 -28q-141 0 -226 98t-85 257t85 257t226 98q140 0 225.5 -98t85.5 -257q0 -103 -37.5 -182.5t-104.5 -124.5zM831 409q57 0 106 22l-97 136h52l82 -114q57 39 89 109.5t32 159.5q0 139 -73 226t-191 87q-119 0 -192 -87t-73 -226
t73 -226t192 -87zM831 10q144 0 275 56.5t226 152t151.5 227t56.5 275.5t-56.5 275.5t-151.5 227t-226 152t-275 56.5t-275.5 -56.5t-226.5 -152t-151.5 -227t-56.5 -275.5t56.5 -275.5t151.5 -227t226.5 -152t275.5 -56.5zM831 -39q-205 0 -380 102.5t-277 277.5t-102 380
t102 380t277 277.5t380 102.5t380 -102.5t277 -277.5t102 -380t-102 -380t-277 -277.5t-380 -102.5z" />
    <glyph glyph-name="uni24C7" unicode="R&#x20dd;" 
d="M850 1062q94 0 153 -55.5t59 -143.5q0 -75 -43.5 -127.5t-116.5 -66.5l167 -287h-53l-162 282h-194v-282h-46v680h236zM660 706h190q73 0 118 43.5t45 113.5t-45 113.5t-118 43.5h-190v-314zM831 10q144 0 275 56.5t226 152t151.5 227t56.5 275.5t-56.5 275.5t-151.5 227
t-226 152t-275 56.5t-275.5 -56.5t-226.5 -152t-151.5 -227t-56.5 -275.5t56.5 -275.5t151.5 -227t226.5 -152t275.5 -56.5zM831 -39q-205 0 -380 102.5t-277 277.5t-102 380t102 380t277 277.5t380 102.5t380 -102.5t277 -277.5t102 -380t-102 -380t-277 -277.5
t-380 -102.5z" />
    <glyph glyph-name="uni24C8" unicode="S&#x20dd;" 
d="M572 561h50q5 -62 66 -106.5t140 -44.5q81 0 141.5 45t60.5 104q0 96 -161 136l-110 28q-84 22 -124 62t-40 104q0 84 66 137t170 53q103 0 168 -50.5t66 -132.5h-47q-5 57 -60.5 99t-127.5 42q-75 0 -132.5 -44.5t-57.5 -102.5q0 -41 38.5 -75t101.5 -50l108 -27
q103 -25 145.5 -64.5t42.5 -109.5q0 -89 -69.5 -142.5t-185.5 -53.5q-107 0 -176 53.5t-73 139.5zM831 10q144 0 275 56.5t226 152t151.5 227t56.5 275.5t-56.5 275.5t-151.5 227t-226 152t-275 56.5t-275.5 -56.5t-226.5 -152t-151.5 -227t-56.5 -275.5t56.5 -275.5
t151.5 -227t226.5 -152t275.5 -56.5zM831 -39q-205 0 -380 102.5t-277 277.5t-102 380t102 380t277 277.5t380 102.5t380 -102.5t277 -277.5t102 -380t-102 -380t-277 -277.5t-380 -102.5z" />
    <glyph glyph-name="uni24C9" unicode="T&#x20dd;" 
d="M855 362h-47v638h-237v42h520v-42h-236v-638zM831 10q144 0 275 56.5t226 152t151.5 227t56.5 275.5t-56.5 275.5t-151.5 227t-226 152t-275 56.5t-275.5 -56.5t-226.5 -152t-151.5 -227t-56.5 -275.5t56.5 -275.5t151.5 -227t226.5 -152t275.5 -56.5zM831 -39
q-205 0 -380 102.5t-277 277.5t-102 380t102 380t277 277.5t380 102.5t380 -102.5t277 -277.5t102 -380t-102 -380t-277 -277.5t-380 -102.5z" />
    <glyph glyph-name="uni24CA" unicode="U&#x20dd;" 
d="M831 385q93 0 154 55.5t61 145.5v451h47v-451q0 -111 -73.5 -177.5t-188.5 -66.5t-188.5 66.5t-73.5 177.5v451h46v-451q0 -89 61.5 -145t154.5 -56zM831 10q144 0 275 56.5t226 152t151.5 227t56.5 275.5t-56.5 275.5t-151.5 227t-226 152t-275 56.5t-275.5 -56.5
t-226.5 -152t-151.5 -227t-56.5 -275.5t56.5 -275.5t151.5 -227t226.5 -152t275.5 -56.5zM831 -39q-205 0 -380 102.5t-277 277.5t-102 380t102 380t277 277.5t380 102.5t380 -102.5t277 -277.5t102 -380t-102 -380t-277 -277.5t-380 -102.5z" />
    <glyph glyph-name="uni24CB" unicode="V&#x20dd;" 
d="M797 356l-259 680h53l238 -631h4l237 631h53l-259 -680h-67zM831 10q144 0 275 56.5t226 152t151.5 227t56.5 275.5t-56.5 275.5t-151.5 227t-226 152t-275 56.5t-275.5 -56.5t-226.5 -152t-151.5 -227t-56.5 -275.5t56.5 -275.5t151.5 -227t226.5 -152t275.5 -56.5z
M831 -39q-205 0 -380 102.5t-277 277.5t-102 380t102 380t277 277.5t380 102.5t380 -102.5t277 -277.5t102 -380t-102 -380t-277 -277.5t-380 -102.5z" />
    <glyph glyph-name="uni24CC" unicode="W&#x20dd;" 
d="M835 970l-163 -614h-64l-172 680h49l153 -625h5l169 625h51l169 -625h4l153 625h49l-171 -680h-65l-163 614h-4zM831 10q144 0 275 56.5t226 152t151.5 227t56.5 275.5t-56.5 275.5t-151.5 227t-226 152t-275 56.5t-275.5 -56.5t-226.5 -152t-151.5 -227t-56.5 -275.5
t56.5 -275.5t151.5 -227t226.5 -152t275.5 -56.5zM831 -39q-205 0 -380 102.5t-277 277.5t-102 380t102 380t277 277.5t380 102.5t380 -102.5t277 -277.5t102 -380t-102 -380t-277 -277.5t-380 -102.5z" />
    <glyph glyph-name="uni24CD" unicode="X&#x20dd;" 
d="M1064 1074l-229 -341l224 -338h-55l-195 298h-4l-197 -298h-54l226 338l-225 341h55l197 -301h4l199 301h54zM831 10q144 0 275 56.5t226 152t151.5 227t56.5 275.5t-56.5 275.5t-151.5 227t-226 152t-275 56.5t-275.5 -56.5t-226.5 -152t-151.5 -227t-56.5 -275.5
t56.5 -275.5t151.5 -227t226.5 -152t275.5 -56.5zM831 -39q-205 0 -380 102.5t-277 277.5t-102 380t102 380t277 277.5t380 102.5t380 -102.5t277 -277.5t102 -380t-102 -380t-277 -277.5t-380 -102.5z" />
    <glyph glyph-name="uni24CE" unicode="Y&#x20dd;" 
d="M854 394h-46v299l-269 381h57l233 -332h4l233 332h56l-268 -381v-299zM831 10q144 0 275 56.5t226 152t151.5 227t56.5 275.5t-56.5 275.5t-151.5 227t-226 152t-275 56.5t-275.5 -56.5t-226.5 -152t-151.5 -227t-56.5 -275.5t56.5 -275.5t151.5 -227t226.5 -152
t275.5 -56.5zM831 -39q-205 0 -380 102.5t-277 277.5t-102 380t102 380t277 277.5t380 102.5t380 -102.5t277 -277.5t102 -380t-102 -380t-277 -277.5t-380 -102.5z" />
    <glyph glyph-name="uni24CF" unicode="Z&#x20dd;" 
d="M573 395v45l439 588v4h-425v42h478v-45l-436 -588v-4h443v-42h-499zM831 10q144 0 275 56.5t226 152t151.5 227t56.5 275.5t-56.5 275.5t-151.5 227t-226 152t-275 56.5t-275.5 -56.5t-226.5 -152t-151.5 -227t-56.5 -275.5t56.5 -275.5t151.5 -227t226.5 -152
t275.5 -56.5zM831 -39q-205 0 -380 102.5t-277 277.5t-102 380t102 380t277 277.5t380 102.5t380 -102.5t277 -277.5t102 -380t-102 -380t-277 -277.5t-380 -102.5z" />
    <glyph glyph-name="uni24EA" unicode="&#x30;&#x20dd;" 
d="M831 410q87 0 141.5 86.5t54.5 225.5t-54.5 225.5t-141.5 86.5t-141.5 -86.5t-54.5 -225.5t54.5 -225.5t141.5 -86.5zM831 367q-108 0 -175 98t-67 257t67 257t175 98t175 -98t67 -257t-67 -257t-175 -98zM831 10q144 0 275 56.5t226 152t151.5 227t56.5 275.5
t-56.5 275.5t-151.5 227t-226 152t-275 56.5t-275.5 -56.5t-226.5 -152t-151.5 -227t-56.5 -275.5t56.5 -275.5t151.5 -227t226.5 -152t275.5 -56.5zM831 -39q-205 0 -380 102.5t-277 277.5t-102 380t102 380t277 277.5t380 102.5t380 -102.5t277 -277.5t102 -380t-102 -380
t-277 -277.5t-380 -102.5z" />
    <glyph glyph-name="uni24FF" unicode="&#x30;&#x20dd;&#x25cf;" 
d="M830 400q-89 0 -143.5 89.5t-54.5 232.5t54.5 232.5t143.5 89.5t144 -89.5t55 -232.5t-55 -232.5t-144 -89.5zM830 345q116 0 187 103.5t71 273.5t-71 273.5t-187 103.5t-186.5 -103.5t-70.5 -273.5t70.5 -273.5t186.5 -103.5zM831 -39q-205 0 -380 102.5t-277 277.5
t-102 380t102 380t277 277.5t380 102.5t380 -102.5t277 -277.5t102 -380t-102 -380t-277 -277.5t-380 -102.5z" />
    <glyph glyph-name="uni278A" unicode="&#x31;&#x20dd;&#x25cf;" 
d="M884 373v723h-57l-189 -126v-62l185 124h4v-659h57zM831 -39q-205 0 -380 102.5t-277 277.5t-102 380t102 380t277 277.5t380 102.5t380 -102.5t277 -277.5t102 -380t-102 -380t-277 -277.5t-380 -102.5z" />
    <glyph glyph-name="uni278B" unicode="&#x32;&#x20dd;&#x25cf;" 
d="M658 905v2q3 67 51 109.5t119 42.5q69 0 115.5 -38.5t46.5 -103.5q0 -44 -18 -82.5t-65 -91.5l-296 -327v-44h461v54h-376v4l242 267q64 71 87.5 119t23.5 101q0 86 -62.5 140t-157.5 54q-100 0 -163.5 -58.5t-66.5 -145.5v-2h59zM831 -39q-205 0 -380 102.5t-277 277.5
t-102 380t102 380t277 277.5t380 102.5t380 -102.5t277 -277.5t102 -380t-102 -380t-277 -277.5t-380 -102.5z" />
    <glyph glyph-name="uni278C" unicode="&#x33;&#x20dd;&#x25cf;" 
d="M752 721h93q75 0 127 -43.5t53 -109.5q0 -72 -53 -115t-140 -43q-72 1 -124 39t-61 88h-56q7 -79 75 -129t166 -50q109 0 180.5 59t71.5 151q-1 72 -48 122t-116 58v4q59 13 98 61.5t39 114.5q0 76 -64.5 130t-161.5 54q-91 0 -152 -48t-71 -126h56q11 54 56.5 87.5
t110.5 33.5q76 0 122 -39t46 -98q0 -64 -45 -106t-115 -42h-87v-53zM831 -39q-205 0 -380 102.5t-277 277.5t-102 380t102 380t277 277.5t380 102.5t380 -102.5t277 -277.5t102 -380t-102 -380t-277 -277.5t-380 -102.5z" />
    <glyph glyph-name="uni278D" unicode="&#x34;&#x20dd;&#x25cf;" 
d="M873 1096q-259 -381 -329 -499v-56h361v-168h57v168h113v53h-113v502h-89zM905 594h-295v5q38 62 142.5 221l147.5 221h5v-447zM831 -39q-205 0 -380 102.5t-277 277.5t-102 380t102 380t277 277.5t380 102.5t380 -102.5t277 -277.5t102 -380t-102 -380t-277 -277.5
t-380 -102.5z" />
    <glyph glyph-name="uni278E" unicode="&#x35;&#x20dd;&#x25cf;" 
d="M588 537q6 -74 74.5 -126t158.5 -52q112 0 183.5 67.5t71.5 176.5q0 101 -67 168t-170 67q-53 0 -99 -23t-72 -61h-4l23 291h347v53h-399l-32 -407h56q71 93 174 93q81 0 132.5 -51t51.5 -132q0 -82 -54.5 -135.5t-137.5 -53.5q-64 0 -117 36.5t-64 88.5h-56zM831 -39
q-205 0 -380 102.5t-277 277.5t-102 380t102 380t277 277.5t380 102.5t380 -102.5t277 -277.5t102 -380t-102 -380t-277 -277.5t-380 -102.5z" />
    <glyph glyph-name="uni278F" unicode="&#x36;&#x20dd;&#x25cf;" 
d="M850 352q112 0 186 70t74 176q0 102 -72 170t-180 68q-83 0 -146.5 -41.5t-84.5 -105.5h-2q-1 168 59 260.5t169 92.5q69 0 119 -34t63 -92h59q-14 82 -80 131.5t-160 49.5q-133 0 -209.5 -104t-76.5 -285q0 -80 17.5 -143t45 -102t65.5 -65t76 -36t78 -10zM849 406
q-87 0 -146 56.5t-59 139.5q0 74 60 127t145 53q86 0 143.5 -53t57.5 -133t-58 -135t-143 -55zM831 -39q-205 0 -380 102.5t-277 277.5t-102 380t102 380t277 277.5t380 102.5t380 -102.5t277 -277.5t102 -380t-102 -380t-277 -277.5t-380 -102.5z" />
    <glyph glyph-name="uni2790" unicode="&#x37;&#x20dd;&#x25cf;" 
d="M604 1095v-53h402v-4l-319 -665h67l315 667v55h-465zM831 -39q-205 0 -380 102.5t-277 277.5t-102 380t102 380t277 277.5t380 102.5t380 -102.5t277 -277.5t102 -380t-102 -380t-277 -277.5t-380 -102.5z" />
    <glyph glyph-name="uni2791" unicode="&#x38;&#x20dd;&#x25cf;" 
d="M832 779q-74 0 -123 40t-49 101q0 60 48.5 99.5t123.5 39.5t124 -39.5t49 -99.5q0 -61 -49.5 -101t-123.5 -40zM832 411q-88 0 -144 45.5t-56 116.5q0 68 56.5 112.5t143.5 44.5t144 -44.5t57 -112.5q0 -71 -56.5 -116.5t-144.5 -45.5zM832 358q113 0 186 60.5t73 153.5
q0 65 -44.5 117t-112.5 65v4q57 16 92.5 61.5t35.5 101.5q0 83 -65 137t-165 54t-165 -54t-65 -137q0 -55 35.5 -100.5t92.5 -62.5v-4q-68 -14 -112 -65.5t-44 -116.5q0 -93 73 -153.5t185 -60.5zM831 -39q-205 0 -380 102.5t-277 277.5t-102 380t102 380t277 277.5
t380 102.5t380 -102.5t277 -277.5t102 -380t-102 -380t-277 -277.5t-380 -102.5z" />
    <glyph glyph-name="uni2792" unicode="&#x39;&#x20dd;&#x25cf;" 
d="M825 352q134 0 209.5 103.5t75.5 284.5q0 100 -26 173t-69 111t-89.5 55.5t-97.5 17.5q-112 0 -186 -70.5t-74 -177.5q0 -101 72 -169t180 -68q81 0 146 41.5t85 105.5h1q2 -179 -62 -266t-165 -87q-72 0 -121 34t-62 90h-59q14 -79 80 -128.5t162 -49.5zM829 667
q-88 0 -145 52.5t-57 130.5q0 81 58 136t144 55q87 0 146 -56.5t59 -137.5q0 -74 -60 -127t-145 -53zM831 -39q-205 0 -380 102.5t-277 277.5t-102 380t102 380t277 277.5t380 102.5t380 -102.5t277 -277.5t102 -380t-102 -380t-277 -277.5t-380 -102.5z" />
    <glyph glyph-name="uni1F130" unicode="A&#x20de;" 
d="M694 668h275l-136 361h-4zM593 401h-49l257 680h60l257 -680h-49l-84 225h-307zM296 1458h1069q90 0 145 -54.5t55 -144.5v-1075q0 -90 -55 -144.5t-145 -54.5h-1069q-90 0 -145 54.5t-55 144.5v1075q0 90 55 144.5t145 54.5zM1519 1259q0 75 -40 115.5t-115 40.5h-1067
q-75 0 -115 -40.5t-40 -115.5v-1075q0 -75 40 -115.5t115 -40.5h1067q75 0 115 40.5t40 115.5v1075z" />
    <glyph glyph-name="uni1F131" unicode="B&#x20de;" 
d="M614 392v680h244q89 0 142.5 -48t53.5 -120q0 -59 -32 -101t-79 -52v-4q67 -8 109 -53t42 -115q0 -87 -62.5 -137t-170.5 -50h-247zM660 1030v-268h180q75 0 120.5 39t45.5 95q0 63 -41 98.5t-116 35.5h-189zM660 720v-286h179q206 0 206 144q0 65 -45.5 103.5
t-123.5 38.5h-216zM296 1458h1069q90 0 145 -54.5t55 -144.5v-1075q0 -90 -55 -144.5t-145 -54.5h-1069q-90 0 -145 54.5t-55 144.5v1075q0 90 55 144.5t145 54.5zM1519 1259q0 75 -40 115.5t-115 40.5h-1067q-75 0 -115 -40.5t-40 -115.5v-1075q0 -75 40 -115.5t115 -40.5
h1067q75 0 115 40.5t40 115.5v1075z" />
    <glyph glyph-name="uni1F132" unicode="C&#x20de;" 
d="M1060 576h46q-11 -91 -84 -150t-183 -59q-134 0 -218 98.5t-84 256.5t84 256.5t218 98.5q109 0 185 -62t82 -157h-46q-8 78 -69.5 127.5t-151.5 49.5q-112 0 -183.5 -87.5t-71.5 -225.5t71.5 -225.5t183.5 -87.5q90 0 149.5 46.5t71.5 120.5zM296 1458h1069
q90 0 145 -54.5t55 -144.5v-1075q0 -90 -55 -144.5t-145 -54.5h-1069q-90 0 -145 54.5t-55 144.5v1075q0 90 55 144.5t145 54.5zM1519 1259q0 75 -40 115.5t-115 40.5h-1067q-75 0 -115 -40.5t-40 -115.5v-1075q0 -75 40 -115.5t115 -40.5h1067q75 0 115 40.5t40 115.5v1075
z" />
    <glyph glyph-name="uni1F133" unicode="D&#x20de;" 
d="M617 1050h202q139 0 220.5 -88t81.5 -237q0 -157 -80.5 -243.5t-221.5 -86.5h-202v655zM663 1008v-571h150q120 0 188.5 74t68.5 213q0 132 -69.5 208t-187.5 76h-150zM296 1458h1069q90 0 145 -54.5t55 -144.5v-1075q0 -90 -55 -144.5t-145 -54.5h-1069q-90 0 -145 54.5
t-55 144.5v1075q0 90 55 144.5t145 54.5zM1519 1259q0 75 -40 115.5t-115 40.5h-1067q-75 0 -115 -40.5t-40 -115.5v-1075q0 -75 40 -115.5t115 -40.5h1067q75 0 115 40.5t40 115.5v1075z" />
    <glyph glyph-name="uni1F134" unicode="E&#x20de;" 
d="M1041 425v-43h-415v680h415v-42h-369v-268h351v-42h-351v-285h369zM296 1458h1069q90 0 145 -54.5t55 -144.5v-1075q0 -90 -55 -144.5t-145 -54.5h-1069q-90 0 -145 54.5t-55 144.5v1075q0 90 55 144.5t145 54.5zM1519 1259q0 75 -40 115.5t-115 40.5h-1067
q-75 0 -115 -40.5t-40 -115.5v-1075q0 -75 40 -115.5t115 -40.5h1067q75 0 115 40.5t40 115.5v1075z" />
    <glyph glyph-name="uni1F135" unicode="F&#x20de;" 
d="M693 382h-46v680h408v-42h-362v-278h334v-42h-334v-318zM296 1458h1069q90 0 145 -54.5t55 -144.5v-1075q0 -90 -55 -144.5t-145 -54.5h-1069q-90 0 -145 54.5t-55 144.5v1075q0 90 55 144.5t145 54.5zM1519 1259q0 75 -40 115.5t-115 40.5h-1067q-75 0 -115 -40.5
t-40 -115.5v-1075q0 -75 40 -115.5t115 -40.5h1067q75 0 115 40.5t40 115.5v1075z" />
    <glyph glyph-name="uni1F136" unicode="G&#x20de;" 
d="M1060 641v40h-228v42h273v-80q0 -125 -72.5 -200.5t-193.5 -75.5q-134 0 -218 98.5t-84 256.5t84 256.5t218 98.5q109 0 182 -59t85 -150h-46q-13 74 -72 120.5t-149 46.5q-112 0 -183.5 -87.5t-71.5 -225.5t71.5 -225.5t183.5 -87.5q103 0 162 62.5t59 169.5zM296 1458
h1069q90 0 145 -54.5t55 -144.5v-1075q0 -90 -55 -144.5t-145 -54.5h-1069q-90 0 -145 54.5t-55 144.5v1075q0 90 55 144.5t145 54.5zM1519 1259q0 75 -40 115.5t-115 40.5h-1067q-75 0 -115 -40.5t-40 -115.5v-1075q0 -75 40 -115.5t115 -40.5h1067q75 0 115 40.5t40 115.5
v1075z" />
    <glyph glyph-name="uni1F137" unicode="H&#x20de;" 
d="M1090 382h-46v333h-425v-333h-47v680h47v-304h425v304h46v-680zM296 1458h1069q90 0 145 -54.5t55 -144.5v-1075q0 -90 -55 -144.5t-145 -54.5h-1069q-90 0 -145 54.5t-55 144.5v1075q0 90 55 144.5t145 54.5zM1519 1259q0 75 -40 115.5t-115 40.5h-1067
q-75 0 -115 -40.5t-40 -115.5v-1075q0 -75 40 -115.5t115 -40.5h1067q75 0 115 40.5t40 115.5v1075z" />
    <glyph glyph-name="uni1F138" unicode="I&#x20de;" 
d="M854 382h-47v680h47v-680zM296 1458h1069q90 0 145 -54.5t55 -144.5v-1075q0 -90 -55 -144.5t-145 -54.5h-1069q-90 0 -145 54.5t-55 144.5v1075q0 90 55 144.5t145 54.5zM1519 1259q0 75 -40 115.5t-115 40.5h-1067q-75 0 -115 -40.5t-40 -115.5v-1075q0 -75 40 -115.5
t115 -40.5h1067q75 0 115 40.5t40 115.5v1075z" />
    <glyph glyph-name="uni1F139" unicode="J&#x20de;" 
d="M610 545h46q1 -57 45 -94.5t107 -37.5q65 0 102.5 43t37.5 113v493h46v-492q0 -90 -51 -145t-136 -55q-82 0 -139 49.5t-58 125.5zM296 1458h1069q90 0 145 -54.5t55 -144.5v-1075q0 -90 -55 -144.5t-145 -54.5h-1069q-90 0 -145 54.5t-55 144.5v1075q0 90 55 144.5
t145 54.5zM1519 1259q0 75 -40 115.5t-115 40.5h-1067q-75 0 -115 -40.5t-40 -115.5v-1075q0 -75 40 -115.5t115 -40.5h1067q75 0 115 40.5t40 115.5v1075z" />
    <glyph glyph-name="uni1F13A" unicode="&#x212a;&#x20de;" 
d="M1071 1062l-285 -289l307 -391h-65l-278 356l-104 -105v-251h-46v680h46v-364h4l358 364h63zM296 1458h1069q90 0 145 -54.5t55 -144.5v-1075q0 -90 -55 -144.5t-145 -54.5h-1069q-90 0 -145 54.5t-55 144.5v1075q0 90 55 144.5t145 54.5zM1519 1259q0 75 -40 115.5
t-115 40.5h-1067q-75 0 -115 -40.5t-40 -115.5v-1075q0 -75 40 -115.5t115 -40.5h1067q75 0 115 40.5t40 115.5v1075z" />
    <glyph glyph-name="uni1F13B" unicode="L&#x20de;" 
d="M1065 425v-43h-408v680h46v-637h362zM296 1458h1069q90 0 145 -54.5t55 -144.5v-1075q0 -90 -55 -144.5t-145 -54.5h-1069q-90 0 -145 54.5t-55 144.5v1075q0 90 55 144.5t145 54.5zM1519 1259q0 75 -40 115.5t-115 40.5h-1067q-75 0 -115 -40.5t-40 -115.5v-1075
q0 -75 40 -115.5t115 -40.5h1067q75 0 115 40.5t40 115.5v1075z" />
    <glyph glyph-name="uni1F13C" unicode="M&#x20de;" 
d="M558 382h-44v680h65l250 -627h4l250 627h65v-680h-43v618h-5l-243 -616h-52l-243 616h-4v-618zM296 1458h1069q90 0 145 -54.5t55 -144.5v-1075q0 -90 -55 -144.5t-145 -54.5h-1069q-90 0 -145 54.5t-55 144.5v1075q0 90 55 144.5t145 54.5zM1519 1259q0 75 -40 115.5
t-115 40.5h-1067q-75 0 -115 -40.5t-40 -115.5v-1075q0 -75 40 -115.5t115 -40.5h1067q75 0 115 40.5t40 115.5v1075z" />
    <glyph glyph-name="uni1F13D" unicode="N&#x20de;" 
d="M618 382h-45v680h61l407 -618h3v618h46v-680h-62l-406 619h-4v-619zM296 1458h1069q90 0 145 -54.5t55 -144.5v-1075q0 -90 -55 -144.5t-145 -54.5h-1069q-90 0 -145 54.5t-55 144.5v1075q0 90 55 144.5t145 54.5zM1519 1259q0 75 -40 115.5t-115 40.5h-1067
q-75 0 -115 -40.5t-40 -115.5v-1075q0 -75 40 -115.5t115 -40.5h1067q75 0 115 40.5t40 115.5v1075z" />
    <glyph glyph-name="uni1F13E" unicode="O&#x20de;" 
d="M831 409q118 0 191 87t73 226t-73 226t-191 87q-119 0 -192 -87t-73 -226t73 -226t192 -87zM831 367q-141 0 -226 98t-85 257t85 257t226 98q140 0 225.5 -98t85.5 -257t-85.5 -257t-225.5 -98zM296 1458h1069q90 0 145 -54.5t55 -144.5v-1075q0 -90 -55 -144.5
t-145 -54.5h-1069q-90 0 -145 54.5t-55 144.5v1075q0 90 55 144.5t145 54.5zM1519 1259q0 75 -40 115.5t-115 40.5h-1067q-75 0 -115 -40.5t-40 -115.5v-1075q0 -75 40 -115.5t115 -40.5h1067q75 0 115 40.5t40 115.5v1075z" />
    <glyph glyph-name="uni1F13F" unicode="P&#x20de;" 
d="M876 1062q92 0 151.5 -58t59.5 -147q0 -90 -59 -148t-152 -58h-189v-269h-47v680h236zM1039 857q0 71 -45.5 117t-117.5 46h-189v-326h189q71 0 117 46t46 117zM296 1458h1069q90 0 145 -54.5t55 -144.5v-1075q0 -90 -55 -144.5t-145 -54.5h-1069q-90 0 -145 54.5
t-55 144.5v1075q0 90 55 144.5t145 54.5zM1519 1259q0 75 -40 115.5t-115 40.5h-1067q-75 0 -115 -40.5t-40 -115.5v-1075q0 -75 40 -115.5t115 -40.5h1067q75 0 115 40.5t40 115.5v1075z" />
    <glyph glyph-name="uni1F140" unicode="Q&#x20de;" 
d="M1087 295h-52l-72 100q-56 -28 -132 -28q-141 0 -226 98t-85 257t85 257t226 98q140 0 225.5 -98t85.5 -257q0 -103 -37.5 -182.5t-104.5 -124.5zM831 409q57 0 106 22l-97 136h52l82 -114q57 39 89 109.5t32 159.5q0 139 -73 226t-191 87q-119 0 -192 -87t-73 -226
t73 -226t192 -87zM296 1458h1069q90 0 145 -54.5t55 -144.5v-1075q0 -90 -55 -144.5t-145 -54.5h-1069q-90 0 -145 54.5t-55 144.5v1075q0 90 55 144.5t145 54.5zM1519 1259q0 75 -40 115.5t-115 40.5h-1067q-75 0 -115 -40.5t-40 -115.5v-1075q0 -75 40 -115.5t115 -40.5
h1067q75 0 115 40.5t40 115.5v1075z" />
    <glyph glyph-name="uni1F141" unicode="R&#x20de;" 
d="M850 1062q94 0 153 -55.5t59 -143.5q0 -75 -43.5 -127.5t-116.5 -66.5l167 -287h-53l-162 282h-194v-282h-46v680h236zM660 706h190q73 0 118 43.5t45 113.5t-45 113.5t-118 43.5h-190v-314zM296 1458h1069q90 0 145 -54.5t55 -144.5v-1075q0 -90 -55 -144.5t-145 -54.5
h-1069q-90 0 -145 54.5t-55 144.5v1075q0 90 55 144.5t145 54.5zM1519 1259q0 75 -40 115.5t-115 40.5h-1067q-75 0 -115 -40.5t-40 -115.5v-1075q0 -75 40 -115.5t115 -40.5h1067q75 0 115 40.5t40 115.5v1075z" />
    <glyph glyph-name="uni1F142" unicode="S&#x20de;" 
d="M572 561h50q5 -62 66 -106.5t140 -44.5q81 0 141.5 45t60.5 104q0 96 -161 136l-110 28q-84 22 -124 62t-40 104q0 84 66 137t170 53q103 0 168 -50.5t66 -132.5h-47q-5 57 -60.5 99t-127.5 42q-75 0 -132.5 -44.5t-57.5 -102.5q0 -41 38.5 -75t101.5 -50l108 -27
q103 -25 145.5 -64.5t42.5 -109.5q0 -89 -69.5 -142.5t-185.5 -53.5q-107 0 -176 53.5t-73 139.5zM296 1458h1069q90 0 145 -54.5t55 -144.5v-1075q0 -90 -55 -144.5t-145 -54.5h-1069q-90 0 -145 54.5t-55 144.5v1075q0 90 55 144.5t145 54.5zM1519 1259q0 75 -40 115.5
t-115 40.5h-1067q-75 0 -115 -40.5t-40 -115.5v-1075q0 -75 40 -115.5t115 -40.5h1067q75 0 115 40.5t40 115.5v1075z" />
    <glyph glyph-name="uni1F143" unicode="T&#x20de;" 
d="M855 364h-47v637h-237v43h520v-43h-236v-637zM296 1458h1069q90 0 145 -54.5t55 -144.5v-1075q0 -90 -55 -144.5t-145 -54.5h-1069q-90 0 -145 54.5t-55 144.5v1075q0 90 55 144.5t145 54.5zM1519 1259q0 75 -40 115.5t-115 40.5h-1067q-75 0 -115 -40.5t-40 -115.5
v-1075q0 -75 40 -115.5t115 -40.5h1067q75 0 115 40.5t40 115.5v1075z" />
    <glyph glyph-name="uni1F144" unicode="U&#x20de;" 
d="M831 386q93 0 154 56t61 146v450h47v-451q0 -111 -73.5 -177.5t-188.5 -66.5t-188.5 66.5t-73.5 177.5v451h46v-450q0 -90 61.5 -146t154.5 -56zM296 1458h1069q90 0 145 -54.5t55 -144.5v-1075q0 -90 -55 -144.5t-145 -54.5h-1069q-90 0 -145 54.5t-55 144.5v1075
q0 90 55 144.5t145 54.5zM1519 1259q0 75 -40 115.5t-115 40.5h-1067q-75 0 -115 -40.5t-40 -115.5v-1075q0 -75 40 -115.5t115 -40.5h1067q75 0 115 40.5t40 115.5v1075z" />
    <glyph glyph-name="uni1F145" unicode="V&#x20de;" 
d="M797 357l-259 680h53l238 -631h4l237 631h53l-259 -680h-67zM296 1458h1069q90 0 145 -54.5t55 -144.5v-1075q0 -90 -55 -144.5t-145 -54.5h-1069q-90 0 -145 54.5t-55 144.5v1075q0 90 55 144.5t145 54.5zM1519 1259q0 75 -40 115.5t-115 40.5h-1067q-75 0 -115 -40.5
t-40 -115.5v-1075q0 -75 40 -115.5t115 -40.5h1067q75 0 115 40.5t40 115.5v1075z" />
    <glyph glyph-name="uni1F146" unicode="W&#x20de;" 
d="M835 972l-163 -615h-64l-172 680h49l153 -625h5l169 625h51l169 -625h4l153 625h49l-171 -680h-65l-163 615h-4zM296 1458h1069q90 0 145 -54.5t55 -144.5v-1075q0 -90 -55 -144.5t-145 -54.5h-1069q-90 0 -145 54.5t-55 144.5v1075q0 90 55 144.5t145 54.5zM1519 1259
q0 75 -40 115.5t-115 40.5h-1067q-75 0 -115 -40.5t-40 -115.5v-1075q0 -75 40 -115.5t115 -40.5h1067q75 0 115 40.5t40 115.5v1075z" />
    <glyph glyph-name="uni1F147" unicode="X&#x20de;" 
d="M1064 1074l-229 -341l224 -338h-55l-195 298h-4l-197 -298h-54l226 338l-225 341h55l197 -301h4l199 301h54zM296 1458h1069q90 0 145 -54.5t55 -144.5v-1075q0 -90 -55 -144.5t-145 -54.5h-1069q-90 0 -145 54.5t-55 144.5v1075q0 90 55 144.5t145 54.5zM1519 1259
q0 75 -40 115.5t-115 40.5h-1067q-75 0 -115 -40.5t-40 -115.5v-1075q0 -75 40 -115.5t115 -40.5h1067q75 0 115 40.5t40 115.5v1075z" />
    <glyph glyph-name="uni1F148" unicode="Y&#x20de;" 
d="M854 395h-46v299l-269 380h57l233 -332h4l233 332h56l-268 -380v-299zM296 1458h1069q90 0 145 -54.5t55 -144.5v-1075q0 -90 -55 -144.5t-145 -54.5h-1069q-90 0 -145 54.5t-55 144.5v1075q0 90 55 144.5t145 54.5zM1519 1259q0 75 -40 115.5t-115 40.5h-1067
q-75 0 -115 -40.5t-40 -115.5v-1075q0 -75 40 -115.5t115 -40.5h1067q75 0 115 40.5t40 115.5v1075z" />
    <glyph glyph-name="uni1F149" unicode="Z&#x20de;" 
d="M573 395v45l439 588v4h-425v42h478v-45l-436 -588v-4h443v-42h-499zM296 1458h1069q90 0 145 -54.5t55 -144.5v-1075q0 -90 -55 -144.5t-145 -54.5h-1069q-90 0 -145 54.5t-55 144.5v1075q0 90 55 144.5t145 54.5zM1519 1259q0 75 -40 115.5t-115 40.5h-1067
q-75 0 -115 -40.5t-40 -115.5v-1075q0 -75 40 -115.5t115 -40.5h1067q75 0 115 40.5t40 115.5v1075z" />
    <glyph glyph-name="uni1F150" unicode="A&#x20dd;&#x25cf;" 
d="M973 669h-284l140 378h4zM582 381l88 235h322l87 -235h64l-273 723h-79l-273 -723h64zM831 -39q-205 0 -380 102.5t-277 277.5t-102 380t102 380t277 277.5t380 102.5t380 -102.5t277 -277.5t102 -380t-102 -380t-277 -277.5t-380 -102.5z" />
    <glyph glyph-name="uni1F151" unicode="B&#x20dd;&#x25cf;" 
d="M599 371h262q116 0 182 53t66 146q0 74 -44 121.5t-116 57.5v3q50 11 84 55.5t34 107.5q0 76 -57.5 127t-151.5 51h-259v-722zM656 1040h192q77 0 119 -36t42 -100q0 -58 -47 -96.5t-124 -38.5h-182v271zM656 716h221q80 0 126.5 -39.5t46.5 -106.5q0 -147 -212 -147
h-182v293zM831 -39q-205 0 -380 102.5t-277 277.5t-102 380t102 380t277 277.5t380 102.5t380 -102.5t277 -277.5t102 -380t-102 -380t-277 -277.5t-380 -102.5z" />
    <glyph glyph-name="uni1F152" unicode="C&#x20dd;&#x25cf;" 
d="M1075 567q-18 -75 -80 -121.5t-155 -46.5q-116 0 -193.5 90.5t-77.5 232.5t78 232.5t193 90.5q89 0 154.5 -51.5t80.5 -127.5h56q-11 100 -92.5 166.5t-198.5 66.5q-146 0 -238 -104.5t-92 -272.5t92 -272.5t238 -104.5q119 0 197 61.5t94 160.5h-56zM831 -39
q-205 0 -380 102.5t-277 277.5t-102 380t102 380t277 277.5t380 102.5t380 -102.5t277 -277.5t102 -380t-102 -380t-277 -277.5t-380 -102.5z" />
    <glyph glyph-name="uni1F153" unicode="D&#x20dd;&#x25cf;" 
d="M598 1072v-698h219q150 0 236 92t86 259q0 160 -87 253.5t-235 93.5h-219zM655 1017h155q123 0 196.5 -77.5t73.5 -215.5q0 -144 -72.5 -220t-197.5 -76h-155v589zM831 -39q-205 0 -380 102.5t-277 277.5t-102 380t102 380t277 277.5t380 102.5t380 -102.5t277 -277.5
t102 -380t-102 -380t-277 -277.5t-380 -102.5z" />
    <glyph glyph-name="uni1F154" unicode="E&#x20dd;&#x25cf;" 
d="M1053 415h-383v288h364v53h-364v274h383v54h-440v-723h440v54zM831 -39q-205 0 -380 102.5t-277 277.5t-102 380t102 380t277 277.5t380 102.5t380 -102.5t277 -277.5t102 -380t-102 -380t-277 -277.5t-380 -102.5z" />
    <glyph glyph-name="uni1F155" unicode="F&#x20dd;&#x25cf;" 
d="M691 361v333h347v54h-347v282h377v54h-434v-723h57zM831 -39q-205 0 -380 102.5t-277 277.5t-102 380t102 380t277 277.5t380 102.5t380 -102.5t277 -277.5t102 -380t-102 -380t-277 -277.5t-380 -102.5z" />
    <glyph glyph-name="uni1F156" unicode="G&#x20dd;&#x25cf;" 
d="M1078 638q0 -108 -61.5 -173t-176.5 -65q-116 0 -193.5 90t-77.5 232t77.5 232t193.5 90q94 0 158 -48t77 -118h56q-11 93 -93 157t-198 64q-145 0 -237.5 -104.5t-92.5 -272.5t92 -272.5t238 -104.5q136 0 216.5 80.5t80.5 213.5v89h-290v-53h231v-37zM831 -39
q-205 0 -380 102.5t-277 277.5t-102 380t102 380t277 277.5t380 102.5t380 -102.5t277 -277.5t102 -380t-102 -380t-277 -277.5t-380 -102.5z" />
    <glyph glyph-name="uni1F157" unicode="H&#x20dd;&#x25cf;" 
d="M1111 361v723h-57v-320h-445v320h-58v-723h58v350h445v-350h57zM831 -39q-205 0 -380 102.5t-277 277.5t-102 380t102 380t277 277.5t380 102.5t380 -102.5t277 -277.5t102 -380t-102 -380t-277 -277.5t-380 -102.5z" />
    <glyph glyph-name="uni1F158" unicode="I&#x20dd;&#x25cf;" 
d="M859 361v723h-57v-723h57zM831 -39q-205 0 -380 102.5t-277 277.5t-102 380t102 380t277 277.5t380 102.5t380 -102.5t277 -277.5t102 -380t-102 -380t-277 -277.5t-380 -102.5z" />
    <glyph glyph-name="uni1F159" unicode="J&#x20dd;&#x25cf;" 
d="M598 536q1 -84 59 -136t148 -52q92 0 146.5 57t54.5 156v524h-57v-525q0 -74 -37.5 -116t-106.5 -42q-64 0 -106 38t-45 96h-56zM831 -39q-205 0 -380 102.5t-277 277.5t-102 380t102 380t277 277.5t380 102.5t380 -102.5t277 -277.5t102 -380t-102 -380t-277 -277.5
t-380 -102.5z" />
    <glyph glyph-name="uni1F15A" unicode="&#x212a;&#x20dd;&#x25cf;" 
d="M1086 1084h-73l-369 -381h-3v381h-57v-723h57v266l104 107l290 -373h74l-325 412zM831 -39q-205 0 -380 102.5t-277 277.5t-102 380t102 380t277 277.5t380 102.5t380 -102.5t277 -277.5t102 -380t-102 -380t-277 -277.5t-380 -102.5z" />
    <glyph glyph-name="uni1F15B" unicode="L&#x20dd;&#x25cf;" 
d="M1077 415h-377v669h-57v-723h434v54zM831 -39q-205 0 -380 102.5t-277 277.5t-102 380t102 380t277 277.5t380 102.5t380 -102.5t277 -277.5t102 -380t-102 -380t-277 -277.5t-380 -102.5z" />
    <glyph glyph-name="uni1F15C" unicode="M&#x20dd;&#x25cf;" 
d="M548 361v646h5l247 -644h62l247 644h5v-646h54v723h-83l-253 -661h-3l-252 661h-83v-723h54zM831 -39q-205 0 -380 102.5t-277 277.5t-102 380t102 380t277 277.5t380 102.5t380 -102.5t277 -277.5t102 -380t-102 -380t-277 -277.5t-380 -102.5z" />
    <glyph glyph-name="uni1F15D" unicode="N&#x20dd;&#x25cf;" 
d="M613 361v647h3l415 -647h75v723h-57v-647h-3l-415 647h-75v-723h57zM831 -39q-205 0 -380 102.5t-277 277.5t-102 380t102 380t277 277.5t380 102.5t380 -102.5t277 -277.5t102 -380t-102 -380t-277 -277.5t-380 -102.5z" />
    <glyph glyph-name="uni1F15E" unicode="O&#x20dd;&#x25cf;" 
d="M831 399q-122 0 -197 89.5t-75 233.5t75 233.5t197 89.5q121 0 196.5 -90t75.5 -233t-75.5 -233t-196.5 -90zM831 345q149 0 240 104t91 273t-91 273t-240 104t-240 -104t-91 -273t91 -273t240 -104zM831 -39q-205 0 -380 102.5t-277 277.5t-102 380t102 380t277 277.5
t380 102.5t380 -102.5t277 -277.5t102 -380t-102 -380t-277 -277.5t-380 -102.5z" />
    <glyph glyph-name="uni1F15F" unicode="P&#x20dd;&#x25cf;" 
d="M877 1084h-251v-723h57v286h194q98 0 161 61t63 157q0 95 -63.5 157t-160.5 62zM1042 865q0 -73 -46 -119t-119 -46h-194v331h194q73 0 119 -46.5t46 -119.5zM831 -39q-205 0 -380 102.5t-277 277.5t-102 380t102 380t277 277.5t380 102.5t380 -102.5t277 -277.5
t102 -380t-102 -380t-277 -277.5t-380 -102.5z" />
    <glyph glyph-name="uni1F160" unicode="Q&#x20dd;&#x25cf;" 
d="M1109 270l-93 130q69 48 107.5 131.5t38.5 190.5q0 169 -91 273t-240 104t-240 -104t-91 -273t91 -273t240 -104q77 0 137 28l74 -103h67zM831 399q-122 0 -197 89.5t-75 233.5t75 233.5t197 89.5q121 0 196.5 -90t75.5 -233q0 -90 -32 -161.5t-89 -113.5l-80 113h-67
l99 -140q-50 -21 -103 -21zM831 -39q-205 0 -380 102.5t-277 277.5t-102 380t102 380t277 277.5t380 102.5t380 -102.5t277 -277.5t102 -380t-102 -380t-277 -277.5t-380 -102.5z" />
    <glyph glyph-name="uni1F161" unicode="R&#x20dd;&#x25cf;" 
d="M657 713v318h194q72 0 118.5 -45t46.5 -115q0 -69 -46.5 -113.5t-118.5 -44.5h-194zM850 1084h-250v-723h57v300h189l172 -300h65l-177 305q77 15 123 71t46 135q0 93 -62.5 152.5t-162.5 59.5zM831 -39q-205 0 -380 102.5t-277 277.5t-102 380t102 380t277 277.5
t380 102.5t380 -102.5t277 -277.5t102 -380t-102 -380t-277 -277.5t-380 -102.5z" />
    <glyph glyph-name="uni1F162" unicode="S&#x20dd;&#x25cf;" 
d="M552 551q4 -90 82 -147.5t187 -57.5q120 0 195.5 57t75.5 151q0 70 -49 116t-152 72l-114 29q-66 16 -102.5 51t-36.5 79q0 65 54 106.5t138 41.5q78 0 134.5 -41t60.5 -102h55q-2 79 -72 137.5t-177 58.5q-112 0 -181.5 -57t-69.5 -147q0 -133 175 -178l116 -30
q87 -22 125 -55.5t38 -85.5q0 -67 -59 -108.5t-149 -41.5q-87 0 -149 44.5t-67 107.5h-58zM831 -39q-205 0 -380 102.5t-277 277.5t-102 380t102 380t277 277.5t380 102.5t380 -102.5t277 -277.5t102 -380t-102 -380t-277 -277.5t-380 -102.5z" />
    <glyph glyph-name="uni1F163" unicode="T&#x20dd;&#x25cf;" 
d="M861 341v669h246v54h-552v-54h247v-669h59zM831 -39q-205 0 -380 102.5t-277 277.5t-102 380t102 380t277 277.5t380 102.5t380 -102.5t277 -277.5t102 -380t-102 -380t-277 -277.5t-380 -102.5z" />
    <glyph glyph-name="uni1F164" unicode="U&#x20dd;&#x25cf;" 
d="M831 374q-98 0 -160 56t-62 151v478h-57v-479q0 -118 78.5 -189t200.5 -71q121 0 200 71.5t79 188.5v479h-57v-478q0 -95 -62 -151t-160 -56zM831 -39q-205 0 -380 102.5t-277 277.5t-102 380t102 380t277 277.5t380 102.5t380 -102.5t277 -277.5t102 -380t-102 -380
t-277 -277.5t-380 -102.5z" />
    <glyph glyph-name="uni1F165" unicode="V&#x20dd;&#x25cf;" 
d="M870 335l273 722h-65l-245 -665h-4l-246 665h-65l273 -722h79zM831 -39q-205 0 -380 102.5t-277 277.5t-102 380t102 380t277 277.5t380 102.5t380 -102.5t277 -277.5t102 -380t-102 -380t-277 -277.5t-380 -102.5z" />
    <glyph glyph-name="uni1F166" unicode="W&#x20dd;&#x25cf;" 
d="M835 977h4l170 -642h78l179 722h-63l-155 -656h-4l-176 656h-62l-175 -656h-4l-156 656h-63l179 -722h79zM831 -39q-205 0 -380 102.5t-277 277.5t-102 380t102 380t277 277.5t380 102.5t380 -102.5t277 -277.5t102 -380t-102 -380t-277 -277.5t-380 -102.5z" />
    <glyph glyph-name="uni1F167" unicode="X&#x20dd;&#x25cf;" 
d="M1090 1096h-68l-211 -322h-4l-208 322h-70l240 -363l-241 -359h68l209 318h4l207 -318h69l-238 359zM831 -39q-205 0 -380 102.5t-277 277.5t-102 380t102 380t277 277.5t380 102.5t380 -102.5t277 -277.5t102 -380t-102 -380t-277 -277.5t-380 -102.5z" />
    <glyph glyph-name="uni1F168" unicode="Y&#x20dd;&#x25cf;" 
d="M802 373h57v314l282 408h-71l-237 -350h-4l-238 350h-70l281 -408v-314zM831 -39q-205 0 -380 102.5t-277 277.5t-102 380t102 380t277 277.5t380 102.5t380 -102.5t277 -277.5t102 -380t-102 -380t-277 -277.5t-380 -102.5z" />
    <glyph glyph-name="uni1F169" unicode="Z&#x20dd;&#x25cf;" 
d="M557 374h531v53h-465v4l458 607v58h-509v-53h446v-4l-461 -608v-57zM831 -39q-205 0 -380 102.5t-277 277.5t-102 380t102 380t277 277.5t380 102.5t380 -102.5t277 -277.5t102 -380t-102 -380t-277 -277.5t-380 -102.5z" />
    <glyph glyph-name="uni1F170" unicode="A&#x20de;&#x25a0;" 
d="M973 667h-284l140 378h4zM582 380l88 235h322l87 -235h64l-273 722h-79l-273 -722h64zM296 1458h1069q90 0 145 -54.5t55 -144.5v-1075q0 -90 -55 -144.5t-145 -54.5h-1069q-90 0 -145 54.5t-55 144.5v1075q0 90 55 144.5t145 54.5z" />
    <glyph glyph-name="uni1F171" unicode="B&#x20de;&#x25a0;" 
d="M599 371h262q115 0 181.5 53t66.5 146q0 75 -44 122t-116 57v3q50 11 84 55.5t34 107.5q0 77 -57.5 127.5t-151.5 50.5h-259v-722zM656 1040h192q77 0 119 -36t42 -100q0 -58 -47.5 -96.5t-123.5 -38.5h-182v271zM656 716h221q80 0 126.5 -39.5t46.5 -106.5
q0 -147 -212 -147h-182v293zM296 1458h1069q90 0 145 -54.5t55 -144.5v-1075q0 -90 -55 -144.5t-145 -54.5h-1069q-90 0 -145 54.5t-55 144.5v1075q0 90 55 144.5t145 54.5z" />
    <glyph glyph-name="uni1F172" unicode="C&#x20de;&#x25a0;" 
d="M1075 567q-18 -75 -80 -121.5t-155 -46.5q-116 0 -193.5 90.5t-77.5 232.5t78 232.5t193 90.5q89 0 154.5 -51.5t80.5 -127.5h56q-11 100 -92.5 166.5t-198.5 66.5q-146 0 -238 -104.5t-92 -272.5t92 -272.5t238 -104.5q119 0 197 61.5t94 160.5h-56zM296 1458h1069
q90 0 145 -54.5t55 -144.5v-1075q0 -90 -55 -144.5t-145 -54.5h-1069q-90 0 -145 54.5t-55 144.5v1075q0 90 55 144.5t145 54.5z" />
    <glyph glyph-name="uni1F173" unicode="D&#x20de;&#x25a0;" 
d="M597 1072v-698h219q150 0 235.5 92t85.5 259q0 159 -86.5 253t-234.5 94h-219zM654 1017h155q123 0 196 -77.5t73 -215.5q0 -144 -72 -220t-197 -76h-155v589zM296 1458h1069q90 0 145 -54.5t55 -144.5v-1075q0 -90 -55 -144.5t-145 -54.5h-1069q-90 0 -145 54.5
t-55 144.5v1075q0 90 55 144.5t145 54.5z" />
    <glyph glyph-name="uni1F174" unicode="E&#x20de;&#x25a0;" 
d="M1053 415h-383v288h364v53h-364v274h383v54h-440v-723h440v54zM296 1458h1069q90 0 145 -54.5t55 -144.5v-1075q0 -90 -55 -144.5t-145 -54.5h-1069q-90 0 -145 54.5t-55 144.5v1075q0 90 55 144.5t145 54.5z" />
    <glyph glyph-name="uni1F175" unicode="F&#x20de;&#x25a0;" 
d="M691 361v333h347v54h-347v282h377v54h-434v-723h57zM296 1458h1069q90 0 145 -54.5t55 -144.5v-1075q0 -90 -55 -144.5t-145 -54.5h-1069q-90 0 -145 54.5t-55 144.5v1075q0 90 55 144.5t145 54.5z" />
    <glyph glyph-name="uni1F176" unicode="G&#x20de;&#x25a0;" 
d="M1078 638q0 -108 -61.5 -173t-176.5 -65q-116 0 -193.5 90t-77.5 232t77.5 232t193.5 90q94 0 158 -48t77 -118h56q-11 93 -93 157t-198 64q-145 0 -237.5 -104.5t-92.5 -272.5t92 -272.5t238 -104.5q136 0 216.5 80.5t80.5 213.5v89h-290v-53h231v-37zM296 1458h1069
q90 0 145 -54.5t55 -144.5v-1075q0 -90 -55 -144.5t-145 -54.5h-1069q-90 0 -145 54.5t-55 144.5v1075q0 90 55 144.5t145 54.5z" />
    <glyph glyph-name="uni1F177" unicode="H&#x20de;&#x25a0;" 
d="M1111 361v723h-57v-320h-445v320h-58v-723h58v350h445v-350h57zM296 1458h1069q90 0 145 -54.5t55 -144.5v-1075q0 -90 -55 -144.5t-145 -54.5h-1069q-90 0 -145 54.5t-55 144.5v1075q0 90 55 144.5t145 54.5z" />
    <glyph glyph-name="uni1F178" unicode="I&#x20de;&#x25a0;" 
d="M859 361v723h-57v-723h57zM296 1458h1069q90 0 145 -54.5t55 -144.5v-1075q0 -90 -55 -144.5t-145 -54.5h-1069q-90 0 -145 54.5t-55 144.5v1075q0 90 55 144.5t145 54.5z" />
    <glyph glyph-name="uni1F179" unicode="J&#x20de;&#x25a0;" 
d="M598 536q1 -84 59 -136t148 -52q92 0 146.5 57t54.5 156v524h-57v-525q0 -74 -37.5 -116t-106.5 -42q-64 0 -106 38t-45 96h-56zM296 1458h1069q90 0 145 -54.5t55 -144.5v-1075q0 -90 -55 -144.5t-145 -54.5h-1069q-90 0 -145 54.5t-55 144.5v1075q0 90 55 144.5
t145 54.5z" />
    <glyph glyph-name="uni1F17A" unicode="&#x212a;&#x20de;&#x25a0;" 
d="M1086 1084h-73l-369 -381h-3v381h-57v-723h57v266l104 107l290 -373h74q-3 5 -162.5 206t-162.5 206zM296 1458h1069q90 0 145 -54.5t55 -144.5v-1075q0 -90 -55 -144.5t-145 -54.5h-1069q-90 0 -145 54.5t-55 144.5v1075q0 90 55 144.5t145 54.5z" />
    <glyph glyph-name="uni1F17B" unicode="L&#x20de;&#x25a0;" 
d="M1078 415h-377v669h-57v-723h434v54zM296 1458h1069q90 0 145 -54.5t55 -144.5v-1075q0 -90 -55 -144.5t-145 -54.5h-1069q-90 0 -145 54.5t-55 144.5v1075q0 90 55 144.5t145 54.5z" />
    <glyph glyph-name="uni1F17C" unicode="M&#x20de;&#x25a0;" 
d="M548 361v646h5l247 -644h62l247 644h5v-646h54v723h-83l-253 -661h-3l-252 661h-83v-723h54zM296 1458h1069q90 0 145 -54.5t55 -144.5v-1075q0 -90 -55 -144.5t-145 -54.5h-1069q-90 0 -145 54.5t-55 144.5v1075q0 90 55 144.5t145 54.5z" />
    <glyph glyph-name="uni1F17D" unicode="N&#x20de;&#x25a0;" 
d="M613 361v647h3l415 -647h75v723h-57v-647h-3l-415 647h-75v-723h57zM296 1458h1069q90 0 145 -54.5t55 -144.5v-1075q0 -90 -55 -144.5t-145 -54.5h-1069q-90 0 -145 54.5t-55 144.5v1075q0 90 55 144.5t145 54.5z" />
    <glyph glyph-name="uni1F17E" unicode="O&#x20de;&#x25a0;" 
d="M831 399q-122 0 -197 89.5t-75 233.5t75 233.5t197 89.5q121 0 196.5 -90t75.5 -233t-75.5 -233t-196.5 -90zM831 345q149 0 240 104t91 273t-91 273t-240 104t-240 -104t-91 -273t91 -273t240 -104zM296 1458h1069q90 0 145 -54.5t55 -144.5v-1075q0 -90 -55 -144.5
t-145 -54.5h-1069q-90 0 -145 54.5t-55 144.5v1075q0 90 55 144.5t145 54.5z" />
    <glyph glyph-name="uni1F17F" unicode="P&#x20de;&#x25a0;" 
d="M877 1084h-251v-723h57v286h194q99 0 161.5 61t62.5 157q0 95 -63 157t-161 62zM1042 865q0 -73 -46 -119t-119 -46h-194v331h194q73 0 119 -46.5t46 -119.5zM296 1458h1069q90 0 145 -54.5t55 -144.5v-1075q0 -90 -55 -144.5t-145 -54.5h-1069q-90 0 -145 54.5
t-55 144.5v1075q0 90 55 144.5t145 54.5z" />
    <glyph glyph-name="uni1F180" unicode="Q&#x20de;&#x25a0;" 
d="M1109 270l-93 130q69 48 107.5 131.5t38.5 190.5q0 169 -91 273t-240 104t-240 -104t-91 -273t91 -273t240 -104q77 0 137 28l74 -103h67zM831 399q-122 0 -197 89.5t-75 233.5t75 233.5t197 89.5q121 0 196.5 -90t75.5 -233q0 -90 -32 -161.5t-89 -113.5l-80 113h-67
l99 -140q-50 -21 -103 -21zM296 1458h1069q90 0 145 -54.5t55 -144.5v-1075q0 -90 -55 -144.5t-145 -54.5h-1069q-90 0 -145 54.5t-55 144.5v1075q0 90 55 144.5t145 54.5z" />
    <glyph glyph-name="uni1F181" unicode="R&#x20de;&#x25a0;" 
d="M657 713v318h194q72 0 118.5 -45t46.5 -115t-46.5 -114t-118.5 -44h-194zM850 1084h-250v-723h57v300h189l172 -300h65l-177 305q78 15 123.5 70.5t45.5 135.5q0 93 -62.5 152.5t-162.5 59.5zM296 1458h1069q90 0 145 -54.5t55 -144.5v-1075q0 -90 -55 -144.5t-145 -54.5
h-1069q-90 0 -145 54.5t-55 144.5v1075q0 90 55 144.5t145 54.5z" />
    <glyph glyph-name="uni1F182" unicode="S&#x20de;&#x25a0;" 
d="M552 551q4 -90 82 -147.5t187 -57.5q120 0 195.5 57t75.5 151q0 70 -49 116t-152 72l-114 29q-66 16 -102.5 51t-36.5 79q0 65 54 106.5t138 41.5q78 0 134.5 -41t60.5 -102h55q-2 79 -72 137.5t-177 58.5q-112 0 -181.5 -57t-69.5 -147q0 -133 175 -178l116 -30
q87 -22 125 -55.5t38 -85.5q0 -67 -59 -108.5t-149 -41.5q-87 0 -149 44.5t-67 107.5h-58zM296 1458h1069q90 0 145 -54.5t55 -144.5v-1075q0 -90 -55 -144.5t-145 -54.5h-1069q-90 0 -145 54.5t-55 144.5v1075q0 90 55 144.5t145 54.5z" />
    <glyph glyph-name="uni1F183" unicode="T&#x20de;&#x25a0;" 
d="M861 343v669h246v53h-552v-53h247v-669h59zM296 1458h1069q90 0 145 -54.5t55 -144.5v-1075q0 -90 -55 -144.5t-145 -54.5h-1069q-90 0 -145 54.5t-55 144.5v1075q0 90 55 144.5t145 54.5z" />
    <glyph glyph-name="uni1F184" unicode="U&#x20de;&#x25a0;" 
d="M831 375q-98 0 -160 56.5t-62 151.5v477h-57v-478q0 -118 78.5 -189.5t200.5 -71.5q121 0 200 71.5t79 189.5v478h-57v-477q0 -95 -62 -151.5t-160 -56.5zM296 1458h1069q90 0 145 -54.5t55 -144.5v-1075q0 -90 -55 -144.5t-145 -54.5h-1069q-90 0 -145 54.5t-55 144.5
v1075q0 90 55 144.5t145 54.5z" />
    <glyph glyph-name="uni1F185" unicode="V&#x20de;&#x25a0;" 
d="M870 336l273 723h-65l-245 -665h-4l-246 665h-65l273 -723h79zM296 1458h1069q90 0 145 -54.5t55 -144.5v-1075q0 -90 -55 -144.5t-145 -54.5h-1069q-90 0 -145 54.5t-55 144.5v1075q0 90 55 144.5t145 54.5z" />
    <glyph glyph-name="uni1F186" unicode="W&#x20de;&#x25a0;" 
d="M835 979h4l170 -643h78l179 723h-63l-155 -657h-4l-176 657h-62l-175 -657h-4l-156 657h-63l179 -723h79zM296 1458h1069q90 0 145 -54.5t55 -144.5v-1075q0 -90 -55 -144.5t-145 -54.5h-1069q-90 0 -145 54.5t-55 144.5v1075q0 90 55 144.5t145 54.5z" />
    <glyph glyph-name="uni1F187" unicode="X&#x20de;&#x25a0;" 
d="M1090 1096h-68l-211 -322h-4l-208 322h-70l240 -363l-241 -359h68l209 318h4l207 -318h69l-238 359zM296 1458h1069q90 0 145 -54.5t55 -144.5v-1075q0 -90 -55 -144.5t-145 -54.5h-1069q-90 0 -145 54.5t-55 144.5v1075q0 90 55 144.5t145 54.5z" />
    <glyph glyph-name="uni1F188" unicode="Y&#x20de;&#x25a0;" 
d="M802 374h57v314l282 408h-71l-237 -351h-4l-238 351h-70l281 -408v-314zM296 1458h1069q90 0 145 -54.5t55 -144.5v-1075q0 -90 -55 -144.5t-145 -54.5h-1069q-90 0 -145 54.5t-55 144.5v1075q0 90 55 144.5t145 54.5z" />
    <glyph glyph-name="uni1F189" unicode="Z&#x20de;&#x25a0;" 
d="M557 374h531v53h-465v4l458 607v58h-509v-53h446v-4l-461 -608v-57zM296 1458h1069q90 0 145 -54.5t55 -144.5v-1075q0 -90 -55 -144.5t-145 -54.5h-1069q-90 0 -145 54.5t-55 144.5v1075q0 90 55 144.5t145 54.5z" />
    <glyph glyph-name="plus.uc.whitecircle" unicode="&#x2b;&#x20dd;" 
d="M853 702v-237h-45v237h-224v43h224v226h45v-226h224v-43h-224zM831 10q144 0 275 56.5t226 152t151.5 227t56.5 275.5t-56.5 275.5t-151.5 227t-226 152t-275 56.5t-275.5 -56.5t-226.5 -152t-151.5 -227t-56.5 -275.5t56.5 -275.5t151.5 -227t226.5 -152t275.5 -56.5z
M831 -39q-205 0 -380 102.5t-277 277.5t-102 380t102 380t277 277.5t380 102.5t380 -102.5t277 -277.5t102 -380t-102 -380t-277 -277.5t-380 -102.5z" />
    <glyph glyph-name="minus.uc.whitecircle" unicode="&#x2212;&#x20dd;" 
d="M1062 702h-461v43h461v-43zM831 10q144 0 275 56.5t226 152t151.5 227t56.5 275.5t-56.5 275.5t-151.5 227t-226 152t-275 56.5t-275.5 -56.5t-226.5 -152t-151.5 -227t-56.5 -275.5t56.5 -275.5t151.5 -227t226.5 -152t275.5 -56.5zM831 -39q-205 0 -380 102.5
t-277 277.5t-102 380t102 380t277 277.5t380 102.5t380 -102.5t277 -277.5t102 -380t-102 -380t-277 -277.5t-380 -102.5z" />
    <glyph glyph-name="multiply.uc.whitecircle" unicode="&#xd7;&#x20dd;" 
d="M834 753l161 159l31 -31l-160 -159l159 -160l-30 -29l-160 158l-168 -168l-32 31l169 168l-159 159l29 31zM831 10q144 0 275 56.5t226 152t151.5 227t56.5 275.5t-56.5 275.5t-151.5 227t-226 152t-275 56.5t-275.5 -56.5t-226.5 -152t-151.5 -227t-56.5 -275.5
t56.5 -275.5t151.5 -227t226.5 -152t275.5 -56.5zM831 -39q-205 0 -380 102.5t-277 277.5t-102 380t102 380t277 277.5t380 102.5t380 -102.5t277 -277.5t102 -380t-102 -380t-277 -277.5t-380 -102.5z" />
    <glyph glyph-name="divide.uc.whitecircle" unicode="&#xf7;&#x20dd;" 
d="M1062 703h-461v41h461v-41zM784 907q0 19 14 33t33 14t33 -13.5t14 -32.5t-13.5 -32.5t-33.5 -13.5t-33.5 13t-13.5 32zM784 538q0 20 14 33.5t33 13.5q20 0 33.5 -13.5t13.5 -32.5t-13.5 -32.5t-33.5 -13.5t-33.5 13t-13.5 32zM831 10q144 0 275 56.5t226 152t151.5 227
t56.5 275.5t-56.5 275.5t-151.5 227t-226 152t-275 56.5t-275.5 -56.5t-226.5 -152t-151.5 -227t-56.5 -275.5t56.5 -275.5t151.5 -227t226.5 -152t275.5 -56.5zM831 -39q-205 0 -380 102.5t-277 277.5t-102 380t102 380t277 277.5t380 102.5t380 -102.5t277 -277.5
t102 -380t-102 -380t-277 -277.5t-380 -102.5z" />
    <glyph glyph-name="equal.uc.whitecircle" unicode="&#x3d;&#x20dd;" 
d="M1061 611h-459v42h459v-42zM1061 794h-459v42h459v-42zM831 10q144 0 275 56.5t226 152t151.5 227t56.5 275.5t-56.5 275.5t-151.5 227t-226 152t-275 56.5t-275.5 -56.5t-226.5 -152t-151.5 -227t-56.5 -275.5t56.5 -275.5t151.5 -227t226.5 -152t275.5 -56.5zM831 -39
q-205 0 -380 102.5t-277 277.5t-102 380t102 380t277 277.5t380 102.5t380 -102.5t277 -277.5t102 -380t-102 -380t-277 -277.5t-380 -102.5z" />
    <glyph glyph-name="greater.uc.whitecircle" unicode="&#x3e;&#x20dd;" 
d="M1070 733v-48l-426 -267v57l376 232v4l-376 233v57zM831 10q144 0 275 56.5t226 152t151.5 227t56.5 275.5t-56.5 275.5t-151.5 227t-226 152t-275 56.5t-275.5 -56.5t-226.5 -152t-151.5 -227t-56.5 -275.5t56.5 -275.5t151.5 -227t226.5 -152t275.5 -56.5zM831 -39
q-205 0 -380 102.5t-277 277.5t-102 380t102 380t277 277.5t380 102.5t380 -102.5t277 -277.5t102 -380t-102 -380t-277 -277.5t-380 -102.5z" />
    <glyph glyph-name="less.uc.whitecircle" unicode="&#x3c;&#x20dd;" 
d="M593 685v48l425 268v-57l-375 -233v-4l375 -232v-57zM831 10q144 0 275 56.5t226 152t151.5 227t56.5 275.5t-56.5 275.5t-151.5 227t-226 152t-275 56.5t-275.5 -56.5t-226.5 -152t-151.5 -227t-56.5 -275.5t56.5 -275.5t151.5 -227t226.5 -152t275.5 -56.5zM831 -39
q-205 0 -380 102.5t-277 277.5t-102 380t102 380t277 277.5t380 102.5t380 -102.5t277 -277.5t102 -380t-102 -380t-277 -277.5t-380 -102.5z" />
    <glyph glyph-name="numbersign.whitecircle" unicode="&#x23;&#x20dd;" 
d="M1099 833h-119l-40 -189h113l-9 -41h-113l-44 -209h-48l44 209h-173l-44 -209h-47l43 209h-123l8 41h125l39 189h-117l8 41h118l43 201h48l-43 -201h173l42 201h48l-43 -201h120zM759 833l-40 -189h174l40 189h-174zM831 10q144 0 275 56.5t226 152t151.5 227t56.5 275.5
t-56.5 275.5t-151.5 227t-226 152t-275 56.5t-275.5 -56.5t-226.5 -152t-151.5 -227t-56.5 -275.5t56.5 -275.5t151.5 -227t226.5 -152t275.5 -56.5zM831 -39q-205 0 -380 102.5t-277 277.5t-102 380t102 380t277 277.5t380 102.5t380 -102.5t277 -277.5t102 -380t-102 -380
t-277 -277.5t-380 -102.5z" />
    <glyph glyph-name="uni25BC.whitecircle" unicode="&#x25bc;&#x20dd;" 
d="M1080 883l-249 -397l-249 397h498zM831 10q144 0 275 56.5t226 152t151.5 227t56.5 275.5t-56.5 275.5t-151.5 227t-226 152t-275 56.5t-275.5 -56.5t-226.5 -152t-151.5 -227t-56.5 -275.5t56.5 -275.5t151.5 -227t226.5 -152t275.5 -56.5zM831 -39q-205 0 -380 102.5
t-277 277.5t-102 380t102 380t277 277.5t380 102.5t380 -102.5t277 -277.5t102 -380t-102 -380t-277 -277.5t-380 -102.5z" />
    <glyph glyph-name="uni25B2.whitecircle" unicode="&#x25b2;&#x20dd;" 
d="M1080 549h-498l249 397zM831 10q144 0 275 56.5t226 152t151.5 227t56.5 275.5t-56.5 275.5t-151.5 227t-226 152t-275 56.5t-275.5 -56.5t-226.5 -152t-151.5 -227t-56.5 -275.5t56.5 -275.5t151.5 -227t226.5 -152t275.5 -56.5zM831 -39q-205 0 -380 102.5t-277 277.5
t-102 380t102 380t277 277.5t380 102.5t380 -102.5t277 -277.5t102 -380t-102 -380t-277 -277.5t-380 -102.5z" />
    <glyph glyph-name="uni25C0.whitecircle" unicode="&#x25c0;&#x20dd;" 
d="M982 468l-396 249l396 250v-499zM831 10q144 0 275 56.5t226 152t151.5 227t56.5 275.5t-56.5 275.5t-151.5 227t-226 152t-275 56.5t-275.5 -56.5t-226.5 -152t-151.5 -227t-56.5 -275.5t56.5 -275.5t151.5 -227t226.5 -152t275.5 -56.5zM831 -39q-205 0 -380 102.5
t-277 277.5t-102 380t102 380t277 277.5t380 102.5t380 -102.5t277 -277.5t102 -380t-102 -380t-277 -277.5t-380 -102.5z" />
    <glyph glyph-name="uni25B6.whitecircle" unicode="&#x25b6;&#x20dd;" 
d="M681 468v499l395 -250zM831 10q144 0 275 56.5t226 152t151.5 227t56.5 275.5t-56.5 275.5t-151.5 227t-226 152t-275 56.5t-275.5 -56.5t-226.5 -152t-151.5 -227t-56.5 -275.5t56.5 -275.5t151.5 -227t226.5 -152t275.5 -56.5zM831 -39q-205 0 -380 102.5t-277 277.5
t-102 380t102 380t277 277.5t380 102.5t380 -102.5t277 -277.5t102 -380t-102 -380t-277 -277.5t-380 -102.5z" />
    <glyph glyph-name="question.whitecircle" unicode="&#x3f;&#x20dd;" 
d="M770 440q0 20 15 35t35 15q21 0 36.5 -15t15.5 -35t-15.5 -35t-36.5 -15t-35.5 14.5t-14.5 35.5zM795 600v43q-1 45 19.5 78t69.5 68q56 40 78.5 70t22.5 69q0 54 -42.5 87.5t-112.5 33.5q-67 0 -109.5 -40.5t-44.5 -98.5h-48q2 79 58 130t147 51q87 0 143.5 -45.5
t56.5 -114.5q0 -52 -25 -89.5t-85 -79.5q-48 -33 -65.5 -59t-17.5 -63v-40h-45zM831 10q144 0 275 56.5t226 152t151.5 227t56.5 275.5t-56.5 275.5t-151.5 227t-226 152t-275 56.5t-275.5 -56.5t-226.5 -152t-151.5 -227t-56.5 -275.5t56.5 -275.5t151.5 -227t226.5 -152
t275.5 -56.5zM831 -39q-205 0 -380 102.5t-277 277.5t-102 380t102 380t277 277.5t380 102.5t380 -102.5t277 -277.5t102 -380t-102 -380t-277 -277.5t-380 -102.5z" />
    <glyph glyph-name="exclam.whitecircle" unicode="&#x21;&#x20dd;" 
d="M780 440q0 20 15.5 35t35.5 15q21 0 36.5 -15t15.5 -35t-15.5 -35t-36.5 -15q-22 0 -36.5 14.5t-14.5 35.5zM808 1074h45l-1 -457h-43zM831 10q144 0 275 56.5t226 152t151.5 227t56.5 275.5t-56.5 275.5t-151.5 227t-226 152t-275 56.5t-275.5 -56.5t-226.5 -152
t-151.5 -227t-56.5 -275.5t56.5 -275.5t151.5 -227t226.5 -152t275.5 -56.5zM831 -39q-205 0 -380 102.5t-277 277.5t-102 380t102 380t277 277.5t380 102.5t380 -102.5t277 -277.5t102 -380t-102 -380t-277 -277.5t-380 -102.5z" />
    <glyph glyph-name="uni2717.whitecircle" unicode="&#x2717;&#x20dd;" 
d="M831 760l280 281l35 -35l-280 -280l280 -281l-35 -34l-280 280l-280 -280l-35 34l280 281l-280 280l34 35zM831 10q144 0 275 56.5t226 152t151.5 227t56.5 275.5t-56.5 275.5t-151.5 227t-226 152t-275 56.5t-275.5 -56.5t-226.5 -152t-151.5 -227t-56.5 -275.5
t56.5 -275.5t151.5 -227t226.5 -152t275.5 -56.5zM831 -39q-205 0 -380 102.5t-277 277.5t-102 380t102 380t277 277.5t380 102.5t380 -102.5t277 -277.5t102 -380t-102 -380t-277 -277.5t-380 -102.5z" />
    <glyph glyph-name="uni2713.whitecircle" unicode="&#x2713;&#x20dd;" 
d="M1239 980l-530 -532l-275 279l36 36l239 -245l494 499zM831 10q144 0 275 56.5t226 152t151.5 227t56.5 275.5t-56.5 275.5t-151.5 227t-226 152t-275 56.5t-275.5 -56.5t-226.5 -152t-151.5 -227t-56.5 -275.5t56.5 -275.5t151.5 -227t226.5 -152t275.5 -56.5zM831 -39
q-205 0 -380 102.5t-277 277.5t-102 380t102 380t277 277.5t380 102.5t380 -102.5t277 -277.5t102 -380t-102 -380t-277 -277.5t-380 -102.5z" />
    <glyph glyph-name="zero.whitesquare" unicode="&#x30;&#x20de;" 
d="M831 410q87 0 141.5 86.5t54.5 225.5t-54.5 225.5t-141.5 86.5t-141.5 -86.5t-54.5 -225.5t54.5 -225.5t141.5 -86.5zM831 367q-108 0 -175 98t-67 257t67 257t175 98t175 -98t67 -257t-67 -257t-175 -98zM296 1458h1069q90 0 145 -54.5t55 -144.5v-1075
q0 -90 -55 -144.5t-145 -54.5h-1069q-90 0 -145 54.5t-55 144.5v1075q0 90 55 144.5t145 54.5zM1519 1259q0 75 -40 115.5t-115 40.5h-1067q-75 0 -115 -40.5t-40 -115.5v-1075q0 -75 40 -115.5t115 -40.5h1067q75 0 115 40.5t40 115.5v1075z" />
    <glyph glyph-name="one.whitesquare" unicode="&#x31;&#x20de;" 
d="M876 395h-47v625h-4l-178 -115v51l182 118h47v-679zM296 1458h1069q90 0 145 -54.5t55 -144.5v-1075q0 -90 -55 -144.5t-145 -54.5h-1069q-90 0 -145 54.5t-55 144.5v1075q0 90 55 144.5t145 54.5zM1519 1259q0 75 -40 115.5t-115 40.5h-1067q-75 0 -115 -40.5
t-40 -115.5v-1075q0 -75 40 -115.5t115 -40.5h1067q75 0 115 40.5t40 115.5v1075z" />
    <glyph glyph-name="two.whitesquare" unicode="&#x32;&#x20de;" 
d="M662 896h-48v2q0 81 62 136t155 55t149 -49.5t56 -132.5q0 -49 -24.5 -94.5t-87.5 -114.5l-231 -257v-4h366v-42h-434v37l279 307q46 52 65 89.5t19 78.5q0 63 -43 101.5t-114 38.5q-73 0 -121 -42.5t-48 -106.5v-2zM296 1458h1069q90 0 145 -54.5t55 -144.5v-1075
q0 -90 -55 -144.5t-145 -54.5h-1069q-90 0 -145 54.5t-55 144.5v1075q0 90 55 144.5t145 54.5zM1519 1259q0 75 -40 115.5t-115 40.5h-1067q-75 0 -115 -40.5t-40 -115.5v-1075q0 -75 40 -115.5t115 -40.5h1067q75 0 115 40.5t40 115.5v1075z" />
    <glyph glyph-name="three.whitesquare" unicode="&#x33;&#x20de;" 
d="M758 726v42h78q67 0 112 41.5t45 101.5t-45 98t-117 38q-63 0 -109.5 -35t-50.5 -86h-46q3 69 62 116t145 47q91 0 150 -49t59 -123q0 -62 -39 -108.5t-98 -57.5v-4q69 -7 115.5 -55.5t46.5 -114.5q0 -86 -66 -141.5t-168 -55.5q-91 0 -154 48t-69 120h46
q4 -51 56.5 -88.5t120.5 -37.5q82 0 134 43.5t52 112.5q0 62 -50.5 105t-125.5 43h-84zM296 1458h1069q90 0 145 -54.5t55 -144.5v-1075q0 -90 -55 -144.5t-145 -54.5h-1069q-90 0 -145 54.5t-55 144.5v1075q0 90 55 144.5t145 54.5zM1519 1259q0 75 -40 115.5t-115 40.5
h-1067q-75 0 -115 -40.5t-40 -115.5v-1075q0 -75 40 -115.5t115 -40.5h1067q75 0 115 40.5t40 115.5v1075z" />
    <glyph glyph-name="four.whitesquare" unicode="&#x34;&#x20de;" 
d="M877 1074h75v-479h108v-42h-108v-158h-45v158h-345v47q49 83 315 474zM614 595h293v439h-5l-148 -219t-140 -216v-4zM296 1458h1069q90 0 145 -54.5t55 -144.5v-1075q0 -90 -55 -144.5t-145 -54.5h-1069q-90 0 -145 54.5t-55 144.5v1075q0 90 55 144.5t145 54.5z
M1519 1259q0 75 -40 115.5t-115 40.5h-1067q-75 0 -115 -40.5t-40 -115.5v-1075q0 -75 40 -115.5t115 -40.5h1067q75 0 115 40.5t40 115.5v1075z" />
    <glyph glyph-name="five.whitesquare" unicode="&#x35;&#x20de;" 
d="M603 548h46q10 -53 60.5 -89t114.5 -36q81 0 135 52.5t54 133.5q0 79 -50.5 128.5t-129.5 49.5q-54 0 -94 -22.5t-78 -70.5h-44l30 381h380v-42h-338l-23 -284h4q28 37 73.5 59t95.5 22q97 0 159.5 -62t62.5 -158q0 -103 -67 -166t-174 -63q-85 0 -147 48t-70 119z
M296 1458h1069q90 0 145 -54.5t55 -144.5v-1075q0 -90 -55 -144.5t-145 -54.5h-1069q-90 0 -145 54.5t-55 144.5v1075q0 90 55 144.5t145 54.5zM1519 1259q0 75 -40 115.5t-115 40.5h-1067q-75 0 -115 -40.5t-40 -115.5v-1075q0 -75 40 -115.5t115 -40.5h1067q75 0 115 40.5
t40 115.5v1075z" />
    <glyph glyph-name="six.whitesquare" unicode="&#x36;&#x20de;" 
d="M846 374q-37 0 -71.5 9t-70.5 33t-62 60t-42.5 96t-16.5 136q0 170 71.5 268.5t194.5 98.5q88 0 149.5 -46.5t74.5 -122.5h-46q-12 56 -61 91t-117 35q-107 0 -165 -92.5t-55 -257.5h1q19 64 80.5 105.5t141.5 41.5q101 0 169 -64t68 -159q0 -100 -69.5 -166t-173.5 -66z
M845 416q83 0 140.5 54.5t57.5 134.5q0 77 -56.5 129.5t-141.5 52.5q-82 0 -141 -52t-59 -125q0 -81 58 -137.5t142 -56.5zM296 1458h1069q90 0 145 -54.5t55 -144.5v-1075q0 -90 -55 -144.5t-145 -54.5h-1069q-90 0 -145 54.5t-55 144.5v1075q0 90 55 144.5t145 54.5z
M1519 1259q0 75 -40 115.5t-115 40.5h-1067q-75 0 -115 -40.5t-40 -115.5v-1075q0 -75 40 -115.5t115 -40.5h1067q75 0 115 40.5t40 115.5v1075z" />
    <glyph glyph-name="seven.whitesquare" unicode="&#x37;&#x20de;" 
d="M618 1074h437v-44l-297 -635h-53l300 633v4h-387v42zM296 1458h1069q90 0 145 -54.5t55 -144.5v-1075q0 -90 -55 -144.5t-145 -54.5h-1069q-90 0 -145 54.5t-55 144.5v1075q0 90 55 144.5t145 54.5zM1519 1259q0 75 -40 115.5t-115 40.5h-1067q-75 0 -115 -40.5
t-40 -115.5v-1075q0 -75 40 -115.5t115 -40.5h1067q75 0 115 40.5t40 115.5v1075z" />
    <glyph glyph-name="eight.whitesquare" unicode="&#x38;&#x20de;" 
d="M833 422q86 0 142 45t56 113q0 67 -56 110.5t-142 43.5t-142.5 -43.5t-56.5 -110.5q0 -68 56.5 -113t142.5 -45zM833 773q73 0 120.5 38.5t47.5 98.5q0 61 -47 99.5t-121 38.5t-121.5 -38.5t-47.5 -99.5q0 -60 48 -98.5t121 -38.5zM832 381q-107 0 -175 56t-68 144
q0 61 42 110t106 62v4q-54 16 -87.5 58.5t-33.5 94.5q0 78 61 128.5t156 50.5q94 0 155 -50.5t61 -128.5q0 -52 -34 -95t-87 -58v-4q64 -13 106 -62t42 -110q0 -87 -69 -143.5t-175 -56.5zM296 1458h1069q90 0 145 -54.5t55 -144.5v-1075q0 -90 -55 -144.5t-145 -54.5h-1069
q-90 0 -145 54.5t-55 144.5v1075q0 90 55 144.5t145 54.5zM1519 1259q0 75 -40 115.5t-115 40.5h-1067q-75 0 -115 -40.5t-40 -115.5v-1075q0 -75 40 -115.5t115 -40.5h1067q75 0 115 40.5t40 115.5v1075z" />
    <glyph glyph-name="nine.whitesquare" unicode="&#x39;&#x20de;" 
d="M823 374q-89 0 -150.5 46.5t-73.5 121.5h46q11 -57 59 -91.5t119 -34.5q97 0 160.5 85t60.5 266h-1q-18 -64 -80.5 -106t-141.5 -42q-103 0 -170.5 63.5t-67.5 158.5q0 100 69 167t174 67q47 0 90 -16t83.5 -51.5t65 -104t24.5 -162.5q0 -170 -71 -268.5t-195 -98.5z
M827 661q82 0 141 52.5t59 124.5q0 81 -57.5 137t-143.5 56q-83 0 -139.5 -54.5t-56.5 -134.5q0 -77 56 -129t141 -52zM296 1458h1069q90 0 145 -54.5t55 -144.5v-1075q0 -90 -55 -144.5t-145 -54.5h-1069q-90 0 -145 54.5t-55 144.5v1075q0 90 55 144.5t145 54.5z
M1519 1259q0 75 -40 115.5t-115 40.5h-1067q-75 0 -115 -40.5t-40 -115.5v-1075q0 -75 40 -115.5t115 -40.5h1067q75 0 115 40.5t40 115.5v1075z" />
    <glyph glyph-name="plus.uc.whitesquare" unicode="&#x2b;&#x20de;" 
d="M853 702v-237h-45v237h-224v43h224v226h45v-226h224v-43h-224zM296 1458h1069q90 0 145 -54.5t55 -144.5v-1075q0 -90 -55 -144.5t-145 -54.5h-1069q-90 0 -145 54.5t-55 144.5v1075q0 90 55 144.5t145 54.5zM1519 1259q0 75 -40 115.5t-115 40.5h-1067q-75 0 -115 -40.5
t-40 -115.5v-1075q0 -75 40 -115.5t115 -40.5h1067q75 0 115 40.5t40 115.5v1075z" />
    <glyph glyph-name="minus.uc.whitesquare" unicode="&#x2212;&#x20de;" 
d="M1062 702h-461v43h461v-43zM296 1458h1069q90 0 145 -54.5t55 -144.5v-1075q0 -90 -55 -144.5t-145 -54.5h-1069q-90 0 -145 54.5t-55 144.5v1075q0 90 55 144.5t145 54.5zM1519 1259q0 75 -40 115.5t-115 40.5h-1067q-75 0 -115 -40.5t-40 -115.5v-1075q0 -75 40 -115.5
t115 -40.5h1067q75 0 115 40.5t40 115.5v1075z" />
    <glyph glyph-name="multiply.uc.whitesquare" unicode="&#xd7;&#x20de;" 
d="M834 753l161 159l31 -31l-160 -159l159 -160l-30 -29l-160 158l-168 -168l-32 31l169 168l-159 159l29 31zM296 1458h1069q90 0 145 -54.5t55 -144.5v-1075q0 -90 -55 -144.5t-145 -54.5h-1069q-90 0 -145 54.5t-55 144.5v1075q0 90 55 144.5t145 54.5zM1519 1259
q0 75 -40 115.5t-115 40.5h-1067q-75 0 -115 -40.5t-40 -115.5v-1075q0 -75 40 -115.5t115 -40.5h1067q75 0 115 40.5t40 115.5v1075z" />
    <glyph glyph-name="divide.uc.whitesquare" unicode="&#xf7;&#x20de;" 
d="M1062 703h-461v41h461v-41zM784 907q0 19 14 33t33 14t33 -13.5t14 -32.5t-13.5 -32.5t-33.5 -13.5t-33.5 13t-13.5 32zM784 538q0 20 14 33.5t33 13.5q20 0 33.5 -13.5t13.5 -32.5t-13.5 -32.5t-33.5 -13.5t-33.5 13t-13.5 32zM296 1458h1069q90 0 145 -54.5t55 -144.5
v-1075q0 -90 -55 -144.5t-145 -54.5h-1069q-90 0 -145 54.5t-55 144.5v1075q0 90 55 144.5t145 54.5zM1519 1259q0 75 -40 115.5t-115 40.5h-1067q-75 0 -115 -40.5t-40 -115.5v-1075q0 -75 40 -115.5t115 -40.5h1067q75 0 115 40.5t40 115.5v1075z" />
    <glyph glyph-name="equal.uc.whitesquare" unicode="&#x3d;&#x20de;" 
d="M1061 611h-459v42h459v-42zM1061 794h-459v42h459v-42zM296 1458h1069q90 0 145 -54.5t55 -144.5v-1075q0 -90 -55 -144.5t-145 -54.5h-1069q-90 0 -145 54.5t-55 144.5v1075q0 90 55 144.5t145 54.5zM1519 1259q0 75 -40 115.5t-115 40.5h-1067q-75 0 -115 -40.5
t-40 -115.5v-1075q0 -75 40 -115.5t115 -40.5h1067q75 0 115 40.5t40 115.5v1075z" />
    <glyph glyph-name="greater.uc.whitesquare" unicode="&#x3e;&#x20de;" 
d="M1070 733v-48l-426 -267v57l376 232v4l-376 233v57zM296 1458h1069q90 0 145 -54.5t55 -144.5v-1075q0 -90 -55 -144.5t-145 -54.5h-1069q-90 0 -145 54.5t-55 144.5v1075q0 90 55 144.5t145 54.5zM1519 1259q0 75 -40 115.5t-115 40.5h-1067q-75 0 -115 -40.5
t-40 -115.5v-1075q0 -75 40 -115.5t115 -40.5h1067q75 0 115 40.5t40 115.5v1075z" />
    <glyph glyph-name="less.uc.whitesquare" unicode="&#x3c;&#x20de;" 
d="M593 685v48l425 268v-57l-375 -233v-4l375 -232v-57zM296 1458h1069q90 0 145 -54.5t55 -144.5v-1075q0 -90 -55 -144.5t-145 -54.5h-1069q-90 0 -145 54.5t-55 144.5v1075q0 90 55 144.5t145 54.5zM1519 1259q0 75 -40 115.5t-115 40.5h-1067q-75 0 -115 -40.5
t-40 -115.5v-1075q0 -75 40 -115.5t115 -40.5h1067q75 0 115 40.5t40 115.5v1075z" />
    <glyph glyph-name="numbersign.whitesquare" unicode="&#x23;&#x20de;" 
d="M1099 833h-119l-40 -189h113l-9 -41h-113l-44 -209h-48l44 209h-173l-44 -209h-47l43 209h-123l8 41h125l39 189h-117l8 41h118l43 201h48l-43 -201h173l42 201h48l-43 -201h120zM759 833l-40 -189h174l40 189h-174zM296 1458h1069q90 0 145 -54.5t55 -144.5v-1075
q0 -90 -55 -144.5t-145 -54.5h-1069q-90 0 -145 54.5t-55 144.5v1075q0 90 55 144.5t145 54.5zM1519 1259q0 75 -40 115.5t-115 40.5h-1067q-75 0 -115 -40.5t-40 -115.5v-1075q0 -75 40 -115.5t115 -40.5h1067q75 0 115 40.5t40 115.5v1075z" />
    <glyph glyph-name="uni25BC.whitesquare" unicode="&#x25bc;&#x20de;" 
d="M1080 883l-249 -397l-249 397h498zM296 1458h1069q90 0 145 -54.5t55 -144.5v-1075q0 -90 -55 -144.5t-145 -54.5h-1069q-90 0 -145 54.5t-55 144.5v1075q0 90 55 144.5t145 54.5zM1519 1259q0 75 -40 115.5t-115 40.5h-1067q-75 0 -115 -40.5t-40 -115.5v-1075
q0 -75 40 -115.5t115 -40.5h1067q75 0 115 40.5t40 115.5v1075z" />
    <glyph glyph-name="uni25B2.whitesquare" unicode="&#x25b2;&#x20de;" 
d="M1080 549h-498l249 397zM296 1458h1069q90 0 145 -54.5t55 -144.5v-1075q0 -90 -55 -144.5t-145 -54.5h-1069q-90 0 -145 54.5t-55 144.5v1075q0 90 55 144.5t145 54.5zM1519 1259q0 75 -40 115.5t-115 40.5h-1067q-75 0 -115 -40.5t-40 -115.5v-1075q0 -75 40 -115.5
t115 -40.5h1067q75 0 115 40.5t40 115.5v1075z" />
    <glyph glyph-name="uni25C0.whitesquare" unicode="&#x25c0;&#x20de;" 
d="M982 468l-396 249l396 250v-499zM296 1458h1069q90 0 145 -54.5t55 -144.5v-1075q0 -90 -55 -144.5t-145 -54.5h-1069q-90 0 -145 54.5t-55 144.5v1075q0 90 55 144.5t145 54.5zM1519 1259q0 75 -40 115.5t-115 40.5h-1067q-75 0 -115 -40.5t-40 -115.5v-1075
q0 -75 40 -115.5t115 -40.5h1067q75 0 115 40.5t40 115.5v1075z" />
    <glyph glyph-name="uni25B6.whitesquare" unicode="&#x25b6;&#x20de;" 
d="M681 468v499l395 -250zM296 1458h1069q90 0 145 -54.5t55 -144.5v-1075q0 -90 -55 -144.5t-145 -54.5h-1069q-90 0 -145 54.5t-55 144.5v1075q0 90 55 144.5t145 54.5zM1519 1259q0 75 -40 115.5t-115 40.5h-1067q-75 0 -115 -40.5t-40 -115.5v-1075q0 -75 40 -115.5
t115 -40.5h1067q75 0 115 40.5t40 115.5v1075z" />
    <glyph glyph-name="question.whitesquare" unicode="&#x3f;&#x20de;" 
d="M770 440q0 20 15 35t35 15q21 0 36.5 -15t15.5 -35t-15.5 -35t-36.5 -15t-35.5 14.5t-14.5 35.5zM628 910q2 79 58 130t147 51q87 0 143.5 -45.5t56.5 -114.5q0 -52 -25 -89.5t-85 -79.5q-48 -33 -65.5 -59t-17.5 -63v-40h-45v43q-1 45 19.5 78t69.5 68q56 40 78.5 70
t22.5 69q0 54 -42.5 87.5t-112.5 33.5q-67 0 -109.5 -40.5t-44.5 -98.5h-48zM296 1458h1069q90 0 145 -54.5t55 -144.5v-1075q0 -90 -55 -144.5t-145 -54.5h-1069q-90 0 -145 54.5t-55 144.5v1075q0 90 55 144.5t145 54.5zM1519 1259q0 75 -40 115.5t-115 40.5h-1067
q-75 0 -115 -40.5t-40 -115.5v-1075q0 -75 40 -115.5t115 -40.5h1067q75 0 115 40.5t40 115.5v1075z" />
    <glyph glyph-name="exclam.whitesquare" unicode="&#x21;&#x20de;" 
d="M780 440q0 20 15.5 35t35.5 15q21 0 36.5 -15t15.5 -35t-15.5 -35t-36.5 -15q-22 0 -36.5 14.5t-14.5 35.5zM808 1074h45l-1 -457h-43zM296 1458h1069q90 0 145 -54.5t55 -144.5v-1075q0 -90 -55 -144.5t-145 -54.5h-1069q-90 0 -145 54.5t-55 144.5v1075q0 90 55 144.5
t145 54.5zM1519 1259q0 75 -40 115.5t-115 40.5h-1067q-75 0 -115 -40.5t-40 -115.5v-1075q0 -75 40 -115.5t115 -40.5h1067q75 0 115 40.5t40 115.5v1075z" />
    <glyph glyph-name="uni2717.whitesquare" unicode="&#x2717;&#x20de;" 
d="M831 760l280 281l35 -35l-280 -280l280 -281l-35 -34l-280 280l-280 -280l-35 34l280 281l-280 280l34 35zM296 1458h1069q90 0 145 -54.5t55 -144.5v-1075q0 -90 -55 -144.5t-145 -54.5h-1069q-90 0 -145 54.5t-55 144.5v1075q0 90 55 144.5t145 54.5zM1519 1259
q0 75 -40 115.5t-115 40.5h-1067q-75 0 -115 -40.5t-40 -115.5v-1075q0 -75 40 -115.5t115 -40.5h1067q75 0 115 40.5t40 115.5v1075z" />
    <glyph glyph-name="uni2713.whitesquare" unicode="&#x2713;&#x20de;" 
d="M1239 980l-530 -532l-275 279l36 36l239 -245l494 499zM296 1458h1069q90 0 145 -54.5t55 -144.5v-1075q0 -90 -55 -144.5t-145 -54.5h-1069q-90 0 -145 54.5t-55 144.5v1075q0 90 55 144.5t145 54.5zM1519 1259q0 75 -40 115.5t-115 40.5h-1067q-75 0 -115 -40.5
t-40 -115.5v-1075q0 -75 40 -115.5t115 -40.5h1067q75 0 115 40.5t40 115.5v1075z" />
    <glyph glyph-name="plus.uc.blackcircle" unicode="&#x2b;&#x20dd;&#x25cf;" 
d="M859 698h234v53h-234v236h-56v-236h-235v-53h235v-249h56v249zM831 -39q-205 0 -380 102.5t-277 277.5t-102 380t102 380t277 277.5t380 102.5t380 -102.5t277 -277.5t102 -380t-102 -380t-277 -277.5t-380 -102.5z" />
    <glyph glyph-name="minus.uc.blackcircle" unicode="&#x2212;&#x20dd;&#x25cf;" 
d="M1077 697v53h-491v-53h491zM831 -39q-205 0 -380 102.5t-277 277.5t-102 380t102 380t277 277.5t380 102.5t380 -102.5t277 -277.5t102 -380t-102 -380t-277 -277.5t-380 -102.5z" />
    <glyph glyph-name="multiply.uc.blackcircle" unicode="&#xd7;&#x20dd;&#x25cf;" 
d="M824 753l-166 165l-41 -41l165 -166l-165 -165l41 -41l166 165l166 -165l42 41l-166 165l166 166l-42 41zM831 -39q-205 0 -380 102.5t-277 277.5t-102 380t102 380t277 277.5t380 102.5t380 -102.5t277 -277.5t102 -380t-102 -380t-277 -277.5t-380 -102.5z" />
    <glyph glyph-name="divide.uc.blackcircle" unicode="&#xf7;&#x20dd;&#x25cf;" 
d="M775 921q0 -23 16.5 -38t39.5 -15t39.5 15.5t16.5 38.5q0 22 -16.5 39t-39.5 17q-22 0 -39 -17t-17 -40zM1077 697v53h-491v-53h491zM775 524q0 -23 16.5 -38.5t39.5 -15.5t39.5 16t16.5 39q0 22 -16.5 38t-39.5 16t-39.5 -16.5t-16.5 -38.5zM831 -39q-205 0 -380 102.5
t-277 277.5t-102 380t102 380t277 277.5t380 102.5t380 -102.5t277 -277.5t102 -380t-102 -380t-277 -277.5t-380 -102.5z" />
    <glyph glyph-name="equal.uc.blackcircle" unicode="&#x3d;&#x20dd;&#x25cf;" 
d="M1075 794v53h-488v-53h488zM1075 599v53h-488v-53h488zM831 -39q-205 0 -380 102.5t-277 277.5t-102 380t102 380t277 277.5t380 102.5t380 -102.5t277 -277.5t102 -380t-102 -380t-277 -277.5t-380 -102.5z" />
    <glyph glyph-name="greater.uc.blackcircle" unicode="&#x3e;&#x20dd;&#x25cf;" 
d="M1083 740l-453 285v-67l399 -247v-4l-399 -246v-67l453 284v62zM831 -39q-205 0 -380 102.5t-277 277.5t-102 380t102 380t277 277.5t380 102.5t380 -102.5t277 -277.5t102 -380t-102 -380t-277 -277.5t-380 -102.5z" />
    <glyph glyph-name="less.uc.blackcircle" unicode="&#x3c;&#x20dd;&#x25cf;" 
d="M578 678l454 -284v67l-399 246v4l399 247v67l-454 -285v-62zM831 -39q-205 0 -380 102.5t-277 277.5t-102 380t102 380t277 277.5t380 102.5t380 -102.5t277 -277.5t102 -380t-102 -380t-277 -277.5t-380 -102.5z" />
    <glyph glyph-name="numbersign.blackcircle" unicode="&#x23;&#x20dd;&#x25cf;" 
d="M759 835h175l-40 -193h-177zM1115 835l9 52h-120l44 209h-59l-44 -209h-175l44 209h-59l-44 -209h-124l-10 -52h123l-41 -192h-131l-9 -53h129l-46 -217h59l46 217h175l-46 -217h59l46 217h115l10 53h-114l41 192h122zM831 -39q-205 0 -380 102.5t-277 277.5t-102 380
t102 380t277 277.5t380 102.5t380 -102.5t277 -277.5t102 -380t-102 -380t-277 -277.5t-380 -102.5z" />
    <glyph glyph-name="uni25BC.blackcircle" unicode="&#x25bc;&#x20dd;&#x25cf;" 
d="M1096 896h-530l265 -423zM831 -39q-205 0 -380 102.5t-277 277.5t-102 380t102 380t277 277.5t380 102.5t380 -102.5t277 -277.5t102 -380t-102 -380t-277 -277.5t-380 -102.5z" />
    <glyph glyph-name="uni25B2.blackcircle" unicode="&#x25b2;&#x20dd;&#x25cf;" 
d="M1096 537l-265 423l-265 -423h530zM831 -39q-205 0 -380 102.5t-277 277.5t-102 380t102 380t277 277.5t380 102.5t380 -102.5t277 -277.5t102 -380t-102 -380t-277 -277.5t-380 -102.5z" />
    <glyph glyph-name="uni25C0.blackcircle" unicode="&#x25c0;&#x20dd;&#x25cf;" 
d="M995 452v531l-422 -266zM831 -39q-205 0 -380 102.5t-277 277.5t-102 380t102 380t277 277.5t380 102.5t380 -102.5t277 -277.5t102 -380t-102 -380t-277 -277.5t-380 -102.5z" />
    <glyph glyph-name="uni25B6.blackcircle" unicode="&#x25b6;&#x20dd;&#x25cf;" 
d="M668 452l421 265l-421 266v-531zM831 -39q-205 0 -380 102.5t-277 277.5t-102 380t102 380t277 277.5t380 102.5t380 -102.5t277 -277.5t102 -380t-102 -380t-277 -277.5t-380 -102.5z" />
    <glyph glyph-name="question.blackcircle" unicode="&#x3f;&#x20dd;&#x25cf;" 
d="M760 422q0 -25 17 -42.5t42 -17.5t43 18t18 42q0 23 -18.5 41t-42.5 18q-23 0 -41 -18t-18 -41zM786 592h56v43q0 40 18.5 66.5t68.5 61.5q64 45 90.5 85.5t26.5 95.5q0 72 -62 121t-152 49q-95 0 -155.5 -53.5t-61.5 -140.5h56q6 66 48 103.5t111 37.5q68 0 112.5 -34
t44.5 -86q0 -40 -23 -72t-81 -73q-54 -37 -75.5 -71t-21.5 -83v-50zM831 -39q-205 0 -380 102.5t-277 277.5t-102 380t102 380t277 277.5t380 102.5t380 -102.5t277 -277.5t102 -380t-102 -380t-277 -277.5t-380 -102.5z" />
    <glyph glyph-name="exclam.blackcircle" unicode="&#x21;&#x20dd;&#x25cf;" 
d="M802 1096l1 -487h56l1 487h-58zM771 422q0 -25 17 -42t42 -17t43 17.5t18 41.5q0 23 -18.5 41t-42.5 18q-23 0 -41 -18t-18 -41zM831 -39q-205 0 -380 102.5t-277 277.5t-102 380t102 380t277 277.5t380 102.5t380 -102.5t277 -277.5t102 -380t-102 -380t-277 -277.5
t-380 -102.5z" />
    <glyph glyph-name="uni2717.blackcircle" unicode="&#x2717;&#x20dd;&#x25cf;" 
d="M831 768l-295 295l-42 -42l295 -295l-295 -295l42 -42l295 295l295 -295l42 42l-295 295l295 295l-42 42zM831 -39q-205 0 -380 102.5t-277 277.5t-102 380t102 380t277 277.5t380 102.5t380 -102.5t277 -277.5t102 -380t-102 -380t-277 -277.5t-380 -102.5z" />
    <glyph glyph-name="uni2713.blackcircle" unicode="&#x2713;&#x20dd;&#x25cf;" 
d="M700 430l564 566l-38 48l-526 -530l-248 256l-44 -43zM831 -39q-205 0 -380 102.5t-277 277.5t-102 380t102 380t277 277.5t380 102.5t380 -102.5t277 -277.5t102 -380t-102 -380t-277 -277.5t-380 -102.5z" />
    <glyph glyph-name="zero.blacksquare" unicode="&#x30;&#x20de;&#x25a0;" 
d="M830 400q-89 0 -143.5 89.5t-54.5 232.5t54.5 232.5t143.5 89.5t144 -89.5t55 -232.5t-55 -232.5t-144 -89.5zM830 345q116 0 187 103.5t71 273.5t-71 273.5t-187 103.5t-186.5 -103.5t-70.5 -273.5t70.5 -273.5t186.5 -103.5zM296 1458h1069q90 0 145 -54.5t55 -144.5
v-1075q0 -90 -55 -144.5t-145 -54.5h-1069q-90 0 -145 54.5t-55 144.5v1075q0 90 55 144.5t145 54.5z" />
    <glyph glyph-name="one.blacksquare" unicode="&#x31;&#x20de;&#x25a0;" 
d="M885 373v723h-57l-189 -126v-62l185 124h4v-659h57zM296 1458h1069q90 0 145 -54.5t55 -144.5v-1075q0 -90 -55 -144.5t-145 -54.5h-1069q-90 0 -145 54.5t-55 144.5v1075q0 90 55 144.5t145 54.5z" />
    <glyph glyph-name="two.blacksquare" unicode="&#x32;&#x20de;&#x25a0;" 
d="M658 905v2q3 67 51 109.5t119 42.5q69 0 115.5 -38.5t46.5 -103.5q0 -44 -18 -82.5t-65 -91.5l-296 -327v-44h461v54h-376v4l242 267q64 71 87.5 119t23.5 101q0 86 -62.5 140t-157.5 54q-100 0 -163.5 -58.5t-66.5 -145.5v-2h59zM296 1458h1069q90 0 145 -54.5
t55 -144.5v-1075q0 -90 -55 -144.5t-145 -54.5h-1069q-90 0 -145 54.5t-55 144.5v1075q0 90 55 144.5t145 54.5z" />
    <glyph glyph-name="three.blacksquare" unicode="&#x33;&#x20de;&#x25a0;" 
d="M752 721h93q75 0 127 -43.5t53 -109.5q0 -72 -53 -115t-140 -43q-72 1 -124 39t-61 88h-56q7 -79 75 -129t166 -50q109 0 180.5 59t71.5 151q-1 72 -48 122t-116 58v4q59 13 98 61.5t39 114.5q0 76 -64.5 130t-161.5 54q-91 0 -152 -48t-71 -126h56q11 54 56.5 87.5
t110.5 33.5q76 0 122 -39t46 -98q0 -64 -45 -106t-115 -42h-87v-53zM296 1458h1069q90 0 145 -54.5t55 -144.5v-1075q0 -90 -55 -144.5t-145 -54.5h-1069q-90 0 -145 54.5t-55 144.5v1075q0 90 55 144.5t145 54.5z" />
    <glyph glyph-name="four.blacksquare" unicode="&#x34;&#x20de;&#x25a0;" 
d="M875 1096q-246 -358 -329 -499v-56h360v-168h57v168h113v53h-113v502h-88zM906 594h-295v5q37 61 142 220l149 222h4v-447zM296 1458h1069q90 0 145 -54.5t55 -144.5v-1075q0 -90 -55 -144.5t-145 -54.5h-1069q-90 0 -145 54.5t-55 144.5v1075q0 90 55 144.5t145 54.5z
" />
    <glyph glyph-name="five.blacksquare" unicode="&#x35;&#x20de;&#x25a0;" 
d="M588 537q6 -74 74.5 -126t158.5 -52q112 0 183.5 67.5t71.5 176.5q0 101 -67 168t-170 67q-53 0 -99 -23t-72 -61h-4q0 4 11 145.5t12 145.5h347v53h-399l-32 -407h56q71 93 174 93q81 0 132.5 -51t51.5 -132q0 -82 -54.5 -135.5t-137.5 -53.5q-64 0 -117 36.5t-64 88.5
h-56zM296 1458h1069q90 0 145 -54.5t55 -144.5v-1075q0 -90 -55 -144.5t-145 -54.5h-1069q-90 0 -145 54.5t-55 144.5v1075q0 90 55 144.5t145 54.5z" />
    <glyph glyph-name="six.blacksquare" unicode="&#x36;&#x20de;&#x25a0;" 
d="M850 352q112 0 186 70t74 176q0 102 -72 170t-180 68q-83 0 -146.5 -41.5t-84.5 -105.5h-2q-1 168 59 260.5t169 92.5q69 0 119 -34t63 -92h59q-14 82 -80 131.5t-160 49.5q-133 0 -209.5 -104t-76.5 -285q0 -80 17.5 -143t45 -102t65.5 -65t76 -36t78 -10zM849 406
q-87 0 -146 56.5t-59 139.5q0 74 60 127t145 53q86 0 143.5 -53t57.5 -133t-58 -135t-143 -55zM296 1458h1069q90 0 145 -54.5t55 -144.5v-1075q0 -90 -55 -144.5t-145 -54.5h-1069q-90 0 -145 54.5t-55 144.5v1075q0 90 55 144.5t145 54.5z" />
    <glyph glyph-name="seven.blacksquare" unicode="&#x37;&#x20de;&#x25a0;" 
d="M604 1096v-54h401v-3l-319 -666h67l316 668v55h-465zM296 1458h1069q90 0 145 -54.5t55 -144.5v-1075q0 -90 -55 -144.5t-145 -54.5h-1069q-90 0 -145 54.5t-55 144.5v1075q0 90 55 144.5t145 54.5z" />
    <glyph glyph-name="eight.blacksquare" unicode="&#x38;&#x20de;&#x25a0;" 
d="M832 779q-74 0 -123 40t-49 101q0 60 48.5 99.5t123.5 39.5t124 -39.5t49 -99.5q0 -61 -49.5 -101t-123.5 -40zM832 411q-88 0 -144 45.5t-56 116.5q0 68 56.5 112.5t143.5 44.5t144 -44.5t57 -112.5q0 -71 -56.5 -116.5t-144.5 -45.5zM832 358q113 0 186 60.5t73 153.5
q0 65 -44.5 117t-112.5 65v4q57 16 92.5 61.5t35.5 101.5q0 83 -65 137t-165 54t-165 -54t-65 -137q0 -55 35.5 -100.5t92.5 -62.5v-4q-68 -14 -112 -65.5t-44 -116.5q0 -93 73 -153.5t185 -60.5zM296 1458h1069q90 0 145 -54.5t55 -144.5v-1075q0 -90 -55 -144.5
t-145 -54.5h-1069q-90 0 -145 54.5t-55 144.5v1075q0 90 55 144.5t145 54.5z" />
    <glyph glyph-name="nine.blacksquare" unicode="&#x39;&#x20de;&#x25a0;" 
d="M825 352q134 0 209.5 103.5t75.5 284.5q0 100 -26 173t-69 111t-89.5 55.5t-97.5 17.5q-112 0 -186 -70.5t-74 -177.5q0 -101 72 -169t180 -68q81 0 146 41.5t85 105.5h1q2 -179 -62 -266t-165 -87q-72 0 -121 34t-62 90h-59q14 -79 80 -128.5t162 -49.5zM829 667
q-88 0 -145 52.5t-57 130.5q0 81 58 136t144 55q87 0 146 -56.5t59 -137.5q0 -74 -60 -127t-145 -53zM296 1458h1069q90 0 145 -54.5t55 -144.5v-1075q0 -90 -55 -144.5t-145 -54.5h-1069q-90 0 -145 54.5t-55 144.5v1075q0 90 55 144.5t145 54.5z" />
    <glyph glyph-name="plus.uc.blacksquare" unicode="&#x2b;&#x20de;&#x25a0;" 
d="M859 698h234v53h-234v236h-56v-236h-235v-53h235v-249h56v249zM296 1458h1069q90 0 145 -54.5t55 -144.5v-1075q0 -90 -55 -144.5t-145 -54.5h-1069q-90 0 -145 54.5t-55 144.5v1075q0 90 55 144.5t145 54.5z" />
    <glyph glyph-name="minus.uc.blacksquare" unicode="&#x2212;&#x20de;&#x25a0;" 
d="M1077 697v53h-491v-53h491zM296 1458h1069q90 0 145 -54.5t55 -144.5v-1075q0 -90 -55 -144.5t-145 -54.5h-1069q-90 0 -145 54.5t-55 144.5v1075q0 90 55 144.5t145 54.5z" />
    <glyph glyph-name="multiply.uc.blacksquare" unicode="&#xd7;&#x20de;&#x25a0;" 
d="M824 753l-166 165l-41 -41l165 -166l-165 -165l41 -41l166 165l166 -165l42 41l-166 165l166 166l-42 41zM296 1458h1069q90 0 145 -54.5t55 -144.5v-1075q0 -90 -55 -144.5t-145 -54.5h-1069q-90 0 -145 54.5t-55 144.5v1075q0 90 55 144.5t145 54.5z" />
    <glyph glyph-name="divide.uc.blacksquare" unicode="&#xf7;&#x20de;&#x25a0;" 
d="M775 921q0 -23 16.5 -38t39.5 -15t39.5 15.5t16.5 38.5q0 22 -16.5 39t-39.5 17q-22 0 -39 -17t-17 -40zM1077 697v53h-491v-53h491zM775 524q0 -23 16.5 -38.5t39.5 -15.5t39.5 16t16.5 39q0 22 -16.5 38t-39.5 16t-39.5 -16.5t-16.5 -38.5zM296 1458h1069
q90 0 145 -54.5t55 -144.5v-1075q0 -90 -55 -144.5t-145 -54.5h-1069q-90 0 -145 54.5t-55 144.5v1075q0 90 55 144.5t145 54.5z" />
    <glyph glyph-name="equal.uc.blacksquare" unicode="&#x3d;&#x20de;&#x25a0;" 
d="M1075 794v53h-488v-53h488zM1075 599v53h-488v-53h488zM296 1458h1069q90 0 145 -54.5t55 -144.5v-1075q0 -90 -55 -144.5t-145 -54.5h-1069q-90 0 -145 54.5t-55 144.5v1075q0 90 55 144.5t145 54.5z" />
    <glyph glyph-name="greater.uc.blacksquare" unicode="&#x3e;&#x20de;&#x25a0;" 
d="M1083 740l-453 285v-67l399 -247v-4l-399 -246v-67l453 284v62zM296 1458h1069q90 0 145 -54.5t55 -144.5v-1075q0 -90 -55 -144.5t-145 -54.5h-1069q-90 0 -145 54.5t-55 144.5v1075q0 90 55 144.5t145 54.5z" />
    <glyph glyph-name="less.uc.blacksquare" unicode="&#x3c;&#x20de;&#x25a0;" 
d="M578 678l454 -284v67q-4 2 -199.5 123t-199.5 123v4l399 247v67l-454 -285v-62zM296 1458h1069q90 0 145 -54.5t55 -144.5v-1075q0 -90 -55 -144.5t-145 -54.5h-1069q-90 0 -145 54.5t-55 144.5v1075q0 90 55 144.5t145 54.5z" />
    <glyph glyph-name="numbersign.blacksquare" unicode="&#x23;&#x20de;&#x25a0;" 
d="M759 835h175l-40 -193h-177zM1115 835l9 52h-120l44 209h-59l-44 -209h-175l44 209h-59l-44 -209h-124l-10 -52h123l-41 -192h-131l-9 -53h129l-46 -217h59l46 217h175l-46 -217h59l46 217h115l10 53h-114l41 192h122zM296 1458h1069q90 0 145 -54.5t55 -144.5v-1075
q0 -90 -55 -144.5t-145 -54.5h-1069q-90 0 -145 54.5t-55 144.5v1075q0 90 55 144.5t145 54.5z" />
    <glyph glyph-name="uni25BC.blacksquare" unicode="&#x25bc;&#x20de;&#x25a0;" 
d="M1096 896h-530l265 -423zM296 1458h1069q90 0 145 -54.5t55 -144.5v-1075q0 -90 -55 -144.5t-145 -54.5h-1069q-90 0 -145 54.5t-55 144.5v1075q0 90 55 144.5t145 54.5z" />
    <glyph glyph-name="uni25B2.blacksquare" unicode="&#x25b2;&#x20de;&#x25a0;" 
d="M1096 537l-265 423l-265 -423h530zM296 1458h1069q90 0 145 -54.5t55 -144.5v-1075q0 -90 -55 -144.5t-145 -54.5h-1069q-90 0 -145 54.5t-55 144.5v1075q0 90 55 144.5t145 54.5z" />
    <glyph glyph-name="uni25C0.blacksquare" unicode="&#x25c0;&#x20de;&#x25a0;" 
d="M995 452v531l-422 -266zM296 1458h1069q90 0 145 -54.5t55 -144.5v-1075q0 -90 -55 -144.5t-145 -54.5h-1069q-90 0 -145 54.5t-55 144.5v1075q0 90 55 144.5t145 54.5z" />
    <glyph glyph-name="uni25B6.blacksquare" unicode="&#x25b6;&#x20de;&#x25a0;" 
d="M668 452l421 265l-421 266v-531zM296 1458h1069q90 0 145 -54.5t55 -144.5v-1075q0 -90 -55 -144.5t-145 -54.5h-1069q-90 0 -145 54.5t-55 144.5v1075q0 90 55 144.5t145 54.5z" />
    <glyph glyph-name="question.blacksquare" unicode="&#x3f;&#x20de;&#x25a0;" 
d="M760 422q0 -25 17 -42.5t42 -17.5t43 18t18 42q0 23 -18.5 41t-42.5 18q-23 0 -41 -18t-18 -41zM832 1114q-95 0 -155.5 -53.5t-61.5 -140.5h56q6 66 48 103.5t111 37.5q68 0 112.5 -34t44.5 -86q0 -40 -23 -72t-81 -73q-54 -37 -75.5 -71t-21.5 -83v-50h56v43
q0 40 18.5 66.5t68.5 61.5q64 45 90.5 85.5t26.5 95.5q0 72 -62 121t-152 49zM296 1458h1069q90 0 145 -54.5t55 -144.5v-1075q0 -90 -55 -144.5t-145 -54.5h-1069q-90 0 -145 54.5t-55 144.5v1075q0 90 55 144.5t145 54.5z" />
    <glyph glyph-name="exclam.blacksquare" unicode="&#x21;&#x20de;&#x25a0;" 
d="M802 1096l1 -487h56l1 487h-58zM771 422q0 -25 17 -42t42 -17t43 17.5t18 41.5q0 23 -18.5 41t-42.5 18q-23 0 -41 -18t-18 -41zM296 1458h1069q90 0 145 -54.5t55 -144.5v-1075q0 -90 -55 -144.5t-145 -54.5h-1069q-90 0 -145 54.5t-55 144.5v1075q0 90 55 144.5
t145 54.5z" />
    <glyph glyph-name="uni2717.blacksquare" unicode="&#x2717;&#x20de;&#x25a0;" 
d="M494 1021l295 -295l-295 -295l42 -42l295 295l295 -295l42 42l-295 295l295 295l-42 42l-295 -295l-295 295zM296 1458h1069q90 0 145 -54.5t55 -144.5v-1075q0 -90 -55 -144.5t-145 -54.5h-1069q-90 0 -145 54.5t-55 144.5v1075q0 90 55 144.5t145 54.5z" />
    <glyph glyph-name="uni2713.blacksquare" unicode="&#x2713;&#x20de;&#x25a0;" 
d="M700 430l564 566l-38 48l-526 -530l-248 256l-44 -43zM296 1458h1069q90 0 145 -54.5t55 -144.5v-1075q0 -90 -55 -144.5t-145 -54.5h-1069q-90 0 -145 54.5t-55 144.5v1075q0 90 55 144.5t145 54.5z" />
    <glyph glyph-name=".notdef" horiz-adv-x="2048" 
d="M100 -494v355h1848v-355h-1848zM100 -76v354h1848v-354h-1848zM100 342v354h1848v-354h-1848zM100 760v354h1848v-354h-1848zM100 1178v354h1848v-354h-1848zM100 1595v355h1848v-355h-1848z" />
    <glyph glyph-name=".null" horiz-adv-x="0" 
 />
    <glyph glyph-name="nonmarkingreturn" horiz-adv-x="0" 
 />
    <glyph glyph-name="space" unicode=" " horiz-adv-x="416" 
 />
    <glyph glyph-name="exclam" unicode="!" horiz-adv-x="500" 
d="M223 1443h54l-1 -1032h-52zM250 -7q-22 0 -37.5 15.5t-15.5 36.5q0 22 15.5 37.5t37.5 15.5q21 0 36.5 -15.5t15.5 -37.5q0 -21 -15.5 -36.5t-36.5 -15.5z" />
    <glyph glyph-name="quotedbl" unicode="&#x22;" horiz-adv-x="494" 
d="M147 998h-48v445h48v-445zM395 998h-49v445h49v-445z" />
    <glyph glyph-name="numbersign" unicode="#" horiz-adv-x="1231" 
d="M666 0l94 450h-426l-94 -450h-48l95 450h-277l9 46h278l90 456h-284l9 45h284l94 453h48l-94 -453h426l94 453h48l-94 -453h303l-9 -45h-302l-91 -456h309l-9 -46h-310l-94 -450h-49zM345 496h426l90 456h-426z" />
    <glyph glyph-name="dollar" unicode="$" horiz-adv-x="1178" 
d="M608 711v-663q191 4 309.5 97.5t118.5 233.5q0 122 -86.5 197.5t-278.5 119.5zM528 779l37 -9v625q-167 -6 -280 -95t-113 -219q0 -113 88.5 -186.5t267.5 -115.5zM608 761l76 -18q205 -48 303.5 -135t98.5 -228q0 -162 -133 -267.5t-345 -110.5v-179h-43v179
q-205 7 -340 117.5t-142 278.5h50q8 -148 128 -245.5t304 -104.5v673l-49 11q-198 46 -296 131.5t-98 217.5q0 150 128.5 252t314.5 108v154h43v-154q188 -7 315.5 -107.5t134.5 -246.5h-50q-7 127 -120 214.5t-280 93.5v-634z" />
    <glyph glyph-name="percent" unicode="%" horiz-adv-x="1381" 
d="M287 783q-114 0 -180.5 90.5t-66.5 244.5t66.5 244.5t180.5 90.5q113 0 179 -90.5t66 -244.5t-66 -244.5t-179 -90.5zM287 823q94 0 148.5 80t54.5 215q0 136 -54.5 215.5t-148.5 79.5t-149 -79.5t-55 -215.5t54.5 -215.5t149.5 -79.5zM251 0h-49l929 1443h49zM1096 -10
q-114 0 -180.5 90.5t-66.5 244.5t66.5 244.5t180.5 90.5q113 0 179 -90.5t66 -244.5t-66 -244.5t-179 -90.5zM1096 30q93 0 147.5 80t54.5 215t-54.5 215t-147.5 80q-94 0 -149 -80t-55 -215q0 -136 54.5 -215.5t149.5 -79.5z" />
    <glyph glyph-name="ampersand" unicode="&#x26;" horiz-adv-x="1375" 
d="M1229 0l-209 215q-94 -109 -228.5 -172t-272.5 -63q-198 0 -322.5 107t-124.5 274q0 224 273 371q1 0 30 15.5l58 30.5l29 16q-132 132 -180.5 211t-48.5 160q0 125 98 211t240 86q140 0 233.5 -83.5t93.5 -210.5q0 -103 -85 -196t-276 -189l478 -503q64 96 102 213.5
t38 219.5v88h49v-87q0 -110 -42.5 -238t-111.5 -227l244 -249h-65zM374 695q-253 -135 -253 -335q0 -142 111.5 -238t287.5 -96q122 0 252.5 61.5t211.5 157.5l-490 514q-119 -64 -120 -64zM506 816q343 164 343 351q0 105 -81 177.5t-198 72.5q-116 0 -202 -75.5
t-86 -177.5q0 -71 46 -143t178 -205z" />
    <glyph glyph-name="quotesingle" unicode="'" horiz-adv-x="246" 
d="M147 998h-48v445h48v-445z" />
    <glyph glyph-name="parenleft" unicode="(" horiz-adv-x="558" 
d="M194 572q0 254 66.5 479.5t194.5 391.5h53q-125 -166 -195 -398.5t-70 -472.5q0 -241 70 -473t195 -398h-53q-128 166 -194.5 391.5t-66.5 479.5z" />
    <glyph glyph-name="parenright" unicode=")" horiz-adv-x="558" 
d="M364 573q0 -254 -66.5 -480.5t-195.5 -391.5h-53q125 166 195 398.5t70 473.5q0 240 -70.5 472.5t-194.5 397.5h53q129 -166 195.5 -391t66.5 -479z" />
    <glyph glyph-name="asterisk" unicode="*" horiz-adv-x="727" 
d="M586 1029l-203 124l1 -224h-41l1 224l-203 -124l-19 33l202 124l-200 122l20 34l200 -122l-1 223h41l-1 -223l200 122l20 -34l-200 -122l202 -125z" />
    <glyph glyph-name="plus" unicode="+" horiz-adv-x="1178" 
d="M614 554v-459h-49v459h-422v47h422v459h49v-459h421v-47h-421z" />
    <glyph glyph-name="comma" unicode="," horiz-adv-x="488" 
d="M176 -253h-43l94 427h52z" />
    <glyph glyph-name="hyphen" unicode="&#x2011;" horiz-adv-x="865" 
d="M760 555h-656v47h656v-47z" />
    <glyph glyph-name="hyphen" unicode="-" horiz-adv-x="865" 
d="M760 555h-656v47h656v-47z" />
    <glyph glyph-name="period" unicode="." horiz-adv-x="488" 
d="M244 -7q-21 0 -36.5 15.5t-15.5 36.5q0 22 15.5 37.5t36.5 15.5q22 0 37.5 -15.5t15.5 -37.5q0 -21 -15.5 -36.5t-37.5 -15.5z" />
    <glyph glyph-name="slash" unicode="/" horiz-adv-x="558" 
d="M49 -299h-49l509 1742h49z" />
    <glyph glyph-name="zero" unicode="0" horiz-adv-x="1181" 
d="M590 -20q-233 0 -369 200t-136 542q0 341 136 541t369 200t369 -200t136 -541q0 -342 -136 -542t-369 -200zM590 26q210 0 332.5 188t122.5 508t-122.5 507.5t-332.5 187.5q-209 0 -332 -187.5t-123 -507.5t122.5 -508t332.5 -188z" />
    <glyph glyph-name="one" unicode="1" horiz-adv-x="774" 
d="M484 0v1386h-2l-397 -247v55l399 249h49v-1443h-49z" />
    <glyph glyph-name="two" unicode="2" horiz-adv-x="1138" 
d="M128 1062q5 175 127 288t307 113q182 0 304.5 -112.5t122.5 -277.5q0 -113 -64.5 -221.5t-243.5 -297.5l-474 -503v-4h845v-47h-919v41l514 547q172 180 232 279.5t60 204.5q0 147 -108 246t-269 99q-163 0 -271 -100t-113 -255h-50z" />
    <glyph glyph-name="three" unicode="3" horiz-adv-x="1126" 
d="M376 729v46h158q175 0 284.5 90t109.5 233q0 137 -108 228t-271 91q-154 0 -263.5 -90t-117.5 -224h-49q8 155 130 257.5t300 102.5q186 0 307.5 -103.5t121.5 -259.5q0 -133 -83 -225.5t-227 -119.5v-4q169 -11 270.5 -108.5t101.5 -251.5q0 -178 -136 -294.5
t-343 -116.5q-200 0 -337 108.5t-139 268.5h50q1 -92 58 -168t154.5 -119.5t214.5 -43.5q184 0 306 103.5t122 261.5t-121 248t-335 90h-158z" />
    <glyph glyph-name="four" unicode="4" horiz-adv-x="1164" 
d="M816 0v379h-748v47q333 501 729 1023l68 1v-1025h237v-46h-237v-379h-49zM128 428v-3h688v965h-2q-342 -446 -686 -962z" />
    <glyph glyph-name="five" unicode="5" horiz-adv-x="1163" 
d="M590 -20q-182 0 -314 103t-150 258h50q18 -135 136.5 -225t278.5 -90q189 0 314.5 123t125.5 308q0 184 -123 308.5t-305 124.5q-126 0 -232 -60.5t-168 -168.5h-53l88 782h747v-47h-704l-75 -660h3q61 92 167.5 146t227.5 54q204 0 340.5 -137t136.5 -341
q0 -206 -140 -342t-351 -136z" />
    <glyph glyph-name="six" unicode="6" horiz-adv-x="1166" 
d="M609 -20q-71 0 -137 16.5t-137.5 64.5t-124 123t-86.5 203t-34 293q0 359 142 571t383 212q172 0 293.5 -97t144.5 -254h-50q-22 134 -130.5 219.5t-257.5 85.5q-231 0 -357.5 -220t-118.5 -607h4q35 154 166 254t301 100q204 0 341.5 -136.5t137.5 -338.5
q0 -209 -137.5 -349t-342.5 -140zM609 26q182 0 306 127.5t124 315.5q0 182 -124.5 305.5t-307.5 123.5q-115 0 -216.5 -56t-161.5 -151.5t-60 -203.5q0 -195 126.5 -328t313.5 -133z" />
    <glyph glyph-name="seven" unicode="7" horiz-adv-x="1074" 
d="M240 0l701 1394v2h-857v47h910v-50l-698 -1393h-56z" />
    <glyph glyph-name="eight" unicode="8" horiz-adv-x="1178" 
d="M588 -20q-222 0 -358 116.5t-136 298.5q0 140 95.5 242.5t248.5 129.5v2q-133 28 -213 115t-80 208q0 163 124 267t319 104q196 0 320 -104t124 -267q0 -117 -81 -205t-211 -118v-2q152 -27 248 -130t96 -242q0 -183 -136.5 -299t-359.5 -116zM588 26q200 0 323 104.5
t123 264.5q0 152 -122.5 249t-322.5 97q-199 0 -322 -97t-123 -249q0 -160 122 -264.5t322 -104.5zM588 789q172 0 283 85.5t111 216.5q0 140 -108 233t-285 93q-176 0 -285 -93t-109 -233q0 -131 111 -216.5t282 -85.5z" />
    <glyph glyph-name="nine" unicode="9" horiz-adv-x="1166" 
d="M551 -20q-177 0 -296.5 97t-142.5 252h50q22 -133 127 -218t262 -85q72 0 138 23.5t131 83t111 150.5t73 237.5t22 332.5h-2q-33 -150 -166.5 -252t-301.5 -102q-207 0 -343 134t-136 334q0 140 61.5 253.5t171.5 178t246 64.5q49 0 96 -8.5t99.5 -30.5t98 -56.5
t88 -89.5t72 -126t47.5 -170.5t18 -218.5q0 -359 -140 -571t-384 -212zM558 545q117 0 218.5 57.5t161 152.5t59.5 201q0 193 -126.5 327t-314.5 134q-184 0 -306.5 -129t-122.5 -321q0 -176 122 -299t309 -123z" />
    <glyph glyph-name="colon" unicode=":" horiz-adv-x="488" 
d="M244 -7q-21 0 -36.5 15.5t-15.5 36.5q0 22 15.5 37.5t36.5 15.5q22 0 37.5 -15.5t15.5 -37.5q0 -21 -15.5 -36.5t-37.5 -15.5zM244 919q-21 0 -36.5 15.5t-15.5 36.5q0 22 15.5 37.5t36.5 15.5q22 0 37.5 -15.5t15.5 -37.5q0 -21 -15.5 -36.5t-37.5 -15.5z" />
    <glyph glyph-name="semicolon" unicode=";" horiz-adv-x="488" 
d="M244 919q-21 0 -36.5 15.5t-15.5 36.5q0 22 15.5 37.5t36.5 15.5q22 0 37.5 -15.5t15.5 -37.5q0 -21 -15.5 -36.5t-37.5 -15.5zM176 -253h-43l94 427h52z" />
    <glyph glyph-name="less" unicode="&#x3c;" horiz-adv-x="1178" 
d="M1035 1023l-830 -440v-6l830 -440v-57l-892 476v45l892 476v-54z" />
    <glyph glyph-name="equal" unicode="=" horiz-adv-x="1178" 
d="M1034 343h-889v46h889v-46zM1034 766h-889v46h889v-46z" />
    <glyph glyph-name="greater" unicode="&#x3e;" horiz-adv-x="1178" 
d="M143 135l830 440v5l-830 441v56l892 -476v-45l-892 -476v55z" />
    <glyph glyph-name="question" unicode="?" horiz-adv-x="911" 
d="M62 1105q10 154 118.5 255t266.5 101q164 0 273 -100t109 -250q0 -99 -49 -175.5t-166 -159.5q-105 -75 -141.5 -133t-36.5 -149v-97h-49v99q0 99 40.5 165t151.5 148q107 79 153 148.5t46 151.5q0 133 -95.5 219.5t-235.5 86.5q-136 0 -230 -85.5t-107 -224.5h-48z
M415 -7q-22 0 -37 15.5t-15 36.5q0 22 15 37.5t37 15.5t37.5 -15.5t15.5 -37.5q0 -21 -15.5 -36.5t-37.5 -15.5z" />
    <glyph glyph-name="at" unicode="@" horiz-adv-x="1727" 
d="M857 968q-127 0 -210 -107t-83 -270t82 -266.5t211 -103.5q127 0 203.5 105t76.5 278q0 168 -75 266t-205 98zM883 1431q174 0 322 -56t252 -155t163 -240.5t59 -306.5q0 -236 -80.5 -368t-225.5 -132q-95 0 -157.5 57t-77.5 157h-4q-76 -211 -278 -211
q-153 0 -247.5 115t-94.5 301q0 188 94.5 304.5t247.5 116.5q100 0 175 -54t102 -146h4v178h48v-541q0 -108 50.5 -170.5t139.5 -62.5q122 0 189.5 120t67.5 337q0 155 -55.5 288t-154 226.5t-238 146t-303.5 52.5t-307 -59t-244 -161.5t-159.5 -247t-58.5 -310.5
q0 -139 36 -262.5t104 -220t161.5 -166.5t212.5 -107t252 -37q212 0 326 35v-46q-100 -33 -326 -33q-177 0 -328.5 61.5t-258 170.5t-166.5 265t-60 340q0 235 105 423t292 293.5t421 105.5z" />
    <glyph glyph-name="A" unicode="A" horiz-adv-x="1201" 
d="M1125 0l-189 501h-671l-190 -501h-55l555 1443h51l555 -1443h-56zM598 1374l-315 -827h635l-315 827h-5z" />
    <glyph glyph-name="B" unicode="B" horiz-adv-x="1138" 
d="M600 0h-476v1443h463q188 0 305 -96.5t117 -252.5q0 -133 -78.5 -225.5t-215.5 -119.5v-4q162 -16 266.5 -113.5t104.5 -252.5q0 -174 -130.5 -276.5t-355.5 -102.5zM174 1397v-632h400q174 0 279.5 89.5t105.5 238.5q0 137 -103 220.5t-273 83.5h-409zM174 46h424
q204 0 321 90.5t117 243.5q0 157 -122.5 248t-336.5 91h-403v-673z" />
    <glyph glyph-name="C" unicode="C" horiz-adv-x="1303" 
d="M692 -20q-287 0 -458 204t-171 548q0 337 169.5 534t459.5 197q215 0 377 -140.5t181 -343.5h-49q-20 184 -167 310.5t-342 126.5q-266 0 -422.5 -184.5t-156.5 -499.5q0 -324 157.5 -514.5t421.5 -190.5q203 0 347 115t162 298h49q-11 -134 -86.5 -239t-199 -163
t-272.5 -58z" />
    <glyph glyph-name="D" unicode="D" horiz-adv-x="1312" 
d="M124 1443h435q330 0 510 -188t180 -533q0 -346 -180 -534t-510 -188h-435v1443zM175 1396v-1349h383q309 0 475 175t166 500q0 324 -166.5 499t-474.5 175h-383z" />
    <glyph glyph-name="E" unicode="E" horiz-adv-x="1050" 
d="M950 47v-47h-826v1443h826v-47h-776v-632h740v-46h-740v-671h776z" />
    <glyph glyph-name="F" unicode="F" horiz-adv-x="1020" 
d="M174 0h-50v1443h817v-47h-767v-634h706v-47h-706v-715z" />
    <glyph glyph-name="G" unicode="G" horiz-adv-x="1332" 
d="M1259 564q0 -272 -153.5 -428t-420.5 -156q-182 0 -323.5 94.5t-220 265.5t-78.5 391q0 329 171 530.5t451 201.5q213 0 368.5 -118t195.5 -309h-49q-42 172 -183 276t-332 104q-258 0 -415 -188t-157 -497q0 -313 159 -508.5t413 -195.5q244 0 384.5 143t140.5 392v100
h-531v46h580v-144z" />
    <glyph glyph-name="H" unicode="H" horiz-adv-x="1296" 
d="M1172 0h-50v718h-948v-718h-50v1443h50v-678h948v678h50v-1443z" />
    <glyph glyph-name="I" unicode="I" horiz-adv-x="298" 
d="M174 0h-50v1443h50v-1443z" />
    <glyph glyph-name="J" unicode="J" horiz-adv-x="933" 
d="M41 315h49q7 -128 98.5 -208.5t229.5 -80.5q159 0 250 95t91 263v1059h50v-1062q0 -185 -104.5 -293.5t-286.5 -108.5q-160 0 -266 94t-111 242z" />
    <glyph glyph-name="K" unicode="&#x212a;" horiz-adv-x="1107" 
d="M174 0h-50v1443h50v-836h4l784 836h64l-594 -635l664 -808h-64l-636 773l-222 -237v-536z" />
    <glyph glyph-name="K" unicode="K" horiz-adv-x="1107" 
d="M174 0h-50v1443h50v-836h4l784 836h64l-594 -635l664 -808h-64l-636 773l-222 -237v-536z" />
    <glyph glyph-name="L" unicode="L" horiz-adv-x="1009" 
d="M949 47v-47h-825v1443h50v-1396h775z" />
    <glyph glyph-name="M" unicode="M" horiz-adv-x="1576" 
d="M1451 0h-49v1328h-4l-584 -1328h-53l-584 1328h-4v-1328h-49v1443h53l609 -1380h4l606 1380h55v-1443z" />
    <glyph glyph-name="N" unicode="N" horiz-adv-x="1315" 
d="M174 0h-50v1443h55l958 -1348h4v1348h50v-1443h-46l-967 1359h-4v-1359z" />
    <glyph glyph-name="O" unicode="O" horiz-adv-x="1398" 
d="M699 1463q291 0 463.5 -200.5t172.5 -540.5q0 -341 -172 -541.5t-464 -200.5q-293 0 -464.5 200.5t-171.5 541.5q0 340 172 540.5t464 200.5zM699 1416q-269 0 -427.5 -188t-158.5 -506t159 -506.5t427 -188.5t427 188.5t159 506.5t-159 506t-427 188z" />
    <glyph glyph-name="P" unicode="P" horiz-adv-x="1085" 
d="M124 1443h445q213 0 338.5 -114t125.5 -307t-126 -307t-338 -114h-395v-601h-50v1443zM174 1396v-748h392q192 0 304.5 100.5t112.5 273.5q0 174 -112.5 274t-304.5 100h-392z" />
    <glyph glyph-name="Q" unicode="Q" horiz-adv-x="1398" 
d="M699 -20q-293 0 -464.5 200.5t-171.5 541.5q0 340 172 540.5t464 200.5q291 0 463.5 -200.5t172.5 -540.5q0 -224 -79 -393.5t-224 -260.5l183 -250h-59l-166 227q-130 -65 -291 -65zM699 27q145 0 263 58l-201 275h59l183 -252q136 84 208.5 243t72.5 371
q0 317 -159 505.5t-426 188.5q-268 0 -427 -188.5t-159 -505.5q0 -318 159 -506.5t427 -188.5z" />
    <glyph glyph-name="R" unicode="R" horiz-adv-x="1124" 
d="M174 1396v-720h396q193 0 304 96.5t111 263.5q0 170 -110.5 265t-304.5 95h-396zM174 630v-630h-50v1443h447q216 0 340 -108.5t124 -298.5q0 -158 -92 -263t-255 -133l382 -640h-58l-376 632q-34 -2 -66 -2h-396z" />
    <glyph glyph-name="S" unicode="S" horiz-adv-x="1114" 
d="M52 381h50q8 -156 139.5 -255.5t329.5 -99.5q195 0 317 96t122 251q0 124 -87.5 196.5t-288.5 120.5l-151 36q-209 50 -300.5 135t-91.5 226q0 108 63 195t168 134t231 47q199 0 335.5 -103.5t143.5 -257.5h-50q-8 135 -130 225t-300 90q-173 0 -292 -92t-119 -238
q0 -122 86.5 -196.5t274.5 -119.5l150 -36q219 -52 313.5 -134.5t94.5 -225.5q0 -176 -135.5 -285.5t-354.5 -109.5q-220 0 -365 112.5t-153 288.5z" />
    <glyph glyph-name="T" unicode="T" horiz-adv-x="1116" 
d="M583 0h-50v1396h-520v47h1090v-47h-520v-1396z" />
    <glyph glyph-name="U" unicode="U" horiz-adv-x="1307" 
d="M174 1443v-943q0 -218 129.5 -345.5t349.5 -127.5q221 0 350.5 127.5t129.5 345.5v943h50v-944q0 -237 -143.5 -378t-386.5 -141t-386 141t-143 378v944h50z" />
    <glyph glyph-name="V" unicode="V" horiz-adv-x="1203" 
d="M627 0h-51l-556 1443h55l524 -1372h4l525 1372h54z" />
    <glyph glyph-name="W" unicode="W" horiz-adv-x="1777" 
d="M886 1338l-398 -1338h-41l-406 1443h52l374 -1344h4l396 1344h43l395 -1344h5l374 1344h51l-406 -1443h-40l-398 1338h-5z" />
    <glyph glyph-name="X" unicode="X" horiz-adv-x="1188" 
d="M40 0l524 721v1l-523 721h60l493 -680h1l494 680h59l-523 -721l522 -722h-59l-493 680h-1l-495 -680h-59z" />
    <glyph glyph-name="Y" unicode="Y" horiz-adv-x="1148" 
d="M600 0h-50v631l-529 812h60l492 -758h4l491 758h59l-527 -812v-631z" />
    <glyph glyph-name="Z" unicode="Z" horiz-adv-x="1147" 
d="M64 0v42l954 1350v4h-925v47h989v-43l-953 -1349v-4h954v-47h-1019z" />
    <glyph glyph-name="bracketleft" unicode="[" horiz-adv-x="558" 
d="M200 1443h328v-45h-279v-1652h279v-45h-328v1742z" />
    <glyph glyph-name="backslash" unicode="\" horiz-adv-x="558" 
d="M508 -299l-508 1742h49l509 -1742h-50z" />
    <glyph glyph-name="bracketright" unicode="]" horiz-adv-x="558" 
d="M357 -299h-328v45h279v1652h-279v45h328v-1742z" />
    <glyph glyph-name="asciicircum" unicode="^" horiz-adv-x="727" 
d="M361 1350l-204 -388h-50l236 449h41l236 -449h-52l-203 388h-4z" />
    <glyph glyph-name="underscore" unicode="_" horiz-adv-x="801" 
d="M867 -196h-933v44h933v-44z" />
    <glyph glyph-name="grave" unicode="`" horiz-adv-x="1024" 
d="M593 1216l-211 304h59l201 -304h-49z" />
    <glyph glyph-name="a" unicode="a" horiz-adv-x="987" 
d="M434 30q164 0 279.5 103.5t115.5 249.5v175l-368 -28q-158 -12 -241 -77t-83 -177q0 -106 84.5 -176t212.5 -70zM431 -15q-151 0 -247 81t-96 210q0 266 366 297l375 28v94q0 147 -83 231t-230 84q-145 0 -234.5 -71t-109.5 -202h-48q17 148 122 233t270 85
q168 0 265 -95.5t97 -260.5v-699h-49v236h-1q-38 -111 -148 -181t-249 -70z" />
    <glyph glyph-name="b" unicode="b" horiz-adv-x="1080" 
d="M581 -15q-146 0 -256.5 87.5t-148.5 234.5h-2v-307h-48v1443h49v-707h2q36 144 146 231.5t257 87.5q193 0 315 -148t122 -386t-121.5 -387t-314.5 -149zM575 1010q-175 0 -287.5 -138t-112.5 -353t112 -352t287 -137t284 136.5t109 354.5t-108.5 353.5t-283.5 135.5z" />
    <glyph glyph-name="c" unicode="c" horiz-adv-x="985" 
d="M927 734h-50q-26 122 -124.5 199t-236.5 77q-186 0 -294.5 -132.5t-108.5 -357.5t108.5 -357.5t294.5 -132.5q139 0 237 74t122 193h50q-25 -140 -136.5 -226t-272.5 -86q-208 0 -330.5 144.5t-122.5 390.5t123 390.5t330 144.5q159 0 272 -90t139 -231z" />
    <glyph glyph-name="d" unicode="d" horiz-adv-x="1088" 
d="M506 -15q-195 0 -319 148.5t-124 386.5t123.5 386.5t319.5 148.5q151 0 262.5 -91.5t142.5 -227.5h2v707h50v-1443h-46v309h-2q-33 -139 -145.5 -231.5t-263.5 -92.5zM509 1010q-175 0 -285.5 -136t-110.5 -353q0 -218 110.5 -354.5t285.5 -136.5q177 0 290.5 137
t113.5 353t-113.5 353t-290.5 137z" />
    <glyph glyph-name="e" unicode="e" horiz-adv-x="1021" 
d="M515 1010q-174 0 -283.5 -123t-117.5 -325h794q0 200 -108.5 324t-284.5 124zM894 289h51q-27 -135 -139.5 -219.5t-282.5 -84.5q-211 0 -335.5 142t-124.5 393q0 242 124 388.5t328 146.5q199 0 321 -138t122 -362v-38h-845v-2q0 -228 111.5 -356.5t299.5 -128.5
q150 0 248 72t122 187z" />
    <glyph glyph-name="f" unicode="f" horiz-adv-x="498" 
d="M164 0v995h-145v45h145v163q0 120 59.5 177t167.5 57q49 0 77 -10v-44q-33 9 -75 9q-179 0 -179 -194v-158h244v-45h-244v-995h-50z" />
    <glyph glyph-name="g" unicode="g" horiz-adv-x="1070" 
d="M504 32q177 0 289 136t112 352q0 217 -112 353.5t-289 136.5q-174 0 -282.5 -136.5t-108.5 -354.5q0 -217 108.5 -352t282.5 -135zM531 -371q-163 0 -272 73t-132 181h52q28 -91 121.5 -150t232.5 -59q170 0 271 91t101 242v298h-2q-32 -137 -141.5 -228.5t-259.5 -91.5
q-195 0 -317 148.5t-122 386.5t122 386.5t317 148.5q150 0 260 -91.5t144 -232.5h2v309h46v-1031q0 -172 -114.5 -276t-308.5 -104z" />
    <glyph glyph-name="h" unicode="h" horiz-adv-x="1038" 
d="M126 0v1443h49v-647h2q32 116 133 187.5t235 71.5q172 0 278 -104t106 -278v-673h-49v670q0 156 -94 248t-247 92q-160 0 -262 -108t-102 -278v-624h-49z" />
    <glyph glyph-name="i" unicode="i" horiz-adv-x="299" 
d="M125 0v1040h49v-1040h-49zM149 1317q-20 0 -34 13.5t-14 33.5q0 19 14 32.5t34 13.5t34 -13.5t14 -32.5q0 -20 -14 -33.5t-34 -13.5z" />
    <glyph glyph-name="j" unicode="j" horiz-adv-x="299" 
d="M174 1040v-1135q0 -131 -61.5 -192.5t-193.5 -61.5h-29v46h27q109 0 158.5 48.5t49.5 155.5v1139h49zM149 1317q-20 0 -34 13.5t-14 33.5q0 19 14 32.5t34 13.5t34 -13.5t14 -32.5q0 -20 -14 -33.5t-34 -13.5z" />
    <glyph glyph-name="k" unicode="k" horiz-adv-x="883" 
d="M176 487l622 553h69l-499 -448l500 -592h-63l-476 562l-154 -137v-425h-49v1443h49v-956h1z" />
    <glyph glyph-name="l" unicode="l" horiz-adv-x="299" 
d="M125 0v1443h49v-1443h-49z" />
    <glyph glyph-name="m" unicode="m" horiz-adv-x="1574" 
d="M116 0v1040h46v-244h2q28 115 111.5 187t207.5 72t210.5 -75t107.5 -186h2q24 109 114 185t218 76q149 0 239.5 -97t90.5 -260v-698h-49v686q0 150 -77.5 237t-211.5 87q-140 0 -226 -102t-86 -266v-642h-49v684q0 146 -80.5 236t-207.5 90q-140 0 -226.5 -108.5
t-86.5 -289.5v-612h-49z" />
    <glyph glyph-name="n" unicode="n" horiz-adv-x="1027" 
d="M116 0v1040h46v-244h2q33 116 133 187.5t235 71.5q173 0 279.5 -104t106.5 -278v-673h-49v670q0 156 -95 248t-249 92q-160 0 -260 -108t-100 -278v-624h-49z" />
    <glyph glyph-name="o" unicode="o" horiz-adv-x="1043" 
d="M521 -15q-206 0 -332 145t-126 390t126 390t332 145t332.5 -145t126.5 -390t-126.5 -390t-332.5 -145zM521 30q184 0 297 133t113 357q0 225 -112.5 357.5t-297.5 132.5t-296.5 -132.5t-111.5 -357.5t111.5 -357.5t296.5 -132.5z" />
    <glyph glyph-name="p" unicode="p" horiz-adv-x="1070" 
d="M568 1055q195 0 317 -148.5t122 -386.5q0 -239 -122 -387t-317 -148q-149 0 -259 91.5t-142 227.5h-2v-643h-49v1379h46v-309h2q33 140 143.5 232t260.5 92zM565 30q175 0 284 136t109 353q0 218 -109 354.5t-284 136.5q-176 0 -288 -136.5t-112 -353.5t112 -353.5
t288 -136.5z" />
    <glyph glyph-name="q" unicode="q" horiz-adv-x="1079" 
d="M506 1055q151 0 263.5 -92.5t145.5 -231.5h2v309h46v-1379h-50v643h-2q-32 -136 -143.5 -227.5t-261.5 -91.5q-196 0 -319.5 148t-123.5 387q0 238 123.5 386.5t319.5 148.5zM509 30q177 0 290.5 137t113.5 353t-113.5 353t-290.5 137q-175 0 -285.5 -136.5
t-110.5 -354.5q0 -217 110.5 -353t285.5 -136z" />
    <glyph glyph-name="r" unicode="r" horiz-adv-x="584" 
d="M116 0v1040h46v-216h2q34 114 106.5 172.5t179.5 58.5q63 0 105 -20v-51q-44 24 -112 24q-127 0 -202.5 -100.5t-75.5 -259.5v-648h-49z" />
    <glyph glyph-name="s" unicode="s" horiz-adv-x="876" 
d="M89 780q0 120 97.5 197.5t248.5 77.5q157 0 255.5 -84t115.5 -233h-48q-18 127 -104 200t-219 73q-128 0 -212 -65.5t-84 -163.5q0 -82 59 -131.5t195 -81.5l140 -32q154 -36 221 -98t67 -169q0 -125 -104 -205t-267 -80t-274 86.5t-122 222.5h49q14 -116 111 -190.5
t235 -74.5q141 0 231.5 67t90.5 171q0 90 -58.5 142.5t-194.5 83.5l-139 32q-150 34 -220 95.5t-70 159.5z" />
    <glyph glyph-name="t" unicode="t" horiz-adv-x="511" 
d="M174 1319h49v-279h210v-45h-210v-767q0 -98 37 -140.5t120 -42.5q70 0 72 1v-46q-1 0 -37 -0.5t-38 -0.5q-107 0 -155 53t-48 175v768h-155v45h155v279z" />
    <glyph glyph-name="u" unicode="u" horiz-adv-x="1027" 
d="M911 1040v-1040h-46v242h-2q-31 -110 -137.5 -183.5t-237.5 -73.5q-169 0 -274 102.5t-105 274.5v678h49v-671q0 -158 92.5 -248.5t243.5 -90.5q157 0 262.5 105.5t105.5 276.5v628h49z" />
    <glyph glyph-name="v" unicode="v" horiz-adv-x="860" 
d="M858 1040l-394 -1040h-68l-394 1040h53l374 -993h2l374 993h53z" />
    <glyph glyph-name="w" unicode="w" horiz-adv-x="1360" 
d="M1358 1040l-306 -1040h-65l-306 980h-2l-305 -980h-66l-306 1040h55l283 -985h2l306 985h65l305 -985h2l283 985h55z" />
    <glyph glyph-name="x" unicode="x" horiz-adv-x="841" 
d="M421 488h-2l-357 -488h-60l389 530l-388 510h62l355 -472h2l356 472h61l-388 -509l387 -531h-60z" />
    <glyph glyph-name="y" unicode="y" horiz-adv-x="860" 
d="M166 -351q-19 0 -47 8v46q20 -8 51 -8q69 0 112 43.5t86 154.5l35 89l-401 1058h54l373 -993h2l374 993h54l-410 -1083q-71 -188 -126 -248t-157 -60z" />
    <glyph glyph-name="z" unicode="z" horiz-adv-x="881" 
d="M57 0v46l707 947v2h-707v45h767v-46l-711 -947v-2h711v-45h-767z" />
    <glyph glyph-name="braceleft" unicode="{" horiz-adv-x="558" 
d="M79 595q115 -11 166 -64t51 -164v-364q0 -138 52.5 -197t160.5 -59h19v-46h-20q-140 0 -200.5 69.5t-60.5 231.5v330q0 125 -49 175.5t-169 50.5v90q120 0 169 51t49 178v274q0 159 59.5 225.5t201.5 66.5h20v-45h-19q-113 0 -163 -55t-50 -192v-309q0 -111 -51 -164
t-166 -65v-18z" />
    <glyph glyph-name="bar" unicode="|" horiz-adv-x="558" 
d="M303 -299h-48v1742h48v-1742z" />
    <glyph glyph-name="braceright" unicode="}" horiz-adv-x="558" 
d="M479 549q-116 11 -166.5 64.5t-50.5 164.5v363q0 138 -52.5 197.5t-160.5 59.5h-20v45h21q140 0 200 -69t60 -231v-330q0 -126 49 -176t169 -50v-91q-120 0 -169 -51t-49 -178v-274q0 -158 -59 -225t-201 -67h-21v46h20q112 0 162.5 54.5t50.5 191.5v309
q0 111 50.5 164.5t166.5 64.5v18z" />
    <glyph glyph-name="asciitilde" unicode="~" horiz-adv-x="1178" 
d="M803 430q-61 0 -112.5 27t-131.5 99q-73 65 -114 88t-84 23q-74 0 -122 -64t-49 -167h-48q0 126 60.5 202t158.5 76q55 0 101.5 -26t129.5 -100q68 -61 116 -86t95 -25q75 0 128 70t58 174h48q0 -122 -68.5 -206.5t-165.5 -84.5z" />
    <glyph glyph-name="nonbreakingspace" unicode="&#xa0;" horiz-adv-x="376" 
 />
    <glyph glyph-name="exclamdown" unicode="&#xa1;" horiz-adv-x="500" 
d="M223 -336l1 1031h52l1 -1031h-54zM250 1011q-22 0 -37.5 15.5t-15.5 37.5t15.5 37.5t37.5 15.5q21 0 36.5 -15.5t15.5 -37.5t-15.5 -37.5t-36.5 -15.5z" />
    <glyph glyph-name="cent" unicode="&#xa2;" horiz-adv-x="1178" 
d="M595 222v998q-186 -9 -294 -143t-108 -356t108 -356t294 -143zM641 1221v-1000q142 6 240.5 82t121.5 195h51q-25 -139 -137.5 -227t-275.5 -94v-177h-46v178q-208 9 -330 154.5t-122 388.5q0 242 122 388.5t330 155.5v178h46v-177q161 -6 274.5 -98t139.5 -233h-50
q-25 122 -124 201t-240 85z" />
    <glyph glyph-name="sterling" unicode="&#xa3;" horiz-adv-x="1178" 
d="M182 56h922v-46h-1038v48q149 23 234 130.5t85 244.5q0 100 -44 257h-231v45h218q-53 183 -53 288q0 192 118.5 306t345.5 114q166 0 287 -64v-49q-119 67 -286 67q-207 0 -311 -102t-104 -271q0 -48 9.5 -103t18.5 -87.5l28 -98.5h536v-45h-524q42 -146 42 -256
q0 -134 -77 -247t-176 -127v-4z" />
    <glyph glyph-name="currency" unicode="&#xa4;" horiz-adv-x="1178" 
d="M260 655q0 -136 96.5 -233t232.5 -97q137 0 233.5 97t96.5 233q0 137 -96.5 234t-233.5 97q-136 0 -232.5 -97t-96.5 -234zM1039 1070l-167 -167q93 -106 93 -248t-95 -248l169 -167l-35 -34l-167 168q-106 -95 -248 -95q-140 0 -247 94l-168 -167l-34 34l167 168
q-93 106 -93 247q0 143 94 248l-168 167l34 34l167 -167q107 94 248 94q142 0 248 -93l167 166z" />
    <glyph glyph-name="yen" unicode="&#xa5;" horiz-adv-x="1178" 
d="M1111 1420l-484 -745h351v-44h-378v-197h378v-44h-378v-381h-50v381h-348v44h348v197h-348v44h321l-486 745h60l476 -736h4l475 736h59z" />
    <glyph glyph-name="brokenbar" unicode="&#xa6;" horiz-adv-x="558" 
d="M303 743h-48v700h48v-700zM303 -299h-48v692h48v-692z" />
    <glyph glyph-name="section" unicode="&#xa7;" horiz-adv-x="920" 
d="M415 341l72 -17q131 2 214 71t83 176q0 94 -65.5 152.5t-210.5 91.5l-73 17q-131 -1 -214.5 -70t-83.5 -176q0 -94 66 -152t212 -93zM466 -235q-151 0 -251.5 72t-112.5 189h49q14 -96 101 -155t216 -59q126 0 209 64.5t83 163.5q0 87 -62 142.5t-194 86.5l-101 24
q-164 39 -240.5 108.5t-76.5 178.5q0 106 70.5 179t193.5 95v3q-122 34 -180 97.5t-58 160.5q0 121 97 198.5t247 77.5t249.5 -71t112.5 -189h-49q-14 96 -100.5 154.5t-213.5 58.5t-210 -64.5t-83 -162.5q0 -88 61 -143t195 -87l101 -24q163 -38 239 -107.5t76 -178.5
q0 -106 -70.5 -179.5t-194.5 -96.5v-3q123 -34 181.5 -96.5t58.5 -160.5q0 -120 -97 -198t-246 -78z" />
    <glyph glyph-name="dieresis" unicode="&#xa8;" horiz-adv-x="1024" 
d="M373 1317q-19 0 -33 13.5t-14 33.5q0 19 14 32.5t33 13.5q20 0 34 -13.5t14 -32.5q0 -20 -14 -33.5t-34 -13.5zM651 1317q-20 0 -34 13.5t-14 33.5q0 19 14 32.5t34 13.5q19 0 33 -13.5t14 -32.5q0 -20 -14 -33.5t-33 -13.5z" />
    <glyph glyph-name="copyright" unicode="&#xa9;" horiz-adv-x="1739" 
d="M870 -138q-159 0 -300 58.5t-242.5 159.5t-161 243.5t-59.5 302.5q0 161 59.5 303t161 243t242.5 159.5t300 58.5t300.5 -58.5t243 -159.5t160.5 -243t59 -303q0 -160 -59 -302t-160.5 -243.5t-243 -160t-300.5 -58.5zM870 -92q199 0 363 93t258.5 258t94.5 367
q0 203 -94.5 368t-258.5 257.5t-363 92.5q-149 0 -281.5 -54.5t-228 -149t-151 -228.5t-55.5 -286q0 -151 55.5 -285t151 -228.5t228 -149.5t281.5 -55zM1214 803h-47q-26 95 -106 155t-198 60q-152 0 -249 -103.5t-97 -281.5q0 -179 97 -285t249 -106q124 0 202.5 57
t99.5 147h48q-24 -112 -116 -180t-234 -68q-172 0 -282.5 118t-110.5 317q0 198 110 313.5t283 115.5q139 0 234.5 -75t116.5 -184z" />
    <glyph glyph-name="a.sups" unicode="&#xaa;" horiz-adv-x="560" 
d="M247 919q87 0 148.5 51.5t61.5 124.5v83l-196 -14q-82 -5 -126 -37.5t-44 -86.5q0 -52 44 -86.5t112 -34.5zM241 882q-85 0 -138.5 44t-53.5 114t52.5 110.5t153.5 48.5l202 13v49q0 72 -44 113t-122 41q-75 0 -122.5 -34.5t-58.5 -97.5h-40q9 78 68.5 123.5t153.5 45.5
q95 0 150.5 -50.5t55.5 -136.5v-375h-40v118h-1q-23 -56 -82.5 -91t-133.5 -35z" />
    <glyph glyph-name="guillemotleft" unicode="&#xab;" horiz-adv-x="1102" 
d="M227 571v-6l370 -407h-63l-376 408v4l376 408h63zM574 571v-6l370 -407h-63l-376 408v4l376 408h63z" />
    <glyph glyph-name="logicalnot" unicode="&#xac;" horiz-adv-x="1178" 
d="M1010 601v-506h-48v459h-794v47h842z" />
    <glyph glyph-name="registered" unicode="&#xae;" horiz-adv-x="1076" 
d="M538 668q-172 0 -291.5 119.5t-119.5 291.5t119.5 291t291.5 119t291.5 -119t119.5 -291t-119.5 -291.5t-291.5 -119.5zM538 712q154 0 260 106.5t106 260.5q0 155 -106 261t-260 106t-260.5 -106.5t-106.5 -260.5t106.5 -260.5t260.5 -106.5zM423 869h-38v448h163
q66 0 105.5 -37t39.5 -99q0 -103 -107 -131l129 -181h-45l-127 178h-120v-178zM423 1280v-198h114q115 0 115 100q0 45 -31 71.5t-85 26.5h-113z" />
    <glyph glyph-name="macron" unicode="&#xaf;" horiz-adv-x="1024" 
d="M746 1386v-44h-468v44h468z" />
    <glyph glyph-name="degree" unicode="&#xb0;" horiz-adv-x="727" 
d="M364 951q-98 0 -167.5 69t-69.5 167q0 97 69.5 166t167.5 69q97 0 166.5 -69t69.5 -166t-69 -166.5t-167 -69.5zM364 996q79 0 134.5 56t55.5 135q0 80 -55.5 136.5t-134.5 56.5t-135 -56.5t-56 -136.5q0 -79 56 -135t135 -56z" />
    <glyph glyph-name="plusminus" unicode="&#xb1;" horiz-adv-x="1178" 
d="M1014 95h-849v46h849v-46zM613 670v-368h-48v368h-400v46h400v344h48v-344h401v-46h-401z" />
    <glyph glyph-name="two.sups" unicode="&#xb2;" horiz-adv-x="548" 
d="M61 1365q1 82 61.5 135.5t152.5 53.5q89 0 148.5 -52t59.5 -128q0 -52 -31.5 -101t-119.5 -137l-207 -204v-2h383v-40h-444v33l244 243q78 78 105 120t27 86q0 61 -47 101.5t-118 40.5q-73 0 -122 -42.5t-50 -106.5h-42z" />
    <glyph glyph-name="three.sups" unicode="&#xb3;" horiz-adv-x="545" 
d="M183 1210v38h77q77 0 125.5 38t48.5 97q0 57 -46 94t-120 37q-70 0 -118 -36.5t-52 -93.5h-42q5 74 64.5 122t147.5 48q91 0 149.5 -47.5t58.5 -119.5q0 -60 -39 -101t-107 -54v-2q79 -5 126.5 -49t47.5 -113q0 -82 -65.5 -135t-165.5 -53q-99 0 -165 50t-68 126h42
q1 -59 55.5 -97.5t135.5 -38.5t134.5 42t53.5 106q0 67 -53 104.5t-147 37.5h-78z" />
    <glyph glyph-name="acute" unicode="&#xb4;" horiz-adv-x="1024" 
d="M431 1216h-49l201 304h59z" />
    <glyph glyph-name="mugreek" unicode="&#x3bc;" horiz-adv-x="1149" 
d="M116 -339v1379h49v-660q0 -164 88 -257t243 -93q159 0 261 109t102 279v622h50v-854q0 -79 26.5 -114.5t85.5 -35.5q36 0 65 10l5 -46q-25 -10 -76 -10q-77 0 -115.5 44.5t-39.5 138.5v62h-1q-38 -114 -136.5 -182t-228.5 -68q-125 0 -214 58t-113 156h-2v-538h-49z" />
    <glyph glyph-name="mugreek" unicode="&#xb5;" horiz-adv-x="1149" 
d="M116 -339v1379h49v-660q0 -164 88 -257t243 -93q159 0 261 109t102 279v622h50v-854q0 -79 26.5 -114.5t85.5 -35.5q36 0 65 10l5 -46q-25 -10 -76 -10q-77 0 -115.5 44.5t-39.5 138.5v62h-1q-38 -114 -136.5 -182t-228.5 -68q-125 0 -214 58t-113 156h-2v-538h-49z" />
    <glyph glyph-name="paragraph" unicode="&#xb6;" horiz-adv-x="920" 
d="M567 -146h-48l-2 898h-15q-167 0 -272.5 97t-105.5 246q0 158 102.5 253t276.5 95h64v-1589zM748 -146v1589h48v-1589h-48z" />
    <glyph glyph-name="periodcentered" unicode="&#xb7;" horiz-adv-x="488" 
d="M244 467q-21 0 -36.5 15.5t-15.5 37.5t15.5 37.5t36.5 15.5q22 0 37.5 -15.5t15.5 -37.5t-15.5 -37.5t-37.5 -15.5z" />
    <glyph glyph-name="cedilla" unicode="&#xb8;" horiz-adv-x="1024" 
d="M425 -182v33l66 155h46v-6l-60 -140q97 0 151.5 -40.5t54.5 -113.5q0 -75 -60.5 -121t-156.5 -46q-74 -2 -122 15v44q49 -17 120 -17t121.5 36t50.5 88q0 54 -43 83.5t-120 29.5h-48z" />
    <glyph glyph-name="one.sups" unicode="&#xb9;" horiz-adv-x="385" 
d="M228 890v606h-1q-18 -10 -92.5 -56.5t-93.5 -57.5v46q20 11 91.5 57t95.5 59h42v-654h-42z" />
    <glyph glyph-name="o.sups" unicode="&#xba;" horiz-adv-x="589" 
d="M294 882q-117 0 -188 77t-71 208t71 208t188 77t188.5 -77t71.5 -208t-71.5 -208t-188.5 -77zM294 919q98 0 158 67.5t60 180.5q0 114 -60 181t-158 67t-157 -67t-59 -181t59 -181t157 -67z" />
    <glyph glyph-name="guillemotright" unicode="&#xbb;" horiz-adv-x="1102" 
d="M875 565v6l-370 407h63l376 -408v-4l-376 -408h-63zM528 565v6l-370 407h63l376 -408v-4l-376 -408h-63z" />
    <glyph glyph-name="onequarter" unicode="&#xbc;" horiz-adv-x="1187" 
d="M228 790v606h-1q-18 -10 -92.5 -56.5t-93.5 -57.5v46q20 11 91.5 57t95.5 59h42v-654h-42zM114 0h-49l929 1443h49zM1008 0v160h-352v40q111 164 332 455h62v-456h107v-39h-107v-160h-42zM700 200v-2h308v416h-1q-171 -219 -307 -414z" />
    <glyph glyph-name="onehalf" unicode="&#xbd;" horiz-adv-x="1249" 
d="M228 790v606h-1q-18 -10 -92.5 -56.5t-93.5 -57.5v46q20 11 91.5 57t95.5 59h42v-654h-42zM114 0h-49l929 1443h49zM762 475q1 82 61.5 135.5t152.5 53.5q89 0 148.5 -52t59.5 -128q0 -52 -31.5 -101t-119.5 -137l-207 -204v-2h383v-40h-444v33l244 243q78 78 105 120
t27 86q0 61 -47 101.5t-118 40.5q-73 0 -122 -42.5t-50 -106.5h-42z" />
    <glyph glyph-name="threequarters" unicode="&#xbe;" horiz-adv-x="1348" 
d="M183 1110v38h77q77 0 125.5 38t48.5 97q0 57 -46 94t-120 37q-70 0 -118 -36.5t-52 -93.5h-42q5 74 64.5 122t147.5 48q91 0 149.5 -47.5t58.5 -119.5q0 -60 -39 -101t-107 -54v-2q79 -5 126.5 -49t47.5 -113q0 -82 -65.5 -135t-165.5 -53q-99 0 -165 50t-68 126h42
q1 -59 55.5 -97.5t135.5 -38.5t134.5 42t53.5 106q0 67 -53 104.5t-147 37.5h-78zM274 0h-49l929 1443h49zM1168 0v160h-352v40q111 164 332 455h62v-456h107v-39h-107v-160h-42zM860 200v-2h308v416h-1q-171 -219 -307 -414z" />
    <glyph glyph-name="questiondown" unicode="&#xbf;" horiz-adv-x="911" 
d="M849 -7q-10 -154 -118.5 -255.5t-266.5 -101.5q-164 0 -273 100.5t-109 250.5q0 98 49 175t165 160q105 75 141.5 132.5t36.5 148.5v97h49v-99q0 -99 -40 -165t-151 -148q-107 -79 -153 -148t-46 -151q0 -134 95.5 -220.5t235.5 -86.5q136 0 230 85.5t107 225.5h48z
M492 1011q-22 0 -37.5 15.5t-15.5 37.5t15.5 37.5t37.5 15.5t37.5 -15.5t15.5 -37.5t-15.5 -37.5t-37.5 -15.5z" />
    <glyph glyph-name="Agrave" unicode="&#xc0;" horiz-adv-x="1201" 
d="M1125 0l-189 501h-671l-190 -501h-55l555 1443h51l555 -1443h-56zM598 1374l-315 -827h635l-315 827h-5zM576 1554l-200 287h59l190 -287h-49z" />
    <glyph glyph-name="Aacute" unicode="&#xc1;" horiz-adv-x="1201" 
d="M1125 0l-189 501h-671l-190 -501h-55l555 1443h51l555 -1443h-56zM598 1374l-315 -827h635l-315 827h-5zM623 1554h-49l190 287h60z" />
    <glyph glyph-name="Acircumflex" unicode="&#xc2;" horiz-adv-x="1201" 
d="M1125 0l-189 501h-671l-190 -501h-55l555 1443h51l555 -1443h-56zM598 1374l-315 -827h635l-315 827h-5zM578 1841h44l265 -287h-58l-228 249h-2l-228 -249h-58z" />
    <glyph glyph-name="Atilde" unicode="&#xc3;" horiz-adv-x="1201" 
d="M1125 0l-189 501h-671l-190 -501h-55l555 1443h51l555 -1443h-56zM598 1374l-315 -827h635l-315 827h-5zM719 1590q-39 0 -69.5 16.5t-50 40t-37 47t-40 40t-49.5 16.5q-47 0 -70.5 -42.5t-23.5 -108.5h-45q0 86 36 139.5t105 53.5q36 0 64 -16.5t46.5 -40l36.5 -47.5
t42.5 -40.5t55.5 -16.5q49 0 75 42.5t26 108.5h45q0 -85 -38.5 -138.5t-108.5 -53.5z" />
    <glyph glyph-name="Adieresis" unicode="&#xc4;" horiz-adv-x="1201" 
d="M1125 0l-189 501h-671l-190 -501h-55l555 1443h51l555 -1443h-56zM598 1374l-315 -827h635l-315 827h-5zM461 1654q-19 0 -33 13.5t-14 32.5q0 20 14 33.5t33 13.5q20 0 34 -13.5t14 -33.5q0 -19 -14 -32.5t-34 -13.5zM739 1654q-20 0 -34 13.5t-14 32.5q0 20 14 33.5
t34 13.5q19 0 33 -13.5t14 -33.5q0 -19 -14 -32.5t-33 -13.5z" />
    <glyph glyph-name="Aring" unicode="&#x212b;" horiz-adv-x="1201" 
d="M1125 0l-189 501h-671l-190 -501h-55l555 1443h51l555 -1443h-56zM598 1374l-315 -827h635l-315 827h-5zM600 1517q-67 0 -115.5 48.5t-48.5 116.5t48.5 116.5t115.5 48.5t115.5 -48.5t48.5 -116.5t-48.5 -116.5t-115.5 -48.5zM600 1556q53 0 89 36.5t36 89.5t-36 89.5
t-89 36.5t-89 -36.5t-36 -89.5t36 -89.5t89 -36.5z" />
    <glyph glyph-name="Aring" unicode="&#xc5;" horiz-adv-x="1201" 
d="M1125 0l-189 501h-671l-190 -501h-55l555 1443h51l555 -1443h-56zM598 1374l-315 -827h635l-315 827h-5zM600 1517q-67 0 -115.5 48.5t-48.5 116.5t48.5 116.5t115.5 48.5t115.5 -48.5t48.5 -116.5t-48.5 -116.5t-115.5 -48.5zM600 1556q53 0 89 36.5t36 89.5t-36 89.5
t-89 36.5t-89 -36.5t-36 -89.5t36 -89.5t89 -36.5z" />
    <glyph glyph-name="AE" unicode="&#xc6;" horiz-adv-x="1878" 
d="M819 1397l-476 -939h667v939h-191zM1010 0v411h-689l-208 -411h-55l733 1443h985v-47h-718v-633h681v-46h-681v-670h718v-47h-766z" />
    <glyph glyph-name="Ccedilla" unicode="&#xc7;" horiz-adv-x="1303" 
d="M1250 979h-49q-20 184 -167 310.5t-342 126.5q-266 0 -422.5 -184.5t-156.5 -499.5q0 -324 157.5 -514.5t421.5 -190.5q203 0 347 115t162 298h49q-17 -199 -168.5 -327t-371.5 -133l-52 -120q97 0 151.5 -40.5t54.5 -113.5q0 -75 -60.5 -121t-156.5 -46q-74 -2 -122 15
v44q49 -17 120 -17t121.5 36t50.5 88q0 54 -43 83.5t-120 29.5h-48v33l55 130q-274 11 -436 213.5t-162 537.5q0 337 169.5 534t459.5 197q215 0 377 -140.5t181 -343.5z" />
    <glyph glyph-name="Egrave" unicode="&#xc8;" horiz-adv-x="1050" 
d="M950 47v-47h-826v1443h826v-47h-776v-632h740v-46h-740v-671h776zM514 1554l-200 287h59l190 -287h-49z" />
    <glyph glyph-name="Eacute" unicode="&#xc9;" horiz-adv-x="1050" 
d="M950 47v-47h-826v1443h826v-47h-776v-632h740v-46h-740v-671h776zM561 1554h-49l190 287h60z" />
    <glyph glyph-name="Ecircumflex" unicode="&#xca;" horiz-adv-x="1050" 
d="M950 47v-47h-826v1443h826v-47h-776v-632h740v-46h-740v-671h776zM516 1841h44l265 -287h-58l-228 249h-2l-228 -249h-58z" />
    <glyph glyph-name="Edieresis" unicode="&#xcb;" horiz-adv-x="1050" 
d="M950 47v-47h-826v1443h826v-47h-776v-632h740v-46h-740v-671h776zM399 1654q-19 0 -33 13.5t-14 32.5q0 20 14 33.5t33 13.5q20 0 34 -13.5t14 -33.5q0 -19 -14 -32.5t-34 -13.5zM677 1654q-20 0 -34 13.5t-14 32.5q0 20 14 33.5t34 13.5q19 0 33 -13.5t14 -33.5
q0 -19 -14 -32.5t-33 -13.5z" />
    <glyph glyph-name="Igrave" unicode="&#xcc;" horiz-adv-x="298" 
d="M174 0h-50v1443h50v-1443zM125 1554l-200 287h59l190 -287h-49z" />
    <glyph glyph-name="Iacute" unicode="&#xcd;" horiz-adv-x="298" 
d="M174 0h-50v1443h50v-1443zM172 1554h-49l190 287h60z" />
    <glyph glyph-name="Icircumflex" unicode="&#xce;" horiz-adv-x="298" 
d="M174 0h-50v1443h50v-1443zM127 1841h44l265 -287h-58l-228 249h-2l-228 -249h-58z" />
    <glyph glyph-name="Idieresis" unicode="&#xcf;" horiz-adv-x="298" 
d="M174 0h-50v1443h50v-1443zM10 1654q-19 0 -33 13.5t-14 32.5q0 20 14 33.5t33 13.5q20 0 34 -13.5t14 -33.5q0 -19 -14 -32.5t-34 -13.5zM288 1654q-20 0 -34 13.5t-14 32.5q0 20 14 33.5t34 13.5q19 0 33 -13.5t14 -33.5q0 -19 -14 -32.5t-33 -13.5z" />
    <glyph glyph-name="Eth" unicode="&#xd0;" horiz-adv-x="1312" 
d="M175 47h383q309 0 475 175t166 500q0 324 -166.5 499t-474.5 175h-383v-632h447v-47h-447v-670zM124 1443h435q330 0 510 -188t180 -533q0 -346 -180 -534t-510 -188h-435v717h-121v47h121v679z" />
    <glyph glyph-name="Ntilde" unicode="&#xd1;" horiz-adv-x="1315" 
d="M174 0h-50v1443h55l958 -1348h4v1348h50v-1443h-46l-967 1359h-4v-1359zM776 1590q-39 0 -69.5 16.5t-50 40t-37 47t-40 40t-49.5 16.5q-47 0 -70.5 -42.5t-23.5 -108.5h-45q0 86 36 139.5t105 53.5q36 0 64 -16.5t46.5 -40l36.5 -47.5t42.5 -40.5t55.5 -16.5
q49 0 75 42.5t26 108.5h45q0 -85 -38.5 -138.5t-108.5 -53.5z" />
    <glyph glyph-name="Ograve" unicode="&#xd2;" horiz-adv-x="1398" 
d="M699 1463q291 0 463.5 -200.5t172.5 -540.5q0 -341 -172 -541.5t-464 -200.5q-293 0 -464.5 200.5t-171.5 541.5q0 340 172 540.5t464 200.5zM699 1416q-269 0 -427.5 -188t-158.5 -506t159 -506.5t427 -188.5t427 188.5t159 506.5t-159 506t-427 188zM675 1554l-200 287
h59l190 -287h-49z" />
    <glyph glyph-name="Oacute" unicode="&#xd3;" horiz-adv-x="1398" 
d="M699 1463q291 0 463.5 -200.5t172.5 -540.5q0 -341 -172 -541.5t-464 -200.5q-293 0 -464.5 200.5t-171.5 541.5q0 340 172 540.5t464 200.5zM699 1416q-269 0 -427.5 -188t-158.5 -506t159 -506.5t427 -188.5t427 188.5t159 506.5t-159 506t-427 188zM722 1554h-49
l190 287h60z" />
    <glyph glyph-name="Ocircumflex" unicode="&#xd4;" horiz-adv-x="1398" 
d="M699 1463q291 0 463.5 -200.5t172.5 -540.5q0 -341 -172 -541.5t-464 -200.5q-293 0 -464.5 200.5t-171.5 541.5q0 340 172 540.5t464 200.5zM699 1416q-269 0 -427.5 -188t-158.5 -506t159 -506.5t427 -188.5t427 188.5t159 506.5t-159 506t-427 188zM677 1841h44
l265 -287h-58l-228 249h-2l-228 -249h-58z" />
    <glyph glyph-name="Otilde" unicode="&#xd5;" horiz-adv-x="1398" 
d="M699 1463q291 0 463.5 -200.5t172.5 -540.5q0 -341 -172 -541.5t-464 -200.5q-293 0 -464.5 200.5t-171.5 541.5q0 340 172 540.5t464 200.5zM699 1416q-269 0 -427.5 -188t-158.5 -506t159 -506.5t427 -188.5t427 188.5t159 506.5t-159 506t-427 188zM818 1590
q-39 0 -69.5 16.5t-50 40t-37 47t-40 40t-49.5 16.5q-47 0 -70.5 -42.5t-23.5 -108.5h-45q0 86 36 139.5t105 53.5q36 0 64 -16.5t46.5 -40l36.5 -47.5t42.5 -40.5t55.5 -16.5q49 0 75 42.5t26 108.5h45q0 -85 -38.5 -138.5t-108.5 -53.5z" />
    <glyph glyph-name="Odieresis" unicode="&#xd6;" horiz-adv-x="1398" 
d="M699 1463q291 0 463.5 -200.5t172.5 -540.5q0 -341 -172 -541.5t-464 -200.5q-293 0 -464.5 200.5t-171.5 541.5q0 340 172 540.5t464 200.5zM699 1416q-269 0 -427.5 -188t-158.5 -506t159 -506.5t427 -188.5t427 188.5t159 506.5t-159 506t-427 188zM560 1654
q-19 0 -33 13.5t-14 32.5q0 20 14 33.5t33 13.5q20 0 34 -13.5t14 -33.5q0 -19 -14 -32.5t-34 -13.5zM838 1654q-20 0 -34 13.5t-14 32.5q0 20 14 33.5t34 13.5q19 0 33 -13.5t14 -33.5q0 -19 -14 -32.5t-33 -13.5z" />
    <glyph glyph-name="multiply" unicode="&#xd7;" horiz-adv-x="1178" 
d="M590 544l-353 -351l-33 32l352 352l-352 353l34 34l351 -353l353 353l34 -32l-352 -355l350 -350l-34 -34z" />
    <glyph glyph-name="Oslash" unicode="&#xd8;" horiz-adv-x="1398" 
d="M1142 1210l-854 -1014q158 -170 411 -170q268 0 427.5 189t159.5 507q0 300 -144 488zM258 231l854 1014q-158 172 -413 172q-269 0 -428 -188.5t-159 -506.5q0 -305 146 -491zM1333 1437l-159 -189q161 -200 161 -526q0 -341 -172 -541.5t-464 -200.5q-275 0 -444 178
l-151 -180l-36 28l157 186q-162 199 -162 530q0 340 172 540.5t464 200.5q276 0 445 -180l153 181z" />
    <glyph glyph-name="Ugrave" unicode="&#xd9;" horiz-adv-x="1307" 
d="M174 1443v-943q0 -218 129.5 -345.5t349.5 -127.5q221 0 350.5 127.5t129.5 345.5v943h50v-944q0 -237 -143.5 -378t-386.5 -141t-386 141t-143 378v944h50zM629 1554l-200 287h59l190 -287h-49z" />
    <glyph glyph-name="Uacute" unicode="&#xda;" horiz-adv-x="1307" 
d="M174 1443v-943q0 -218 129.5 -345.5t349.5 -127.5q221 0 350.5 127.5t129.5 345.5v943h50v-944q0 -237 -143.5 -378t-386.5 -141t-386 141t-143 378v944h50zM676 1554h-49l190 287h60z" />
    <glyph glyph-name="Ucircumflex" unicode="&#xdb;" horiz-adv-x="1307" 
d="M174 1443v-943q0 -218 129.5 -345.5t349.5 -127.5q221 0 350.5 127.5t129.5 345.5v943h50v-944q0 -237 -143.5 -378t-386.5 -141t-386 141t-143 378v944h50zM631 1841h44l265 -287h-58l-228 249h-2l-228 -249h-58z" />
    <glyph glyph-name="Udieresis" unicode="&#xdc;" horiz-adv-x="1307" 
d="M174 1443v-943q0 -218 129.5 -345.5t349.5 -127.5q221 0 350.5 127.5t129.5 345.5v943h50v-944q0 -237 -143.5 -378t-386.5 -141t-386 141t-143 378v944h50zM514 1654q-19 0 -33 13.5t-14 32.5q0 20 14 33.5t33 13.5q20 0 34 -13.5t14 -33.5q0 -19 -14 -32.5t-34 -13.5z
M792 1654q-20 0 -34 13.5t-14 32.5q0 20 14 33.5t34 13.5q19 0 33 -13.5t14 -33.5q0 -19 -14 -32.5t-33 -13.5z" />
    <glyph glyph-name="Yacute" unicode="&#xdd;" horiz-adv-x="1148" 
d="M600 0h-50v631l-529 812h60l492 -758h4l491 758h59l-527 -812v-631zM597 1554h-49l190 287h60z" />
    <glyph glyph-name="Thorn" unicode="&#xde;" horiz-adv-x="1202" 
d="M164 1443h50v-291h413q205 0 326 -107t121 -293t-120 -292t-327 -106h-413v-354h-50v1443zM214 1105v-704h411q188 0 293.5 94.5t105.5 256.5t-106 257.5t-293 95.5h-411z" />
    <glyph glyph-name="germandbls" unicode="&#xdf;" horiz-adv-x="1014" 
d="M166 0h-50v1078q0 174 95 276.5t262 102.5q160 0 261 -97t101 -243q0 -123 -76 -224.5t-182 -124.5v-3q162 -14 269 -120.5t107 -256.5q0 -169 -123.5 -288t-305.5 -119q-82 0 -172 16v49q70 -19 171 -19q158 0 269.5 106t111.5 255q0 147 -120.5 247.5t-305.5 100.5
h-106v47h105q124 0 216 102t92 230q0 125 -87 210.5t-224 85.5q-143 0 -225.5 -92.5t-82.5 -241.5v-1077z" />
    <glyph glyph-name="agrave" unicode="&#xe0;" horiz-adv-x="987" 
d="M434 30q164 0 279.5 103.5t115.5 249.5v175l-368 -28q-158 -12 -241 -77t-83 -177q0 -106 84.5 -176t212.5 -70zM431 -15q-151 0 -247 81t-96 210q0 266 366 297l375 28v94q0 147 -83 231t-230 84q-145 0 -234.5 -71t-109.5 -202h-48q17 148 122 233t270 85
q168 0 265 -95.5t97 -260.5v-699h-49v236h-1q-38 -111 -148 -181t-249 -70zM493 1216l-211 304h59l201 -304h-49z" />
    <glyph glyph-name="aacute" unicode="&#xe1;" horiz-adv-x="987" 
d="M434 30q164 0 279.5 103.5t115.5 249.5v175l-368 -28q-158 -12 -241 -77t-83 -177q0 -106 84.5 -176t212.5 -70zM431 -15q-151 0 -247 81t-96 210q0 266 366 297l375 28v94q0 147 -83 231t-230 84q-145 0 -234.5 -71t-109.5 -202h-48q17 148 122 233t270 85
q168 0 265 -95.5t97 -260.5v-699h-49v236h-1q-38 -111 -148 -181t-249 -70zM539 1216h-49l201 304h59z" />
    <glyph glyph-name="acircumflex" unicode="&#xe2;" horiz-adv-x="987" 
d="M434 30q164 0 279.5 103.5t115.5 249.5v175l-368 -28q-158 -12 -241 -77t-83 -177q0 -106 84.5 -176t212.5 -70zM431 -15q-151 0 -247 81t-96 210q0 266 366 297l375 28v94q0 147 -83 231t-230 84q-145 0 -234.5 -71t-109.5 -202h-48q17 148 122 233t270 85
q168 0 265 -95.5t97 -260.5v-699h-49v236h-1q-38 -111 -148 -181t-249 -70zM538 1520l263 -304h-55l-229 263h-2l-229 -263h-55l263 304h44z" />
    <glyph glyph-name="atilde" unicode="&#xe3;" horiz-adv-x="987" 
d="M434 30q164 0 279.5 103.5t115.5 249.5v175l-368 -28q-158 -12 -241 -77t-83 -177q0 -106 84.5 -176t212.5 -70zM431 -15q-151 0 -247 81t-96 210q0 266 366 297l375 28v94q0 147 -83 231t-230 84q-145 0 -234.5 -71t-109.5 -202h-48q17 148 122 233t270 85
q168 0 265 -95.5t97 -260.5v-699h-49v236h-1q-38 -111 -148 -181t-249 -70zM634 1253q-39 0 -69.5 16.5t-50 40t-37 47t-40 40t-49.5 16.5q-47 0 -70.5 -42t-23.5 -108h-45q0 86 36 139t105 53q36 0 64 -16.5t46.5 -40l36.5 -47t42.5 -40t55.5 -16.5q49 0 75 42.5t26 107.5
h45q0 -85 -38.5 -138.5t-108.5 -53.5z" />
    <glyph glyph-name="adieresis" unicode="&#xe4;" horiz-adv-x="987" 
d="M434 30q164 0 279.5 103.5t115.5 249.5v175l-368 -28q-158 -12 -241 -77t-83 -177q0 -106 84.5 -176t212.5 -70zM431 -15q-151 0 -247 81t-96 210q0 266 366 297l375 28v94q0 147 -83 231t-230 84q-145 0 -234.5 -71t-109.5 -202h-48q17 148 122 233t270 85
q168 0 265 -95.5t97 -260.5v-699h-49v236h-1q-38 -111 -148 -181t-249 -70zM377 1317q-19 0 -33 13.5t-14 33.5q0 19 14 32.5t33 13.5q20 0 34 -13.5t14 -32.5q0 -20 -14 -33.5t-34 -13.5zM655 1317q-20 0 -34 13.5t-14 33.5q0 19 14 32.5t34 13.5q19 0 33 -13.5t14 -32.5
q0 -20 -14 -33.5t-33 -13.5z" />
    <glyph glyph-name="aring" unicode="&#xe5;" horiz-adv-x="987" 
d="M434 30q164 0 279.5 103.5t115.5 249.5v175l-368 -28q-158 -12 -241 -77t-83 -177q0 -106 84.5 -176t212.5 -70zM431 -15q-151 0 -247 81t-96 210q0 266 366 297l375 28v94q0 147 -83 231t-230 84q-145 0 -234.5 -71t-109.5 -202h-48q17 148 122 233t270 85
q168 0 265 -95.5t97 -260.5v-699h-49v236h-1q-38 -111 -148 -181t-249 -70zM516 1184q-67 0 -115.5 48.5t-48.5 116.5t48.5 116.5t115.5 48.5t115.5 -48.5t48.5 -116.5t-48.5 -116.5t-115.5 -48.5zM516 1223q53 0 89 36.5t36 89.5t-36 89.5t-89 36.5t-89 -36.5t-36 -89.5
t36 -89.5t89 -36.5z" />
    <glyph glyph-name="ae" unicode="&#xe6;" horiz-adv-x="1785" 
d="M1289 -15q-155 0 -265 80.5t-157 233.5h-4q-37 -144 -153.5 -229t-273.5 -85q-156 0 -252.5 80t-96.5 208q0 125 92 195.5t270 82.5l380 24v137q0 141 -84.5 219.5t-233.5 78.5q-142 0 -233.5 -72.5t-109.5 -200.5h-48q16 145 122 231.5t269 86.5q154 0 252.5 -79
t105.5 -217h5q42 132 150.5 214t262.5 82q199 0 317 -134t118 -358v-39h-844v-7q0 -221 112.5 -354t299.5 -133q147 0 244 72.5t121 186.5h51q-28 -135 -139 -219.5t-278 -84.5zM1285 1010q-175 0 -286 -121.5t-120 -319.5h794q-1 199 -106.5 320t-281.5 121zM437 30
q163 0 277.5 104.5t114.5 253.5v144l-370 -25q-159 -10 -240.5 -70t-81.5 -164q0 -106 83.5 -174.5t216.5 -68.5z" />
    <glyph glyph-name="ccedilla" unicode="&#xe7;" horiz-adv-x="985" 
d="M927 734h-50q-26 122 -124.5 199t-236.5 77q-186 0 -294.5 -132.5t-108.5 -357.5t108.5 -357.5t294.5 -132.5q139 0 237 74t122 193h50q-24 -136 -130 -221.5t-260 -90.5l-54 -125q97 0 151.5 -40.5t54.5 -113.5q0 -75 -60.5 -121t-156.5 -46q-74 -2 -122 15v44
q49 -17 120 -17t121.5 36t50.5 88q0 54 -43 83.5t-120 29.5h-48v33l57 135q-195 11 -309 154t-114 380q0 246 123 390.5t330 144.5q159 0 272 -90t139 -231z" />
    <glyph glyph-name="egrave" unicode="&#xe8;" horiz-adv-x="1021" 
d="M515 1010q-174 0 -283.5 -123t-117.5 -325h794q0 200 -108.5 324t-284.5 124zM894 289h51q-27 -135 -139.5 -219.5t-282.5 -84.5q-211 0 -335.5 142t-124.5 393q0 242 124 388.5t328 146.5q199 0 321 -138t122 -362v-38h-845v-2q0 -228 111.5 -356.5t299.5 -128.5
q150 0 248 72t122 187zM492 1216l-211 304h59l201 -304h-49z" />
    <glyph glyph-name="eacute" unicode="&#xe9;" horiz-adv-x="1021" 
d="M515 1010q-174 0 -283.5 -123t-117.5 -325h794q0 200 -108.5 324t-284.5 124zM894 289h51q-27 -135 -139.5 -219.5t-282.5 -84.5q-211 0 -335.5 142t-124.5 393q0 242 124 388.5t328 146.5q199 0 321 -138t122 -362v-38h-845v-2q0 -228 111.5 -356.5t299.5 -128.5
q150 0 248 72t122 187zM538 1216h-49l201 304h59z" />
    <glyph glyph-name="ecircumflex" unicode="&#xea;" horiz-adv-x="1021" 
d="M515 1010q-174 0 -283.5 -123t-117.5 -325h794q0 200 -108.5 324t-284.5 124zM894 289h51q-27 -135 -139.5 -219.5t-282.5 -84.5q-211 0 -335.5 142t-124.5 393q0 242 124 388.5t328 146.5q199 0 321 -138t122 -362v-38h-845v-2q0 -228 111.5 -356.5t299.5 -128.5
q150 0 248 72t122 187zM537 1520l263 -304h-55l-229 263h-2l-229 -263h-55l263 304h44z" />
    <glyph glyph-name="edieresis" unicode="&#xeb;" horiz-adv-x="1021" 
d="M515 1010q-174 0 -283.5 -123t-117.5 -325h794q0 200 -108.5 324t-284.5 124zM894 289h51q-27 -135 -139.5 -219.5t-282.5 -84.5q-211 0 -335.5 142t-124.5 393q0 242 124 388.5t328 146.5q199 0 321 -138t122 -362v-38h-845v-2q0 -228 111.5 -356.5t299.5 -128.5
q150 0 248 72t122 187zM376 1317q-19 0 -33 13.5t-14 33.5q0 19 14 32.5t33 13.5q20 0 34 -13.5t14 -32.5q0 -20 -14 -33.5t-34 -13.5zM654 1317q-20 0 -34 13.5t-14 33.5q0 19 14 32.5t34 13.5q19 0 33 -13.5t14 -32.5q0 -20 -14 -33.5t-33 -13.5z" />
    <glyph glyph-name="igrave" unicode="&#xec;" horiz-adv-x="299" 
d="M125 0v1040h49v-1040h-49zM126 1216l-211 304h59l201 -304h-49z" />
    <glyph glyph-name="iacute" unicode="&#xed;" horiz-adv-x="299" 
d="M125 0v1040h49v-1040h-49zM172 1216h-49l201 304h59z" />
    <glyph glyph-name="icircumflex" unicode="&#xee;" horiz-adv-x="299" 
d="M125 0v1040h49v-1040h-49zM171 1520l263 -304h-55l-229 263h-2l-229 -263h-55l263 304h44z" />
    <glyph glyph-name="idieresis" unicode="&#xef;" horiz-adv-x="299" 
d="M125 0v1040h49v-1040h-49zM10 1317q-19 0 -33 13.5t-14 33.5q0 19 14 32.5t33 13.5q20 0 34 -13.5t14 -32.5q0 -20 -14 -33.5t-34 -13.5zM288 1317q-20 0 -34 13.5t-14 33.5q0 19 14 32.5t34 13.5q19 0 33 -13.5t14 -32.5q0 -20 -14 -33.5t-33 -13.5z" />
    <glyph glyph-name="eth" unicode="&#xf0;" horiz-adv-x="1035" 
d="M519 30q176 0 286.5 133t110.5 344q0 213 -108.5 338.5t-291.5 125.5q-175 0 -288.5 -127.5t-113.5 -324.5q0 -219 109.5 -354t295.5 -135zM776 1386l-217 -111q132 -80 218.5 -177t136.5 -242t50 -333q0 -111 -28.5 -207t-82.5 -170.5t-140 -117.5t-194 -43
q-209 0 -332 147t-123 386q0 217 127.5 358t322.5 141q246 0 367 -215h4q-70 274 -371 449l-292 -150v46l249 128q-107 58 -249 110v46q182 -69 295 -132l259 133v-46z" />
    <glyph glyph-name="ntilde" unicode="&#xf1;" horiz-adv-x="1027" 
d="M116 0v1040h46v-244h2q33 116 133 187.5t235 71.5q173 0 279.5 -104t106.5 -278v-673h-49v670q0 156 -95 248t-249 92q-160 0 -260 -108t-100 -278v-624h-49zM635 1253q-39 0 -69.5 16.5t-50 40t-37 47t-40 40t-49.5 16.5q-47 0 -70.5 -42t-23.5 -108h-45q0 86 36 139
t105 53q36 0 64 -16.5t46.5 -40l36.5 -47t42.5 -40t55.5 -16.5q49 0 75 42.5t26 107.5h45q0 -85 -38.5 -138.5t-108.5 -53.5z" />
    <glyph glyph-name="ograve" unicode="&#xf2;" horiz-adv-x="1043" 
d="M521 -15q-206 0 -332 145t-126 390t126 390t332 145t332.5 -145t126.5 -390t-126.5 -390t-332.5 -145zM521 30q184 0 297 133t113 357q0 225 -112.5 357.5t-297.5 132.5t-296.5 -132.5t-111.5 -357.5t111.5 -357.5t296.5 -132.5zM499 1215l-211 304h59l201 -304h-49z" />
    <glyph glyph-name="oacute" unicode="&#xf3;" horiz-adv-x="1043" 
d="M521 -15q-206 0 -332 145t-126 390t126 390t332 145t332.5 -145t126.5 -390t-126.5 -390t-332.5 -145zM521 30q184 0 297 133t113 357q0 225 -112.5 357.5t-297.5 132.5t-296.5 -132.5t-111.5 -357.5t111.5 -357.5t296.5 -132.5zM545 1215h-49l201 304h59z" />
    <glyph glyph-name="ocircumflex" unicode="&#xf4;" horiz-adv-x="1043" 
d="M521 -15q-206 0 -332 145t-126 390t126 390t332 145t332.5 -145t126.5 -390t-126.5 -390t-332.5 -145zM521 30q184 0 297 133t113 357q0 225 -112.5 357.5t-297.5 132.5t-296.5 -132.5t-111.5 -357.5t111.5 -357.5t296.5 -132.5zM544 1519l263 -304h-55l-229 263h-2
l-229 -263h-55l263 304h44z" />
    <glyph glyph-name="otilde" unicode="&#xf5;" horiz-adv-x="1043" 
d="M521 -15q-206 0 -332 145t-126 390t126 390t332 145t332.5 -145t126.5 -390t-126.5 -390t-332.5 -145zM521 30q184 0 297 133t113 357q0 225 -112.5 357.5t-297.5 132.5t-296.5 -132.5t-111.5 -357.5t111.5 -357.5t296.5 -132.5zM640 1252q-39 0 -69.5 16.5t-50 40
t-37 47t-40 40t-49.5 16.5q-47 0 -70.5 -42t-23.5 -108h-45q0 86 36 139t105 53q36 0 64 -16.5t46.5 -40l36.5 -47t42.5 -40t55.5 -16.5q49 0 75 42.5t26 107.5h45q0 -85 -38.5 -138.5t-108.5 -53.5z" />
    <glyph glyph-name="odieresis" unicode="&#xf6;" horiz-adv-x="1043" 
d="M521 -15q-206 0 -332 145t-126 390t126 390t332 145t332.5 -145t126.5 -390t-126.5 -390t-332.5 -145zM521 30q184 0 297 133t113 357q0 225 -112.5 357.5t-297.5 132.5t-296.5 -132.5t-111.5 -357.5t111.5 -357.5t296.5 -132.5zM383 1316q-19 0 -33 13.5t-14 33.5
q0 19 14 32.5t33 13.5q20 0 34 -13.5t14 -32.5q0 -20 -14 -33.5t-34 -13.5zM661 1316q-20 0 -34 13.5t-14 33.5q0 19 14 32.5t34 13.5q19 0 33 -13.5t14 -32.5q0 -20 -14 -33.5t-33 -13.5z" />
    <glyph glyph-name="divide" unicode="&#xf7;" horiz-adv-x="1178" 
d="M590 931q-21 0 -36.5 15t-15.5 37t15.5 37.5t36.5 15.5q22 0 37.5 -15.5t15.5 -37.5t-15.5 -37t-37.5 -15zM590 119q-21 0 -36.5 15.5t-15.5 37.5q0 21 15.5 36.5t36.5 15.5q22 0 37.5 -15.5t15.5 -36.5q0 -22 -15.5 -37.5t-37.5 -15.5zM1035 554h-892v46h892v-46z" />
    <glyph glyph-name="oslash" unicode="&#xf8;" horiz-adv-x="1042" 
d="M821 874l-584 -727q110 -118 284 -118q184 0 297 133.5t113 357.5q0 220 -110 354zM209 181l584 724q-108 106 -272 106q-185 0 -297 -133t-112 -358q0 -208 97 -339zM975 1065l-123 -153q128 -147 128 -392t-126.5 -390t-332.5 -145q-192 0 -314 125l-105 -131l-34 27
l110 137q-115 145 -115 377q0 245 126 390t332 145q180 0 301 -113l120 149z" />
    <glyph glyph-name="ugrave" unicode="&#xf9;" horiz-adv-x="1027" 
d="M911 1040v-1040h-46v242h-2q-31 -110 -137.5 -183.5t-237.5 -73.5q-169 0 -274 102.5t-105 274.5v678h49v-671q0 -158 92.5 -248.5t243.5 -90.5q157 0 262.5 105.5t105.5 276.5v628h49zM487 1215l-211 304h59l201 -304h-49z" />
    <glyph glyph-name="uacute" unicode="&#xfa;" horiz-adv-x="1027" 
d="M911 1040v-1040h-46v242h-2q-31 -110 -137.5 -183.5t-237.5 -73.5q-169 0 -274 102.5t-105 274.5v678h49v-671q0 -158 92.5 -248.5t243.5 -90.5q157 0 262.5 105.5t105.5 276.5v628h49zM533 1215h-49l201 304h59z" />
    <glyph glyph-name="ucircumflex" unicode="&#xfb;" horiz-adv-x="1027" 
d="M911 1040v-1040h-46v242h-2q-31 -110 -137.5 -183.5t-237.5 -73.5q-169 0 -274 102.5t-105 274.5v678h49v-671q0 -158 92.5 -248.5t243.5 -90.5q157 0 262.5 105.5t105.5 276.5v628h49zM532 1519l263 -304h-55l-229 263h-2l-229 -263h-55l263 304h44z" />
    <glyph glyph-name="udieresis" unicode="&#xfc;" horiz-adv-x="1027" 
d="M911 1040v-1040h-46v242h-2q-31 -110 -137.5 -183.5t-237.5 -73.5q-169 0 -274 102.5t-105 274.5v678h49v-671q0 -158 92.5 -248.5t243.5 -90.5q157 0 262.5 105.5t105.5 276.5v628h49zM371 1316q-19 0 -33 13.5t-14 33.5q0 19 14 32.5t33 13.5q20 0 34 -13.5t14 -32.5
q0 -20 -14 -33.5t-34 -13.5zM649 1316q-20 0 -34 13.5t-14 33.5q0 19 14 32.5t34 13.5q19 0 33 -13.5t14 -32.5q0 -20 -14 -33.5t-33 -13.5z" />
    <glyph glyph-name="yacute" unicode="&#xfd;" horiz-adv-x="860" 
d="M166 -351q-19 0 -47 8v46q20 -8 51 -8q69 0 112 43.5t86 154.5l35 89l-401 1058h54l373 -993h2l374 993h54l-410 -1083q-71 -188 -126 -248t-157 -60zM453 1215h-49l201 304h59z" />
    <glyph glyph-name="thorn" unicode="&#xfe;" horiz-adv-x="1079" 
d="M578 1055q196 0 317.5 -148t121.5 -387q0 -238 -122 -386.5t-317 -148.5q-140 0 -247.5 79.5t-150.5 215.5h-5v-659h-49v1822h47v-692h4q44 139 151.5 221.5t249.5 82.5zM574 30q175 0 284 135.5t109 353.5t-109 354.5t-284 136.5q-176 0 -287.5 -137t-111.5 -353
q0 -215 112 -352.5t287 -137.5z" />
    <glyph glyph-name="ydieresis" unicode="&#xff;" horiz-adv-x="860" 
d="M166 -351q-19 0 -47 8v46q20 -8 51 -8q69 0 112 43.5t86 154.5l35 89l-401 1058h54l373 -993h2l374 993h54l-410 -1083q-71 -188 -126 -248t-157 -60zM291 1316q-19 0 -33 13.5t-14 33.5q0 19 14 32.5t33 13.5q20 0 34 -13.5t14 -32.5q0 -20 -14 -33.5t-34 -13.5z
M569 1316q-20 0 -34 13.5t-14 33.5q0 19 14 32.5t34 13.5q19 0 33 -13.5t14 -32.5q0 -20 -14 -33.5t-33 -13.5z" />
    <glyph glyph-name="Amacron" unicode="&#x100;" horiz-adv-x="1201" 
d="M1125 0l-189 501h-671l-190 -501h-55l555 1443h51l555 -1443h-56zM598 1374l-315 -827h635l-315 827h-5zM834 1722v-43h-468v43h468z" />
    <glyph glyph-name="amacron" unicode="&#x101;" horiz-adv-x="987" 
d="M434 30q164 0 279.5 103.5t115.5 249.5v175l-368 -28q-158 -12 -241 -77t-83 -177q0 -106 84.5 -176t212.5 -70zM431 -15q-151 0 -247 81t-96 210q0 266 366 297l375 28v94q0 147 -83 231t-230 84q-145 0 -234.5 -71t-109.5 -202h-48q17 148 122 233t270 85
q168 0 265 -95.5t97 -260.5v-699h-49v236h-1q-38 -111 -148 -181t-249 -70zM750 1386v-44h-468v44h468z" />
    <glyph glyph-name="Abreve" unicode="&#x102;" horiz-adv-x="1201" 
d="M1125 0l-189 501h-671l-190 -501h-55l555 1443h51l555 -1443h-56zM598 1374l-315 -827h635l-315 827h-5zM362 1799h45q5 -82 54 -128.5t139 -46.5t139 46.5t54 128.5h45q-5 -104 -67.5 -161t-170.5 -57t-170.5 57t-67.5 161z" />
    <glyph glyph-name="abreve" unicode="&#x103;" horiz-adv-x="987" 
d="M434 30q164 0 279.5 103.5t115.5 249.5v175l-368 -28q-158 -12 -241 -77t-83 -177q0 -106 84.5 -176t212.5 -70zM431 -15q-151 0 -247 81t-96 210q0 266 366 297l375 28v94q0 147 -83 231t-230 84q-145 0 -234.5 -71t-109.5 -202h-48q17 148 122 233t270 85
q168 0 265 -95.5t97 -260.5v-699h-49v236h-1q-38 -111 -148 -181t-249 -70zM277 1476h46q0 -91 49 -142t144 -51t144 51t49 142h46q0 -113 -63 -174.5t-176 -61.5t-176 61.5t-63 174.5z" />
    <glyph glyph-name="Aogonek" unicode="&#x104;" horiz-adv-x="1201" 
d="M283 547h635l-315 827h-5zM626 1443l555 -1443q-104 -51 -156 -103t-52 -113q0 -58 35.5 -84t87.5 -26q46 0 84 18v-43q-45 -18 -96 -18q-65 0 -112 37t-47 112q0 126 196 231l-185 490h-671l-190 -501h-55l555 1443h51z" />
    <glyph glyph-name="aogonek" unicode="&#x105;" horiz-adv-x="987" 
d="M829 558l-368 -28q-158 -12 -241 -77t-83 -177q0 -106 84.5 -176t212.5 -70q164 0 279.5 103.5t115.5 249.5v175zM878 699v-699q-104 -52 -155.5 -103.5t-51.5 -112.5q0 -58 35 -84t87 -26q45 0 85 18v-43q-47 -18 -96 -18q-66 0 -112.5 37t-46.5 112q0 131 206 236v220
h-1q-38 -111 -148 -181t-249 -70q-151 0 -247 81t-96 210q0 266 366 297l375 28v94q0 147 -83 231t-230 84q-145 0 -234.5 -71t-109.5 -202h-48q17 148 122 233t270 85q168 0 265 -95.5t97 -260.5z" />
    <glyph glyph-name="Cacute" unicode="&#x106;" horiz-adv-x="1303" 
d="M692 -20q-287 0 -458 204t-171 548q0 337 169.5 534t459.5 197q215 0 377 -140.5t181 -343.5h-49q-20 184 -167 310.5t-342 126.5q-266 0 -422.5 -184.5t-156.5 -499.5q0 -324 157.5 -514.5t421.5 -190.5q203 0 347 115t162 298h49q-11 -134 -86.5 -239t-199 -163
t-272.5 -58zM716 1554h-49l190 287h60z" />
    <glyph glyph-name="cacute" unicode="&#x107;" horiz-adv-x="985" 
d="M927 734h-50q-26 122 -124.5 199t-236.5 77q-186 0 -294.5 -132.5t-108.5 -357.5t108.5 -357.5t294.5 -132.5q139 0 237 74t122 193h50q-25 -140 -136.5 -226t-272.5 -86q-208 0 -330.5 144.5t-122.5 390.5t123 390.5t330 144.5q159 0 272 -90t139 -231zM539 1216h-49
l201 304h59z" />
    <glyph glyph-name="Ccircumflex" unicode="&#x108;" horiz-adv-x="1303" 
d="M692 -20q-287 0 -458 204t-171 548q0 337 169.5 534t459.5 197q215 0 377 -140.5t181 -343.5h-49q-20 184 -167 310.5t-342 126.5q-266 0 -422.5 -184.5t-156.5 -499.5q0 -324 157.5 -514.5t421.5 -190.5q203 0 347 115t162 298h49q-11 -134 -86.5 -239t-199 -163
t-272.5 -58zM671 1841h44l265 -287h-58l-228 249h-2l-228 -249h-58z" />
    <glyph glyph-name="ccircumflex" unicode="&#x109;" horiz-adv-x="985" 
d="M927 734h-50q-26 122 -124.5 199t-236.5 77q-186 0 -294.5 -132.5t-108.5 -357.5t108.5 -357.5t294.5 -132.5q139 0 237 74t122 193h50q-25 -140 -136.5 -226t-272.5 -86q-208 0 -330.5 144.5t-122.5 390.5t123 390.5t330 144.5q159 0 272 -90t139 -231zM538 1520
l263 -304h-55l-229 263h-2l-229 -263h-55l263 304h44z" />
    <glyph glyph-name="Cdotaccent" unicode="&#x10a;" horiz-adv-x="1303" 
d="M692 -20q-287 0 -458 204t-171 548q0 337 169.5 534t459.5 197q215 0 377 -140.5t181 -343.5h-49q-20 184 -167 310.5t-342 126.5q-266 0 -422.5 -184.5t-156.5 -499.5q0 -324 157.5 -514.5t421.5 -190.5q203 0 347 115t162 298h49q-11 -134 -86.5 -239t-199 -163
t-272.5 -58zM693 1654q-20 0 -34 13.5t-14 32.5q0 20 14 33.5t34 13.5t34 -13.5t14 -33.5q0 -19 -14 -32.5t-34 -13.5z" />
    <glyph glyph-name="cdotaccent" unicode="&#x10b;" horiz-adv-x="985" 
d="M927 734h-50q-26 122 -124.5 199t-236.5 77q-186 0 -294.5 -132.5t-108.5 -357.5t108.5 -357.5t294.5 -132.5q139 0 237 74t122 193h50q-25 -140 -136.5 -226t-272.5 -86q-208 0 -330.5 144.5t-122.5 390.5t123 390.5t330 144.5q159 0 272 -90t139 -231zM516 1317
q-20 0 -34 13.5t-14 33.5q0 19 14 32.5t34 13.5t34 -13.5t14 -32.5q0 -20 -14 -33.5t-34 -13.5z" />
    <glyph glyph-name="Ccaron" unicode="&#x10c;" horiz-adv-x="1303" 
d="M692 -20q-287 0 -458 204t-171 548q0 337 169.5 534t459.5 197q215 0 377 -140.5t181 -343.5h-49q-20 184 -167 310.5t-342 126.5q-266 0 -422.5 -184.5t-156.5 -499.5q0 -324 157.5 -514.5t421.5 -190.5q203 0 347 115t162 298h49q-11 -134 -86.5 -239t-199 -163
t-272.5 -58zM715 1554h-44l-265 287h58l228 -249h2l228 249h58z" />
    <glyph glyph-name="ccaron" unicode="&#x10d;" horiz-adv-x="985" 
d="M927 734h-50q-26 122 -124.5 199t-236.5 77q-186 0 -294.5 -132.5t-108.5 -357.5t108.5 -357.5t294.5 -132.5q139 0 237 74t122 193h50q-25 -140 -136.5 -226t-272.5 -86q-208 0 -330.5 144.5t-122.5 390.5t123 390.5t330 144.5q159 0 272 -90t139 -231zM494 1216
l-263 304h55l229 -264h2l229 264h55l-263 -304h-44z" />
    <glyph glyph-name="Dcaron" unicode="&#x10e;" horiz-adv-x="1312" 
d="M124 1443h435q330 0 510 -188t180 -533q0 -346 -180 -534t-510 -188h-435v1443zM175 1396v-1349h383q309 0 475 175t166 500q0 324 -166.5 499t-474.5 175h-383zM543 1554h-44l-265 287h58l228 -249h2l228 249h58z" />
    <glyph glyph-name="dcaron" unicode="&#x10f;" horiz-adv-x="1122" 
d="M1100 1520h48l-10 -353h-38v353zM506 -15q-195 0 -319 148.5t-124 386.5t123.5 386.5t319.5 148.5q151 0 262.5 -91.5t142.5 -227.5h2v707h50v-1443h-46v309h-2q-33 -139 -145.5 -231.5t-263.5 -92.5zM509 1010q-175 0 -285.5 -136t-110.5 -353q0 -218 110.5 -354.5
t285.5 -136.5q177 0 290.5 137t113.5 353t-113.5 353t-290.5 137z" />
    <glyph glyph-name="Dcroat" unicode="&#x110;" horiz-adv-x="1312" 
d="M175 47h383q309 0 475 175t166 500q0 324 -166.5 499t-474.5 175h-383v-632h447v-47h-447v-670zM124 1443h435q330 0 510 -188t180 -533q0 -346 -180 -534t-510 -188h-435v717h-121v47h121v679z" />
    <glyph glyph-name="dcroat" unicode="&#x111;" horiz-adv-x="1088" 
d="M509 30q177 0 290.5 137t113.5 353t-113.5 353t-290.5 137q-175 0 -285.5 -136t-110.5 -353q0 -218 110.5 -354.5t285.5 -136.5zM1167 1282v-44h-204v-1238h-46v309h-2q-33 -139 -145.5 -231.5t-263.5 -92.5q-195 0 -319 148.5t-124 386.5t123.5 386.5t319.5 148.5
q151 0 262.5 -91.5t142.5 -227.5h2v502h-277v44h277v161h50v-161h204z" />
    <glyph glyph-name="Emacron" unicode="&#x112;" horiz-adv-x="1050" 
d="M950 47v-47h-826v1443h826v-47h-776v-632h740v-46h-740v-671h776zM772 1722v-43h-468v43h468z" />
    <glyph glyph-name="emacron" unicode="&#x113;" horiz-adv-x="1021" 
d="M515 1010q-174 0 -283.5 -123t-117.5 -325h794q0 200 -108.5 324t-284.5 124zM894 289h51q-27 -135 -139.5 -219.5t-282.5 -84.5q-211 0 -335.5 142t-124.5 393q0 242 124 388.5t328 146.5q199 0 321 -138t122 -362v-38h-845v-2q0 -228 111.5 -356.5t299.5 -128.5
q150 0 248 72t122 187zM749 1386v-44h-468v44h468z" />
    <glyph glyph-name="Ebreve" unicode="&#x114;" horiz-adv-x="1050" 
d="M950 47v-47h-826v1443h826v-47h-776v-632h740v-46h-740v-671h776zM300 1799h45q5 -82 54 -128.5t139 -46.5t139 46.5t54 128.5h45q-5 -104 -67.5 -161t-170.5 -57t-170.5 57t-67.5 161z" />
    <glyph glyph-name="ebreve" unicode="&#x115;" horiz-adv-x="1021" 
d="M515 1010q-174 0 -283.5 -123t-117.5 -325h794q0 200 -108.5 324t-284.5 124zM894 289h51q-27 -135 -139.5 -219.5t-282.5 -84.5q-211 0 -335.5 142t-124.5 393q0 242 124 388.5t328 146.5q199 0 321 -138t122 -362v-38h-845v-2q0 -228 111.5 -356.5t299.5 -128.5
q150 0 248 72t122 187zM276 1476h46q0 -91 49 -142t144 -51t144 51t49 142h46q0 -113 -63 -174.5t-176 -61.5t-176 61.5t-63 174.5z" />
    <glyph glyph-name="Edotaccent" unicode="&#x116;" horiz-adv-x="1050" 
d="M950 47v-47h-826v1443h826v-47h-776v-632h740v-46h-740v-671h776zM538 1654q-20 0 -34 13.5t-14 32.5q0 20 14 33.5t34 13.5t34 -13.5t14 -33.5q0 -19 -14 -32.5t-34 -13.5z" />
    <glyph glyph-name="edotaccent" unicode="&#x117;" horiz-adv-x="1021" 
d="M515 1010q-174 0 -283.5 -123t-117.5 -325h794q0 200 -108.5 324t-284.5 124zM894 289h51q-27 -135 -139.5 -219.5t-282.5 -84.5q-211 0 -335.5 142t-124.5 393q0 242 124 388.5t328 146.5q199 0 321 -138t122 -362v-38h-845v-2q0 -228 111.5 -356.5t299.5 -128.5
q150 0 248 72t122 187zM515 1317q-20 0 -34 13.5t-14 33.5q0 19 14 32.5t34 13.5t34 -13.5t14 -32.5q0 -20 -14 -33.5t-34 -13.5z" />
    <glyph glyph-name="Eogonek" unicode="&#x118;" horiz-adv-x="1050" 
d="M950 1396h-776v-632h740v-46h-740v-671h776v-47q-104 -52 -155.5 -103.5t-51.5 -112.5q0 -58 35 -84t87 -26q45 0 85 18v-43q-47 -18 -96 -18q-65 0 -112 37t-47 112q0 120 176 220h-747v1443h826v-47z" />
    <glyph glyph-name="eogonek" unicode="&#x119;" horiz-adv-x="1021" 
d="M114 562h794q0 200 -108.5 324t-284.5 124q-174 0 -283.5 -123t-117.5 -325zM958 517h-845v-2q0 -228 111.5 -356.5t299.5 -128.5q150 0 248 72t122 187h51q-29 -147 -155 -230q-180 -140 -180 -268q0 -59 31 -88t78 -29t87 18v-42q-47 -19 -93 -19q-65 0 -108 40.5
t-43 113.5q0 115 115 221q-74 -21 -154 -21q-211 0 -335.5 142t-124.5 393q0 242 124 388.5t328 146.5q199 0 321 -138t122 -362v-38z" />
    <glyph glyph-name="Ecaron" unicode="&#x11a;" horiz-adv-x="1050" 
d="M950 47v-47h-826v1443h826v-47h-776v-632h740v-46h-740v-671h776zM560 1554h-44l-265 287h58l228 -249h2l228 249h58z" />
    <glyph glyph-name="ecaron" unicode="&#x11b;" horiz-adv-x="1021" 
d="M515 1010q-174 0 -283.5 -123t-117.5 -325h794q0 200 -108.5 324t-284.5 124zM894 289h51q-27 -135 -139.5 -219.5t-282.5 -84.5q-211 0 -335.5 142t-124.5 393q0 242 124 388.5t328 146.5q199 0 321 -138t122 -362v-38h-845v-2q0 -228 111.5 -356.5t299.5 -128.5
q150 0 248 72t122 187zM493 1216l-263 304h55l229 -264h2l229 264h55l-263 -304h-44z" />
    <glyph glyph-name="Gcircumflex" unicode="&#x11c;" horiz-adv-x="1332" 
d="M1259 564q0 -272 -153.5 -428t-420.5 -156q-182 0 -323.5 94.5t-220 265.5t-78.5 391q0 329 171 530.5t451 201.5q213 0 368.5 -118t195.5 -309h-49q-42 172 -183 276t-332 104q-258 0 -415 -188t-157 -497q0 -313 159 -508.5t413 -195.5q244 0 384.5 143t140.5 392v100
h-531v46h580v-144zM663 1841h44l265 -287h-58l-228 249h-2l-228 -249h-58z" />
    <glyph glyph-name="gcircumflex" unicode="&#x11d;" horiz-adv-x="1070" 
d="M504 32q177 0 289 136t112 352q0 217 -112 353.5t-289 136.5q-174 0 -282.5 -136.5t-108.5 -354.5q0 -217 108.5 -352t282.5 -135zM531 -371q-163 0 -272 73t-132 181h52q28 -91 121.5 -150t232.5 -59q170 0 271 91t101 242v298h-2q-32 -137 -141.5 -228.5t-259.5 -91.5
q-195 0 -317 148.5t-122 386.5t122 386.5t317 148.5q150 0 260 -91.5t144 -232.5h2v309h46v-1031q0 -172 -114.5 -276t-308.5 -104zM562 1520l263 -304h-55l-229 263h-2l-229 -263h-55l263 304h44z" />
    <glyph glyph-name="Gbreve" unicode="&#x11e;" horiz-adv-x="1332" 
d="M1259 564q0 -272 -153.5 -428t-420.5 -156q-182 0 -323.5 94.5t-220 265.5t-78.5 391q0 329 171 530.5t451 201.5q213 0 368.5 -118t195.5 -309h-49q-42 172 -183 276t-332 104q-258 0 -415 -188t-157 -497q0 -313 159 -508.5t413 -195.5q244 0 384.5 143t140.5 392v100
h-531v46h580v-144zM447 1799h45q5 -82 54 -128.5t139 -46.5t139 46.5t54 128.5h45q-5 -104 -67.5 -161t-170.5 -57t-170.5 57t-67.5 161z" />
    <glyph glyph-name="gbreve" unicode="&#x11f;" horiz-adv-x="1070" 
d="M504 32q177 0 289 136t112 352q0 217 -112 353.5t-289 136.5q-174 0 -282.5 -136.5t-108.5 -354.5q0 -217 108.5 -352t282.5 -135zM531 -371q-163 0 -272 73t-132 181h52q28 -91 121.5 -150t232.5 -59q170 0 271 91t101 242v298h-2q-32 -137 -141.5 -228.5t-259.5 -91.5
q-195 0 -317 148.5t-122 386.5t122 386.5t317 148.5q150 0 260 -91.5t144 -232.5h2v309h46v-1031q0 -172 -114.5 -276t-308.5 -104zM301 1476h46q0 -91 49 -142t144 -51t144 51t49 142h46q0 -113 -63 -174.5t-176 -61.5t-176 61.5t-63 174.5z" />
    <glyph glyph-name="Gdotaccent" unicode="&#x120;" horiz-adv-x="1332" 
d="M1259 564q0 -272 -153.5 -428t-420.5 -156q-182 0 -323.5 94.5t-220 265.5t-78.5 391q0 329 171 530.5t451 201.5q213 0 368.5 -118t195.5 -309h-49q-42 172 -183 276t-332 104q-258 0 -415 -188t-157 -497q0 -313 159 -508.5t413 -195.5q244 0 384.5 143t140.5 392v100
h-531v46h580v-144zM685 1654q-20 0 -34 13.5t-14 32.5q0 20 14 33.5t34 13.5t34 -13.5t14 -33.5q0 -19 -14 -32.5t-34 -13.5z" />
    <glyph glyph-name="gdotaccent" unicode="&#x121;" horiz-adv-x="1070" 
d="M504 32q177 0 289 136t112 352q0 217 -112 353.5t-289 136.5q-174 0 -282.5 -136.5t-108.5 -354.5q0 -217 108.5 -352t282.5 -135zM531 -371q-163 0 -272 73t-132 181h52q28 -91 121.5 -150t232.5 -59q170 0 271 91t101 242v298h-2q-32 -137 -141.5 -228.5t-259.5 -91.5
q-195 0 -317 148.5t-122 386.5t122 386.5t317 148.5q150 0 260 -91.5t144 -232.5h2v309h46v-1031q0 -172 -114.5 -276t-308.5 -104zM540 1317q-20 0 -34 13.5t-14 33.5q0 19 14 32.5t34 13.5t34 -13.5t14 -32.5q0 -20 -14 -33.5t-34 -13.5z" />
    <glyph glyph-name="Gcommaaccent" unicode="&#x122;" horiz-adv-x="1332" 
d="M1259 564q0 -272 -153.5 -428t-420.5 -156q-182 0 -323.5 94.5t-220 265.5t-78.5 391q0 329 171 530.5t451 201.5q213 0 368.5 -118t195.5 -309h-49q-42 172 -183 276t-332 104q-258 0 -415 -188t-157 -497q0 -313 159 -508.5t413 -195.5q244 0 384.5 143t140.5 392v100
h-531v46h580v-144zM597 -476h-46l102 337h58z" />
    <glyph glyph-name="gcommaaccent" unicode="&#x123;" horiz-adv-x="1070" 
d="M628 1553h46l-103 -337h-57zM504 32q177 0 289 136t112 352q0 217 -112 353.5t-289 136.5q-174 0 -282.5 -136.5t-108.5 -354.5q0 -217 108.5 -352t282.5 -135zM531 -371q-163 0 -272 73t-132 181h52q28 -91 121.5 -150t232.5 -59q170 0 271 91t101 242v298h-2
q-32 -137 -141.5 -228.5t-259.5 -91.5q-195 0 -317 148.5t-122 386.5t122 386.5t317 148.5q150 0 260 -91.5t144 -232.5h2v309h46v-1031q0 -172 -114.5 -276t-308.5 -104z" />
    <glyph glyph-name="Hcircumflex" unicode="&#x124;" horiz-adv-x="1296" 
d="M1172 0h-50v718h-948v-718h-50v1443h50v-678h948v678h50v-1443zM626 1841h44l265 -287h-58l-228 249h-2l-228 -249h-58z" />
    <glyph glyph-name="hcircumflex" unicode="&#x125;" horiz-adv-x="1038" 
d="M126 0v1443h49v-647h2q32 116 133 187.5t235 71.5q172 0 278 -104t106 -278v-673h-49v670q0 156 -94 248t-247 92q-160 0 -262 -108t-102 -278v-624h-49zM128 1841h44l265 -287h-58l-228 249h-2l-228 -249h-58z" />
    <glyph glyph-name="Hbar" unicode="&#x126;" horiz-adv-x="1296" 
d="M1122 765v371h-948v-371h948zM1303 1181v-45h-131v-1136h-50v718h-948v-718h-50v1136h-131v45h131v262h50v-262h948v262h50v-262h131z" />
    <glyph glyph-name="hbar" unicode="&#x127;" horiz-adv-x="1038" 
d="M175 796h2q32 116 133 187.5t235 71.5q172 0 278 -104t106 -278v-673h-49v670q0 156 -94 248t-247 92q-160 0 -262 -108t-102 -278v-624h-49v1238h-135v44h135v161h49v-161h338v-44h-338v-442z" />
    <glyph glyph-name="Itilde" unicode="&#x128;" horiz-adv-x="298" 
d="M174 0h-50v1443h50v-1443zM268 1590q-39 0 -69.5 16.5t-50 40t-37 47t-40 40t-49.5 16.5q-47 0 -70.5 -42.5t-23.5 -108.5h-45q0 86 36 139.5t105 53.5q36 0 64 -16.5t46.5 -40l36.5 -47.5t42.5 -40.5t55.5 -16.5q49 0 75 42.5t26 108.5h45q0 -85 -38.5 -138.5
t-108.5 -53.5z" />
    <glyph glyph-name="itilde" unicode="&#x129;" horiz-adv-x="299" 
d="M125 0v1040h49v-1040h-49zM268 1253q-39 0 -69.5 16.5t-50 40t-37 47t-40 40t-49.5 16.5q-47 0 -70.5 -42t-23.5 -108h-45q0 86 36 139t105 53q36 0 64 -16.5t46.5 -40l36.5 -47t42.5 -40t55.5 -16.5q49 0 75 42.5t26 107.5h45q0 -85 -38.5 -138.5t-108.5 -53.5z" />
    <glyph glyph-name="Imacron" unicode="&#x12a;" horiz-adv-x="298" 
d="M174 0h-50v1443h50v-1443zM383 1722v-43h-468v43h468z" />
    <glyph glyph-name="imacron" unicode="&#x12b;" horiz-adv-x="299" 
d="M125 0v1040h49v-1040h-49zM348 1386v-44h-398v44h398z" />
    <glyph glyph-name="Ibreve" unicode="&#x12c;" horiz-adv-x="298" 
d="M174 0h-50v1443h50v-1443zM-89 1799h45q5 -82 54 -128.5t139 -46.5t139 46.5t54 128.5h45q-5 -104 -67.5 -161t-170.5 -57t-170.5 57t-67.5 161z" />
    <glyph glyph-name="ibreve" unicode="&#x12d;" horiz-adv-x="299" 
d="M125 0v1040h49v-1040h-49zM-90 1476h46q0 -91 49 -142t144 -51t144 51t49 142h46q0 -113 -63 -174.5t-176 -61.5t-176 61.5t-63 174.5z" />
    <glyph glyph-name="Iogonek" unicode="&#x12e;" horiz-adv-x="298" 
d="M174 1443v-1443q-104 -52 -155.5 -103.5t-51.5 -112.5q0 -58 35 -84t87 -26q46 0 84 18v-43q-45 -18 -96 -18q-65 0 -111.5 37t-46.5 112q0 130 205 236v1427h50z" />
    <glyph glyph-name="iogonek" unicode="&#x12f;" horiz-adv-x="299" 
d="M125 16v1024h49v-1040q-104 -52 -155.5 -103.5t-51.5 -112.5q0 -58 35 -84t87 -26q45 0 85 18v-43q-47 -18 -96 -18q-66 0 -112.5 37t-46.5 112q0 131 206 236zM149 1410q20 0 34 -13.5t14 -32.5q0 -20 -14 -33.5t-34 -13.5t-34 13.5t-14 33.5q0 19 14 32.5t34 13.5z" />
    <glyph glyph-name="Idotaccent" unicode="&#x130;" horiz-adv-x="298" 
d="M174 0h-50v1443h50v-1443zM149 1654q-20 0 -34 13.5t-14 32.5q0 20 14 33.5t34 13.5t34 -13.5t14 -33.5q0 -19 -14 -32.5t-34 -13.5z" />
    <glyph glyph-name="dotlessi" unicode="&#x131;" horiz-adv-x="299" 
d="M125 0v1040h49v-1040h-49z" />
    <glyph glyph-name="IJ" unicode="&#x132;" horiz-adv-x="1231" 
d="M174 0h-50v1443h50v-1443zM339 315h49q7 -128 98.5 -208.5t229.5 -80.5q159 0 250 95t91 263v1059h50v-1062q0 -185 -104.5 -293.5t-286.5 -108.5q-160 0 -266 94t-111 242z" />
    <glyph glyph-name="ij" unicode="&#x133;" horiz-adv-x="598" 
d="M125 0v1040h49v-1040h-49zM149 1317q-20 0 -34 13.5t-14 33.5q0 19 14 32.5t34 13.5t34 -13.5t14 -32.5q0 -20 -14 -33.5t-34 -13.5zM473 1040v-1135q0 -131 -61.5 -192.5t-193.5 -61.5h-29v46h27q109 0 158.5 48.5t49.5 155.5v1139h49zM448 1317q-20 0 -34 13.5
t-14 33.5q0 19 14 32.5t34 13.5t34 -13.5t14 -32.5q0 -20 -14 -33.5t-34 -13.5z" />
    <glyph glyph-name="Jcircumflex" unicode="&#x134;" horiz-adv-x="933" 
d="M41 315h49q7 -128 98.5 -208.5t229.5 -80.5q159 0 250 95t91 263v1059h50v-1062q0 -185 -104.5 -293.5t-286.5 -108.5q-160 0 -266 94t-111 242zM762 1841h44l265 -287h-58l-228 249h-2l-228 -249h-58z" />
    <glyph glyph-name="jcircumflex" unicode="&#x135;" horiz-adv-x="299" 
d="M174 1040v-1135q0 -131 -61.5 -192.5t-193.5 -61.5h-29v46h27q109 0 158.5 48.5t49.5 155.5v1139h49zM171 1520l263 -304h-55l-229 263h-2l-229 -263h-55l263 304h44z" />
    <glyph glyph-name="Kcommaaccent" unicode="&#x136;" horiz-adv-x="1107" 
d="M174 0h-50v1443h50v-836h4l784 836h64l-594 -635l664 -808h-64l-636 773l-222 -237v-536zM437 -476h-46l102 337h58z" />
    <glyph glyph-name="kcommaaccent" unicode="&#x137;" horiz-adv-x="883" 
d="M176 487l622 553h69l-499 -448l500 -592h-63l-476 562l-154 -137v-425h-49v1443h49v-956h1zM364 -476h-46l102 337h58z" />
    <glyph glyph-name="Lacute" unicode="&#x139;" horiz-adv-x="1009" 
d="M949 47v-47h-825v1443h50v-1396h775zM172 1554h-49l190 287h60z" />
    <glyph glyph-name="lacute" unicode="&#x13a;" horiz-adv-x="299" 
d="M125 0v1443h49v-1443h-49zM172 1554h-49l190 287h60z" />
    <glyph glyph-name="Lcommaaccent" unicode="&#x13b;" horiz-adv-x="1009" 
d="M949 47v-47h-825v1443h50v-1396h775zM449 -476h-46l102 337h58z" />
    <glyph glyph-name="lcommaaccent" unicode="&#x13c;" horiz-adv-x="299" 
d="M125 0v1443h49v-1443h-49zM61 -476h-46l102 337h58z" />
    <glyph glyph-name="Lcaron" unicode="&#x13d;" horiz-adv-x="1009" 
d="M949 47v-47h-825v1443h50v-1396h775zM418 1520h53l-17 -434h-36v434z" />
    <glyph glyph-name="lcaron" unicode="&#x13e;" horiz-adv-x="333" 
d="M125 0v1443h49v-1443h-49zM312 1520h48l-11 -354h-37v354z" />
    <glyph glyph-name="Lslash" unicode="&#x141;" horiz-adv-x="1036" 
d="M201 47h775v-47h-825v720l-128 -71v47l128 71v676h50v-648l405 224v-47l-405 -224v-701z" />
    <glyph glyph-name="lslash" unicode="&#x142;" horiz-adv-x="299" 
d="M288 870v-50l-114 -70v-750h-49v720l-112 -69v50l112 69v673h49v-643z" />
    <glyph glyph-name="Nacute" unicode="&#x143;" horiz-adv-x="1315" 
d="M174 0h-50v1443h55l958 -1348h4v1348h50v-1443h-46l-967 1359h-4v-1359zM680 1554h-49l190 287h60z" />
    <glyph glyph-name="nacute" unicode="&#x144;" horiz-adv-x="1027" 
d="M116 0v1040h46v-244h2q33 116 133 187.5t235 71.5q173 0 279.5 -104t106.5 -278v-673h-49v670q0 156 -95 248t-249 92q-160 0 -260 -108t-100 -278v-624h-49zM540 1216h-49l201 304h59z" />
    <glyph glyph-name="Ncommaaccent" unicode="&#x145;" horiz-adv-x="1315" 
d="M174 0h-50v1443h55l958 -1348h4v1348h50v-1443h-46l-967 1359h-4v-1359zM569 -476h-46l102 337h58z" />
    <glyph glyph-name="ncommaaccent" unicode="&#x146;" horiz-adv-x="1027" 
d="M116 0v1040h46v-244h2q33 116 133 187.5t235 71.5q173 0 279.5 -104t106.5 -278v-673h-49v670q0 156 -95 248t-249 92q-160 0 -260 -108t-100 -278v-624h-49zM429 -476h-46l102 337h58z" />
    <glyph glyph-name="Ncaron" unicode="&#x147;" horiz-adv-x="1315" 
d="M174 0h-50v1443h55l958 -1348h4v1348h50v-1443h-46l-967 1359h-4v-1359zM679 1554h-44l-265 287h58l228 -249h2l228 249h58z" />
    <glyph glyph-name="ncaron" unicode="&#x148;" horiz-adv-x="1027" 
d="M116 0v1040h46v-244h2q33 116 133 187.5t235 71.5q173 0 279.5 -104t106.5 -278v-673h-49v670q0 156 -95 248t-249 92q-160 0 -260 -108t-100 -278v-624h-49zM495 1216l-263 304h55l229 -264h2l229 264h55l-263 -304h-44z" />
    <glyph glyph-name="eng" unicode="&#x14b;" horiz-adv-x="1027" 
d="M116 0v1040h46v-244h2q33 116 133 187.5t235 71.5q173 0 279.5 -104t106.5 -278v-771q0 -128 -61 -189.5t-185 -61.5q-42 0 -69 9v44q24 -7 60 -7q107 0 156.5 48t49.5 159v766q0 156 -95 248t-249 92q-160 0 -260 -108t-100 -278v-624h-49z" />
    <glyph glyph-name="Omacron" unicode="&#x14c;" horiz-adv-x="1398" 
d="M699 1463q291 0 463.5 -200.5t172.5 -540.5q0 -341 -172 -541.5t-464 -200.5q-293 0 -464.5 200.5t-171.5 541.5q0 340 172 540.5t464 200.5zM699 1416q-269 0 -427.5 -188t-158.5 -506t159 -506.5t427 -188.5t427 188.5t159 506.5t-159 506t-427 188zM933 1722v-43h-468
v43h468z" />
    <glyph glyph-name="omacron" unicode="&#x14d;" horiz-adv-x="1043" 
d="M521 -15q-206 0 -332 145t-126 390t126 390t332 145t332.5 -145t126.5 -390t-126.5 -390t-332.5 -145zM521 30q184 0 297 133t113 357q0 225 -112.5 357.5t-297.5 132.5t-296.5 -132.5t-111.5 -357.5t111.5 -357.5t296.5 -132.5zM756 1385v-44h-468v44h468z" />
    <glyph glyph-name="Obreve" unicode="&#x14e;" horiz-adv-x="1398" 
d="M699 1463q291 0 463.5 -200.5t172.5 -540.5q0 -341 -172 -541.5t-464 -200.5q-293 0 -464.5 200.5t-171.5 541.5q0 340 172 540.5t464 200.5zM699 1416q-269 0 -427.5 -188t-158.5 -506t159 -506.5t427 -188.5t427 188.5t159 506.5t-159 506t-427 188zM461 1799h45
q5 -82 54 -128.5t139 -46.5t139 46.5t54 128.5h45q-5 -104 -67.5 -161t-170.5 -57t-170.5 57t-67.5 161z" />
    <glyph glyph-name="obreve" unicode="&#x14f;" horiz-adv-x="1043" 
d="M521 -15q-206 0 -332 145t-126 390t126 390t332 145t332.5 -145t126.5 -390t-126.5 -390t-332.5 -145zM521 30q184 0 297 133t113 357q0 225 -112.5 357.5t-297.5 132.5t-296.5 -132.5t-111.5 -357.5t111.5 -357.5t296.5 -132.5zM283 1475h46q0 -91 49 -142t144 -51
t144 51t49 142h46q0 -113 -63 -174.5t-176 -61.5t-176 61.5t-63 174.5z" />
    <glyph glyph-name="Ohungarumlaut" unicode="&#x150;" horiz-adv-x="1398" 
d="M699 1463q291 0 463.5 -200.5t172.5 -540.5q0 -341 -172 -541.5t-464 -200.5q-293 0 -464.5 200.5t-171.5 541.5q0 340 172 540.5t464 200.5zM699 1416q-269 0 -427.5 -188t-158.5 -506t159 -506.5t427 -188.5t427 188.5t159 506.5t-159 506t-427 188zM547 1554l170 287
h57l-179 -287h-48zM799 1554l174 287h58l-183 -287h-49z" />
    <glyph glyph-name="ohungarumlaut" unicode="&#x151;" horiz-adv-x="1043" 
d="M521 -15q-206 0 -332 145t-126 390t126 390t332 145t332.5 -145t126.5 -390t-126.5 -390t-332.5 -145zM521 30q184 0 297 133t113 357q0 225 -112.5 357.5t-297.5 132.5t-296.5 -132.5t-111.5 -357.5t111.5 -357.5t296.5 -132.5zM370 1215l180 304h57l-190 -304h-47z
M622 1215l184 304h58l-194 -304h-48z" />
    <glyph glyph-name="OE" unicode="&#x152;" horiz-adv-x="2167" 
d="M705 1416q-271 0 -431.5 -188.5t-160.5 -505.5t160.5 -506t431.5 -189t431.5 188.5t160.5 506.5q0 317 -161 505.5t-431 188.5zM1297 0v414q-65 -208 -219.5 -321t-372.5 -113q-297 0 -469.5 199.5t-172.5 542.5t172.5 542t469.5 199q218 0 372.5 -113t219.5 -320v413
h797v-47h-747v-632h711v-46h-711v-671h747v-47h-797z" />
    <glyph glyph-name="oe" unicode="&#x153;" horiz-adv-x="1889" 
d="M1392 -15q-171 0 -291.5 104.5t-142.5 265.5h-5q-23 -166 -141.5 -270t-290.5 -104q-209 0 -333.5 144.5t-124.5 390.5t125 391.5t333 145.5q171 0 289.5 -103.5t142.5 -266.5h5q22 162 140 267t285 105q199 0 321 -137.5t122 -361.5v-39h-845v-3q0 -217 112 -350.5
t299 -133.5q150 0 247.5 72.5t122.5 186.5h51q-27 -135 -139 -219.5t-282 -84.5zM1776 561q0 199 -109.5 324t-283.5 125q-172 0 -282.5 -123.5t-119.5 -325.5h795zM113 516q0 -224 111.5 -356.5t296.5 -132.5t297.5 133t112.5 356q0 224 -112.5 357.5t-297.5 133.5
t-296.5 -133t-111.5 -358z" />
    <glyph glyph-name="Racute" unicode="&#x154;" horiz-adv-x="1124" 
d="M174 1396v-720h396q193 0 304 96.5t111 263.5q0 170 -110.5 265t-304.5 95h-396zM174 630v-630h-50v1443h447q216 0 340 -108.5t124 -298.5q0 -158 -92 -263t-255 -133l382 -640h-58l-376 632q-34 -2 -66 -2h-396zM507 1554h-49l190 287h60z" />
    <glyph glyph-name="racute" unicode="&#x155;" horiz-adv-x="584" 
d="M116 0v1040h46v-216h2q34 114 106.5 172.5t179.5 58.5q63 0 105 -20v-51q-44 24 -112 24q-127 0 -202.5 -100.5t-75.5 -259.5v-648h-49zM346 1216h-49l201 304h59z" />
    <glyph glyph-name="Rcommaaccent" unicode="&#x156;" horiz-adv-x="1124" 
d="M174 1396v-720h396q193 0 304 96.5t111 263.5q0 170 -110.5 265t-304.5 95h-396zM174 630v-630h-50v1443h447q216 0 340 -108.5t124 -298.5q0 -158 -92 -263t-255 -133l382 -640h-58l-376 632q-34 -2 -66 -2h-396zM396 -476h-46l102 337h58z" />
    <glyph glyph-name="rcommaaccent" unicode="&#x157;" horiz-adv-x="584" 
d="M116 0v1040h46v-216h2q34 114 106.5 172.5t179.5 58.5q63 0 105 -20v-51q-44 24 -112 24q-127 0 -202.5 -100.5t-75.5 -259.5v-648h-49zM52 -476h-46l102 337h58z" />
    <glyph glyph-name="Rcaron" unicode="&#x158;" horiz-adv-x="1124" 
d="M174 1396v-720h396q193 0 304 96.5t111 263.5q0 170 -110.5 265t-304.5 95h-396zM174 630v-630h-50v1443h447q216 0 340 -108.5t124 -298.5q0 -158 -92 -263t-255 -133l382 -640h-58l-376 632q-34 -2 -66 -2h-396zM506 1554h-44l-265 287h58l228 -249h2l228 249h58z" />
    <glyph glyph-name="rcaron" unicode="&#x159;" horiz-adv-x="584" 
d="M116 0v1040h46v-216h2q34 114 106.5 172.5t179.5 58.5q63 0 105 -20v-51q-44 24 -112 24q-127 0 -202.5 -100.5t-75.5 -259.5v-648h-49zM301 1216l-263 304h55l229 -264h2l229 264h55l-263 -304h-44z" />
    <glyph glyph-name="Sacute" unicode="&#x15a;" horiz-adv-x="1114" 
d="M52 381h50q8 -156 139.5 -255.5t329.5 -99.5q195 0 317 96t122 251q0 124 -87.5 196.5t-288.5 120.5l-151 36q-209 50 -300.5 135t-91.5 226q0 108 63 195t168 134t231 47q199 0 335.5 -103.5t143.5 -257.5h-50q-8 135 -130 225t-300 90q-173 0 -292 -92t-119 -238
q0 -122 86.5 -196.5t274.5 -119.5l150 -36q219 -52 313.5 -134.5t94.5 -225.5q0 -176 -135.5 -285.5t-354.5 -109.5q-220 0 -365 112.5t-153 288.5zM581 1554h-49l190 287h60z" />
    <glyph glyph-name="sacute" unicode="&#x15b;" horiz-adv-x="876" 
d="M89 780q0 120 97.5 197.5t248.5 77.5q157 0 255.5 -84t115.5 -233h-48q-18 127 -104 200t-219 73q-128 0 -212 -65.5t-84 -163.5q0 -82 59 -131.5t195 -81.5l140 -32q154 -36 221 -98t67 -169q0 -125 -104 -205t-267 -80t-274 86.5t-122 222.5h49q14 -116 111 -190.5
t235 -74.5q141 0 231.5 67t90.5 171q0 90 -58.5 142.5t-194.5 83.5l-139 32q-150 34 -220 95.5t-70 159.5zM462 1216h-49l201 304h59z" />
    <glyph glyph-name="Scircumflex" unicode="&#x15c;" horiz-adv-x="1114" 
d="M52 381h50q8 -156 139.5 -255.5t329.5 -99.5q195 0 317 96t122 251q0 124 -87.5 196.5t-288.5 120.5l-151 36q-209 50 -300.5 135t-91.5 226q0 108 63 195t168 134t231 47q199 0 335.5 -103.5t143.5 -257.5h-50q-8 135 -130 225t-300 90q-173 0 -292 -92t-119 -238
q0 -122 86.5 -196.5t274.5 -119.5l150 -36q219 -52 313.5 -134.5t94.5 -225.5q0 -176 -135.5 -285.5t-354.5 -109.5q-220 0 -365 112.5t-153 288.5zM536 1841h44l265 -287h-58l-228 249h-2l-228 -249h-58z" />
    <glyph glyph-name="scircumflex" unicode="&#x15d;" horiz-adv-x="876" 
d="M89 780q0 120 97.5 197.5t248.5 77.5q157 0 255.5 -84t115.5 -233h-48q-18 127 -104 200t-219 73q-128 0 -212 -65.5t-84 -163.5q0 -82 59 -131.5t195 -81.5l140 -32q154 -36 221 -98t67 -169q0 -125 -104 -205t-267 -80t-274 86.5t-122 222.5h49q14 -116 111 -190.5
t235 -74.5q141 0 231.5 67t90.5 171q0 90 -58.5 142.5t-194.5 83.5l-139 32q-150 34 -220 95.5t-70 159.5zM461 1520l263 -304h-55l-229 263h-2l-229 -263h-55l263 304h44z" />
    <glyph glyph-name="Scedilla" unicode="&#x15e;" horiz-adv-x="1114" 
d="M502 771l150 -36q219 -52 313.5 -134.5t94.5 -225.5q0 -175 -134.5 -284.5t-352.5 -110.5l-51 -120q97 0 151.5 -40.5t54.5 -113.5q0 -75 -60.5 -121t-156.5 -46q-74 -2 -122 15v44q49 -17 120 -17t121.5 36t50.5 88q0 54 -43 83.5t-120 29.5h-48v33l55 130
q-203 12 -334.5 123t-138.5 277h50q8 -156 139.5 -255.5t329.5 -99.5q195 0 317 96t122 251q0 124 -87.5 196.5t-288.5 120.5l-151 36q-209 50 -300.5 135t-91.5 226q0 108 63 195t168 134t231 47q199 0 335.5 -103.5t143.5 -257.5h-50q-8 135 -130 225t-300 90
q-173 0 -292 -92t-119 -238q0 -122 86.5 -196.5t274.5 -119.5z" />
    <glyph glyph-name="scedilla" unicode="&#x15f;" horiz-adv-x="876" 
d="M393 569l140 -32q154 -36 221 -98t67 -169q0 -123 -100 -202t-258 -83l-54 -125q97 0 151.5 -40.5t54.5 -113.5q0 -75 -60.5 -121t-156.5 -46q-74 -2 -122 15v44q49 -17 120 -17t121.5 36t50.5 88q0 54 -43 83.5t-120 29.5h-48v33l58 135q-150 10 -250.5 95t-110.5 213
h49q14 -116 111 -190.5t235 -74.5q141 0 231.5 67t90.5 171q0 90 -58.5 142.5t-194.5 83.5l-139 32q-150 34 -220 95.5t-70 159.5q0 120 97.5 197.5t248.5 77.5q157 0 255.5 -84t115.5 -233h-48q-18 127 -104 200t-219 73q-128 0 -212 -65.5t-84 -163.5q0 -82 59 -131.5
t195 -81.5z" />
    <glyph glyph-name="Scaron" unicode="&#x160;" horiz-adv-x="1114" 
d="M52 381h50q8 -156 139.5 -255.5t329.5 -99.5q195 0 317 96t122 251q0 124 -87.5 196.5t-288.5 120.5l-151 36q-209 50 -300.5 135t-91.5 226q0 108 63 195t168 134t231 47q199 0 335.5 -103.5t143.5 -257.5h-50q-8 135 -130 225t-300 90q-173 0 -292 -92t-119 -238
q0 -122 86.5 -196.5t274.5 -119.5l150 -36q219 -52 313.5 -134.5t94.5 -225.5q0 -176 -135.5 -285.5t-354.5 -109.5q-220 0 -365 112.5t-153 288.5zM580 1554h-44l-265 287h58l228 -249h2l228 249h58z" />
    <glyph glyph-name="scaron" unicode="&#x161;" horiz-adv-x="876" 
d="M89 780q0 120 97.5 197.5t248.5 77.5q157 0 255.5 -84t115.5 -233h-48q-18 127 -104 200t-219 73q-128 0 -212 -65.5t-84 -163.5q0 -82 59 -131.5t195 -81.5l140 -32q154 -36 221 -98t67 -169q0 -125 -104 -205t-267 -80t-274 86.5t-122 222.5h49q14 -116 111 -190.5
t235 -74.5q141 0 231.5 67t90.5 171q0 90 -58.5 142.5t-194.5 83.5l-139 32q-150 34 -220 95.5t-70 159.5zM417 1216l-263 304h55l229 -264h2l229 264h55l-263 -304h-44z" />
    <glyph glyph-name="Tcedilla" unicode="&#x162;" horiz-adv-x="1116" 
d="M583 6v-6l-61 -140q97 0 152 -40.5t55 -113.5q0 -75 -61 -121t-157 -46q-74 -2 -122 15v44q49 -17 121 -17q71 0 121.5 36t50.5 88q0 54 -43 83.5t-121 29.5h-47v33l63 149h-1v1396h-520v47h1090v-47h-520v-1390z" />
    <glyph glyph-name="tcedilla" unicode="&#x163;" horiz-adv-x="511" 
d="M365 -1l-60 -139q97 0 151.5 -40.5t54.5 -113.5q0 -75 -60.5 -121t-156.5 -46q-74 -2 -122 15v44q49 -17 120 -17t121.5 36t50.5 88q0 54 -43 83.5t-120 29.5h-48v33l65 153q-75 13 -109.5 66t-34.5 157v768h-155v45h155v279h49v-279h210v-45h-210v-767q0 -98 37 -140.5
t120 -42.5q70 0 72 1v-46q-1 0 -37 -0.5t-38 -0.5h-12z" />
    <glyph glyph-name="Tcaron" unicode="&#x164;" horiz-adv-x="1116" 
d="M583 0h-50v1396h-520v47h1090v-47h-520v-1396zM580 1554h-44l-265 287h58l228 -249h2l228 249h58z" />
    <glyph glyph-name="tcaron" unicode="&#x165;" horiz-adv-x="513" 
d="M174 1319h49v-279h210v-45h-210v-767q0 -98 37 -140.5t120 -42.5q70 0 72 1v-46q-1 0 -37 -0.5t-38 -0.5q-107 0 -155 53t-48 175v768h-155v45h155v279zM359 1532h47l-10 -354h-37v354z" />
    <glyph glyph-name="Tbar" unicode="&#x166;" horiz-adv-x="1116" 
d="M1103 1396h-520v-650h384v-46h-384v-700h-50v700h-384v46h384v650h-520v47h1090v-47z" />
    <glyph glyph-name="tbar" unicode="&#x167;" horiz-adv-x="511" 
d="M452 604h-229v-376q0 -98 37 -140.5t120 -42.5q70 0 72 1v-46q-1 0 -37 -0.5t-38 -0.5q-107 0 -155 53t-48 175v377h-155v44h155v347h-155v45h155v279h49v-279h210v-45h-210v-347h229v-44z" />
    <glyph glyph-name="Utilde" unicode="&#x168;" horiz-adv-x="1307" 
d="M174 1443v-943q0 -218 129.5 -345.5t349.5 -127.5q221 0 350.5 127.5t129.5 345.5v943h50v-944q0 -237 -143.5 -378t-386.5 -141t-386 141t-143 378v944h50zM772 1590q-39 0 -69.5 16.5t-50 40t-37 47t-40 40t-49.5 16.5q-47 0 -70.5 -42.5t-23.5 -108.5h-45
q0 86 36 139.5t105 53.5q36 0 64 -16.5t46.5 -40l36.5 -47.5t42.5 -40.5t55.5 -16.5q49 0 75 42.5t26 108.5h45q0 -85 -38.5 -138.5t-108.5 -53.5z" />
    <glyph glyph-name="utilde" unicode="&#x169;" horiz-adv-x="1027" 
d="M911 1040v-1040h-46v242h-2q-31 -110 -137.5 -183.5t-237.5 -73.5q-169 0 -274 102.5t-105 274.5v678h49v-671q0 -158 92.5 -248.5t243.5 -90.5q157 0 262.5 105.5t105.5 276.5v628h49zM628 1252q-39 0 -69.5 16.5t-50 40t-37 47t-40 40t-49.5 16.5q-47 0 -70.5 -42
t-23.5 -108h-45q0 86 36 139t105 53q36 0 64 -16.5t46.5 -40l36.5 -47t42.5 -40t55.5 -16.5q49 0 75 42.5t26 107.5h45q0 -85 -38.5 -138.5t-108.5 -53.5z" />
    <glyph glyph-name="Umacron" unicode="&#x16a;" horiz-adv-x="1307" 
d="M174 1443v-943q0 -218 129.5 -345.5t349.5 -127.5q221 0 350.5 127.5t129.5 345.5v943h50v-944q0 -237 -143.5 -378t-386.5 -141t-386 141t-143 378v944h50zM887 1722v-43h-468v43h468z" />
    <glyph glyph-name="umacron" unicode="&#x16b;" horiz-adv-x="1027" 
d="M911 1040v-1040h-46v242h-2q-31 -110 -137.5 -183.5t-237.5 -73.5q-169 0 -274 102.5t-105 274.5v678h49v-671q0 -158 92.5 -248.5t243.5 -90.5q157 0 262.5 105.5t105.5 276.5v628h49zM744 1385v-44h-468v44h468z" />
    <glyph glyph-name="Ubreve" unicode="&#x16c;" horiz-adv-x="1307" 
d="M174 1443v-943q0 -218 129.5 -345.5t349.5 -127.5q221 0 350.5 127.5t129.5 345.5v943h50v-944q0 -237 -143.5 -378t-386.5 -141t-386 141t-143 378v944h50zM415 1799h45q5 -82 54 -128.5t139 -46.5t139 46.5t54 128.5h45q-5 -104 -67.5 -161t-170.5 -57t-170.5 57
t-67.5 161z" />
    <glyph glyph-name="ubreve" unicode="&#x16d;" horiz-adv-x="1027" 
d="M911 1040v-1040h-46v242h-2q-31 -110 -137.5 -183.5t-237.5 -73.5q-169 0 -274 102.5t-105 274.5v678h49v-671q0 -158 92.5 -248.5t243.5 -90.5q157 0 262.5 105.5t105.5 276.5v628h49zM271 1475h46q0 -91 49 -142t144 -51t144 51t49 142h46q0 -113 -63 -174.5
t-176 -61.5t-176 61.5t-63 174.5z" />
    <glyph glyph-name="Uring" unicode="&#x16e;" horiz-adv-x="1307" 
d="M174 1443v-943q0 -218 129.5 -345.5t349.5 -127.5q221 0 350.5 127.5t129.5 345.5v943h50v-944q0 -237 -143.5 -378t-386.5 -141t-386 141t-143 378v944h50zM653 1517q-67 0 -115.5 48.5t-48.5 116.5t48.5 116.5t115.5 48.5t115.5 -48.5t48.5 -116.5t-48.5 -116.5
t-115.5 -48.5zM653 1556q53 0 89 36.5t36 89.5t-36 89.5t-89 36.5t-89 -36.5t-36 -89.5t36 -89.5t89 -36.5z" />
    <glyph glyph-name="uring" unicode="&#x16f;" horiz-adv-x="1027" 
d="M911 1040v-1040h-46v242h-2q-31 -110 -137.5 -183.5t-237.5 -73.5q-169 0 -274 102.5t-105 274.5v678h49v-671q0 -158 92.5 -248.5t243.5 -90.5q157 0 262.5 105.5t105.5 276.5v628h49zM510 1183q-67 0 -115.5 48.5t-48.5 116.5t48.5 116.5t115.5 48.5t115.5 -48.5
t48.5 -116.5t-48.5 -116.5t-115.5 -48.5zM510 1222q53 0 89 36.5t36 89.5t-36 89.5t-89 36.5t-89 -36.5t-36 -89.5t36 -89.5t89 -36.5z" />
    <glyph glyph-name="Uhungarumlaut" unicode="&#x170;" horiz-adv-x="1307" 
d="M174 1443v-943q0 -218 129.5 -345.5t349.5 -127.5q221 0 350.5 127.5t129.5 345.5v943h50v-944q0 -237 -143.5 -378t-386.5 -141t-386 141t-143 378v944h50zM501 1554l170 287h57l-179 -287h-48zM753 1554l174 287h58l-183 -287h-49z" />
    <glyph glyph-name="uhungarumlaut" unicode="&#x171;" horiz-adv-x="1027" 
d="M911 1040v-1040h-46v242h-2q-31 -110 -137.5 -183.5t-237.5 -73.5q-169 0 -274 102.5t-105 274.5v678h49v-671q0 -158 92.5 -248.5t243.5 -90.5q157 0 262.5 105.5t105.5 276.5v628h49zM358 1215l180 304h57l-190 -304h-47zM610 1215l184 304h58l-194 -304h-48z" />
    <glyph glyph-name="Uogonek" unicode="&#x172;" horiz-adv-x="1307" 
d="M1133 1443h50v-944q0 -143 -54 -253t-154 -177q-193 -145 -193 -278q0 -59 30.5 -88t77.5 -29q46 0 88 18v-42q-49 -19 -94 -19q-65 0 -107.5 40.5t-42.5 113.5q0 115 118 225q-88 -30 -199 -30q-243 0 -386 141t-143 378v944h50v-943q0 -218 129.5 -345.5t349.5 -127.5
q221 0 350.5 127.5t129.5 345.5v943z" />
    <glyph glyph-name="uogonek" unicode="&#x173;" horiz-adv-x="1027" 
d="M911 1040v-1040q-104 -52 -155.5 -103.5t-51.5 -112.5q0 -58 35 -84t87 -26q45 0 85 18v-43q-47 -18 -96 -18q-66 0 -112.5 37t-46.5 112q0 69 52.5 126.5t154.5 110.5l2 -1v226h-2q-31 -110 -137.5 -183.5t-237.5 -73.5q-169 0 -274 102.5t-105 274.5v678h49v-671
q0 -158 92.5 -248.5t243.5 -90.5q157 0 262.5 105.5t105.5 276.5v628h49z" />
    <glyph glyph-name="Wcircumflex" unicode="&#x174;" horiz-adv-x="1777" 
d="M886 1338l-398 -1338h-41l-406 1443h52l374 -1344h4l396 1344h43l395 -1344h5l374 1344h51l-406 -1443h-40l-398 1338h-5zM866 1841h44l265 -287h-58l-228 249h-2l-228 -249h-58z" />
    <glyph glyph-name="wcircumflex" unicode="&#x175;" horiz-adv-x="1360" 
d="M1358 1040l-306 -1040h-65l-306 980h-2l-305 -980h-66l-306 1040h55l283 -985h2l306 985h65l305 -985h2l283 985h55zM702 1520l263 -304h-55l-229 263h-2l-229 -263h-55l263 304h44z" />
    <glyph glyph-name="Ycircumflex" unicode="&#x176;" horiz-adv-x="1148" 
d="M600 0h-50v631l-529 812h60l492 -758h4l491 758h59l-527 -812v-631zM552 1841h44l265 -287h-58l-228 249h-2l-228 -249h-58z" />
    <glyph glyph-name="ycircumflex" unicode="&#x177;" horiz-adv-x="860" 
d="M166 -351q-19 0 -47 8v46q20 -8 51 -8q69 0 112 43.5t86 154.5l35 89l-401 1058h54l373 -993h2l374 993h54l-410 -1083q-71 -188 -126 -248t-157 -60zM452 1519l263 -304h-55l-229 263h-2l-229 -263h-55l263 304h44z" />
    <glyph glyph-name="Ydieresis" unicode="&#x178;" horiz-adv-x="1148" 
d="M600 0h-50v631l-529 812h60l492 -758h4l491 758h59l-527 -812v-631zM435 1654q-19 0 -33 13.5t-14 32.5q0 20 14 33.5t33 13.5q20 0 34 -13.5t14 -33.5q0 -19 -14 -32.5t-34 -13.5zM713 1654q-20 0 -34 13.5t-14 32.5q0 20 14 33.5t34 13.5q19 0 33 -13.5t14 -33.5
q0 -19 -14 -32.5t-33 -13.5z" />
    <glyph glyph-name="Zacute" unicode="&#x179;" horiz-adv-x="1147" 
d="M64 0v42l954 1350v4h-925v47h989v-43l-953 -1349v-4h954v-47h-1019zM596 1554h-49l190 287h60z" />
    <glyph glyph-name="zacute" unicode="&#x17a;" horiz-adv-x="881" 
d="M57 0v46l707 947v2h-707v45h767v-46l-711 -947v-2h711v-45h-767zM464 1215h-49l201 304h59z" />
    <glyph glyph-name="Zdotaccent" unicode="&#x17b;" horiz-adv-x="1147" 
d="M64 0v42l954 1350v4h-925v47h989v-43l-953 -1349v-4h954v-47h-1019zM573 1654q-20 0 -34 13.5t-14 32.5q0 20 14 33.5t34 13.5t34 -13.5t14 -33.5q0 -19 -14 -32.5t-34 -13.5z" />
    <glyph glyph-name="zdotaccent" unicode="&#x17c;" horiz-adv-x="881" 
d="M57 0v46l707 947v2h-707v45h767v-46l-711 -947v-2h711v-45h-767zM441 1316q-20 0 -34 13.5t-14 33.5q0 19 14 32.5t34 13.5t34 -13.5t14 -32.5q0 -20 -14 -33.5t-34 -13.5z" />
    <glyph glyph-name="Zcaron" unicode="&#x17d;" horiz-adv-x="1147" 
d="M64 0v42l954 1350v4h-925v47h989v-43l-953 -1349v-4h954v-47h-1019zM595 1554h-44l-265 287h58l228 -249h2l228 249h58z" />
    <glyph glyph-name="zcaron" unicode="&#x17e;" horiz-adv-x="881" 
d="M57 0v46l707 947v2h-707v45h767v-46l-711 -947v-2h711v-45h-767zM419 1215l-263 304h55l229 -264h2l229 264h55l-263 -304h-44z" />
    <glyph glyph-name="uni04D8" unicode="&#x4d8;" horiz-adv-x="1356" 
d="M664 -21q-280 0 -440 186t-161 512v41h1170v16q0 310 -158.5 496t-432.5 186q-169 0 -304 -81t-193 -223h-50q55 159 205 255.5t341 96.5q297 0 470 -198.5t173 -536.5q0 -341 -169 -545.5t-451 -204.5zM664 27q242 0 398 177.5t169 467.5h-1116q1 -295 150.5 -470
t398.5 -175z" />
    <glyph glyph-name="uni04D8" unicode="&#x18f;" horiz-adv-x="1356" 
d="M664 -21q-280 0 -440 186t-161 512v41h1170v16q0 310 -158.5 496t-432.5 186q-169 0 -304 -81t-193 -223h-50q55 159 205 255.5t341 96.5q297 0 470 -198.5t173 -536.5q0 -341 -169 -545.5t-451 -204.5zM664 27q242 0 398 177.5t169 467.5h-1116q1 -295 150.5 -470
t398.5 -175z" />
    <glyph glyph-name="florin" unicode="&#x192;" horiz-adv-x="1178" 
d="M1133 1410v-50q-22 16 -67 26.5t-91 10.5q-124 0 -194 -71.5t-98 -228.5l-53 -292h430v-45h-439l-76 -417q-32 -177 -113.5 -259.5t-225.5 -82.5q-42 0 -89.5 10.5t-71.5 24.5v49q26 -16 72.5 -27t86.5 -11q124 0 193 72t98 230l75 411h-415v45h424l54 297
q32 177 113.5 259t225.5 82q45 0 92 -9.5t69 -23.5z" />
    <glyph glyph-name="Ohorn" unicode="&#x1a0;" horiz-adv-x="1398" 
d="M699 -20q-293 0 -464.5 200.5t-171.5 541.5q0 340 172 540.5t464 200.5q58 0 167.5 -10.5t210.5 -10.5q117 0 159.5 28t42.5 106v108h48v-119q0 -92 -55 -130t-187 -38h-97v-4q166 -83 256.5 -257.5t90.5 -413.5q0 -341 -172 -541.5t-464 -200.5zM699 27q268 0 427 188.5
t159 506.5t-159 506t-427 188q-269 0 -427.5 -188t-158.5 -506t159 -506.5t427 -188.5z" />
    <glyph glyph-name="ohorn" unicode="&#x1a1;" horiz-adv-x="1046" 
d="M521 30q186 0 298 133.5t112 356.5q0 222 -112.5 356t-297.5 134t-296.5 -133.5t-111.5 -356.5t111.5 -356.5t296.5 -133.5zM980 520q0 -243 -125.5 -389t-333.5 -146q-207 0 -332.5 146t-125.5 389t125.5 389t332.5 146q58 0 149.5 -9t138.5 -9q71 0 98.5 22.5
t27.5 81.5v120h49v-133q0 -70 -39 -102t-124 -32h-76v-4q109 -49 172 -175t63 -295z" />
    <glyph glyph-name="Uhorn" unicode="&#x1af;" horiz-adv-x="1446" 
d="M653 -20q-242 0 -385.5 140.5t-143.5 378.5v944h50v-943q0 -213 131.5 -343t347.5 -130q217 0 348.5 130t131.5 343v943h124q121 0 121 106v156h48v-168q0 -66 -42.5 -102t-120.5 -36h-80v-900q0 -238 -143.5 -378.5t-386.5 -140.5z" />
    <glyph glyph-name="uhorn" unicode="&#x1b0;" horiz-adv-x="1144" 
d="M863 242q-31 -110 -137.5 -183.5t-237.5 -73.5q-169 0 -274 102.5t-105 274.5v678h49v-671q0 -158 92.5 -248.5t243.5 -90.5q157 0 262.5 105.5t105.5 276.5v628h118q117 0 117 102v121h48v-133q0 -64 -40.5 -99t-117.5 -35h-76v-996h-46v242h-2z" />
    <glyph glyph-name="dentalclick" unicode="&#x1c0;" horiz-adv-x="558" 
d="M255 -339v1782h48v-1782h-48z" />
    <glyph glyph-name="lateralclick" unicode="&#x1c1;" horiz-adv-x="860" 
d="M255 -339v1782h48v-1782h-48zM558 -339v1782h47v-1782h-47z" />
    <glyph glyph-name="alveolarclick" unicode="&#x1c2;" horiz-adv-x="723" 
d="M662 995h-277v-291h277v-45h-277v-998h-47v998h-277v45h277v291h-277v45h277v403h47v-403h277v-45z" />
    <glyph glyph-name="retroflexclick" unicode="&#x1c3;" horiz-adv-x="500" 
d="M223 1443h54l-1 -1032h-52zM250 -7q-22 0 -37.5 15.5t-15.5 36.5q0 22 15.5 37.5t37.5 15.5q21 0 36.5 -15.5t15.5 -37.5q0 -21 -15.5 -36.5t-36.5 -15.5z" />
    <glyph glyph-name="uni01C4" unicode="&#x1c4;" horiz-adv-x="2459" 
d="M124 1443h435q330 0 510 -188t180 -533q0 -346 -180 -534t-510 -188h-435v1443zM175 1396v-1349h383q309 0 475 175t166 500q0 324 -166.5 499t-474.5 175h-383zM1376 0v42l954 1350v4h-925v47h989v-43l-953 -1349v-4h954v-47h-1019zM1907 1554h-44l-265 287h58l228 -249
h2l228 249h58z" />
    <glyph glyph-name="uni01C5" unicode="&#x1c5;" horiz-adv-x="2193" 
d="M124 1443h435q330 0 510 -188t180 -533q0 -346 -180 -534t-510 -188h-435v1443zM175 1396v-1349h383q309 0 475 175t166 500q0 324 -166.5 499t-474.5 175h-383zM1369 0v46l707 947v2h-707v45h767v-46l-711 -947v-2h711v-45h-767zM1731 1215l-263 304h55l229 -264h2
l229 264h55l-263 -304h-44z" />
    <glyph glyph-name="uni01C6" unicode="&#x1c6;" horiz-adv-x="1969" 
d="M506 -15q-195 0 -319 148.5t-124 386.5t123.5 386.5t319.5 148.5q151 0 262.5 -91.5t142.5 -227.5h2v707h50v-1443h-46v309h-2q-33 -139 -145.5 -231.5t-263.5 -92.5zM509 1010q-175 0 -285.5 -136t-110.5 -353q0 -218 110.5 -354.5t285.5 -136.5q177 0 290.5 137
t113.5 353t-113.5 353t-290.5 137zM1145 0v46l707 947v2h-707v45h767v-46l-711 -947v-2h711v-45h-767zM1507 1215l-263 304h55l229 -264h2l229 264h55l-263 -304h-44z" />
    <glyph glyph-name="uni01C7" unicode="&#x1c7;" horiz-adv-x="1942" 
d="M949 47v-47h-825v1443h50v-1396h775zM1050 315h49q7 -128 98.5 -208.5t229.5 -80.5q159 0 250 95t91 263v1059h50v-1062q0 -185 -104.5 -293.5t-286.5 -108.5q-160 0 -266 94t-111 242z" />
    <glyph glyph-name="uni01C8" unicode="&#x1c8;" horiz-adv-x="1308" 
d="M949 47v-47h-825v1443h50v-1396h775zM1183 1040v-1135q0 -131 -61.5 -192.5t-193.5 -61.5h-29v46h27q109 0 158.5 48.5t49.5 155.5v1139h49zM1158 1317q-20 0 -34 13.5t-14 33.5q0 19 14 32.5t34 13.5t34 -13.5t14 -32.5q0 -20 -14 -33.5t-34 -13.5z" />
    <glyph glyph-name="uni01C9" unicode="&#x1c9;" horiz-adv-x="598" 
d="M125 0v1443h49v-1443h-49zM473 1040v-1135q0 -131 -61.5 -192.5t-193.5 -61.5h-29v46h27q109 0 158.5 48.5t49.5 155.5v1139h49zM448 1317q-20 0 -34 13.5t-14 33.5q0 19 14 32.5t34 13.5t34 -13.5t14 -32.5q0 -20 -14 -33.5t-34 -13.5z" />
    <glyph glyph-name="uni01CA" unicode="&#x1ca;" horiz-adv-x="2248" 
d="M174 0h-50v1443h55l958 -1348h4v1348h50v-1443h-46l-967 1359h-4v-1359zM1356 315h49q7 -128 98.5 -208.5t229.5 -80.5q159 0 250 95t91 263v1059h50v-1062q0 -185 -104.5 -293.5t-286.5 -108.5q-160 0 -266 94t-111 242z" />
    <glyph glyph-name="uni01CB" unicode="&#x1cb;" horiz-adv-x="1614" 
d="M174 0h-50v1443h55l958 -1348h4v1348h50v-1443h-46l-967 1359h-4v-1359zM1489 1040v-1135q0 -131 -61.5 -192.5t-193.5 -61.5h-29v46h27q109 0 158.5 48.5t49.5 155.5v1139h49zM1464 1317q-20 0 -34 13.5t-14 33.5q0 19 14 32.5t34 13.5t34 -13.5t14 -32.5
q0 -20 -14 -33.5t-34 -13.5z" />
    <glyph glyph-name="uni01CC" unicode="&#x1cc;" horiz-adv-x="1326" 
d="M116 0v1040h46v-244h2q33 116 133 187.5t235 71.5q173 0 279.5 -104t106.5 -278v-673h-49v670q0 156 -95 248t-249 92q-160 0 -260 -108t-100 -278v-624h-49zM1201 1040v-1135q0 -131 -61.5 -192.5t-193.5 -61.5h-29v46h27q109 0 158.5 48.5t49.5 155.5v1139h49z
M1176 1317q-20 0 -34 13.5t-14 33.5q0 19 14 32.5t34 13.5t34 -13.5t14 -32.5q0 -20 -14 -33.5t-34 -13.5z" />
    <glyph glyph-name="Acaron" unicode="&#x1cd;" horiz-adv-x="1201" 
d="M1125 0l-189 501h-671l-190 -501h-55l555 1443h51l555 -1443h-56zM598 1374l-315 -827h635l-315 827h-5zM622 1554h-44l-265 287h58l228 -249h2l228 249h58z" />
    <glyph glyph-name="acaron" unicode="&#x1ce;" horiz-adv-x="987" 
d="M434 30q164 0 279.5 103.5t115.5 249.5v175l-368 -28q-158 -12 -241 -77t-83 -177q0 -106 84.5 -176t212.5 -70zM431 -15q-151 0 -247 81t-96 210q0 266 366 297l375 28v94q0 147 -83 231t-230 84q-145 0 -234.5 -71t-109.5 -202h-48q17 148 122 233t270 85
q168 0 265 -95.5t97 -260.5v-699h-49v236h-1q-38 -111 -148 -181t-249 -70zM494 1216l-263 304h55l229 -264h2l229 264h55l-263 -304h-44z" />
    <glyph glyph-name="Icaron" unicode="&#x1cf;" horiz-adv-x="298" 
d="M174 0h-50v1443h50v-1443zM171 1554h-44l-265 287h58l228 -249h2l228 249h58z" />
    <glyph glyph-name="icaron" unicode="&#x1d0;" horiz-adv-x="299" 
d="M125 0v1040h49v-1040h-49zM127 1216l-263 304h55l229 -264h2l229 264h55l-263 -304h-44z" />
    <glyph glyph-name="Ocaron" unicode="&#x1d1;" horiz-adv-x="1398" 
d="M699 1463q291 0 463.5 -200.5t172.5 -540.5q0 -341 -172 -541.5t-464 -200.5q-293 0 -464.5 200.5t-171.5 541.5q0 340 172 540.5t464 200.5zM699 1416q-269 0 -427.5 -188t-158.5 -506t159 -506.5t427 -188.5t427 188.5t159 506.5t-159 506t-427 188zM721 1554h-44
l-265 287h58l228 -249h2l228 249h58z" />
    <glyph glyph-name="ocaron" unicode="&#x1d2;" horiz-adv-x="1043" 
d="M521 -15q-206 0 -332 145t-126 390t126 390t332 145t332.5 -145t126.5 -390t-126.5 -390t-332.5 -145zM521 30q184 0 297 133t113 357q0 225 -112.5 357.5t-297.5 132.5t-296.5 -132.5t-111.5 -357.5t111.5 -357.5t296.5 -132.5zM500 1215l-263 304h55l229 -264h2
l229 264h55l-263 -304h-44z" />
    <glyph glyph-name="Ucaron" unicode="&#x1d3;" horiz-adv-x="1307" 
d="M174 1443v-943q0 -218 129.5 -345.5t349.5 -127.5q221 0 350.5 127.5t129.5 345.5v943h50v-944q0 -237 -143.5 -378t-386.5 -141t-386 141t-143 378v944h50zM675 1554h-44l-265 287h58l228 -249h2l228 249h58z" />
    <glyph glyph-name="ucaron" unicode="&#x1d4;" horiz-adv-x="1027" 
d="M911 1040v-1040h-46v242h-2q-31 -110 -137.5 -183.5t-237.5 -73.5q-169 0 -274 102.5t-105 274.5v678h49v-671q0 -158 92.5 -248.5t243.5 -90.5q157 0 262.5 105.5t105.5 276.5v628h49zM488 1215l-263 304h55l229 -264h2l229 264h55l-263 -304h-44z" />
    <glyph glyph-name="Udieresismacron" unicode="&#x1d5;" horiz-adv-x="1307" 
d="M174 1443v-943q0 -218 129.5 -345.5t349.5 -127.5q221 0 350.5 127.5t129.5 345.5v943h50v-944q0 -237 -143.5 -378t-386.5 -141t-386 141t-143 378v944h50zM515 1660q22 0 38 -15.5t16 -37.5t-16 -37.5t-38 -15.5t-38 15.5t-16 37.5t16 37.5t38 15.5zM371 1888h564v-43
h-564v43zM791 1660q22 0 38 -15.5t16 -37.5t-16 -37.5t-38 -15.5t-38 15.5t-16 37.5t16 37.5t38 15.5z" />
    <glyph glyph-name="udieresismacron" unicode="&#x1d6;" horiz-adv-x="1027" 
d="M911 1040v-1040h-46v242h-2q-31 -110 -137.5 -183.5t-237.5 -73.5q-169 0 -274 102.5t-105 274.5v678h49v-671q0 -158 92.5 -248.5t243.5 -90.5q157 0 262.5 105.5t105.5 276.5v628h49zM371 1281q-20 0 -34 13.5t-14 33.5q0 19 14 32.5t34 13.5t34 -13.5t14 -32.5
q0 -20 -14 -33.5t-34 -13.5zM649 1281q-20 0 -34 13.5t-14 33.5q0 19 14 32.5t34 13.5t34 -13.5t14 -32.5q0 -20 -14 -33.5t-34 -13.5zM744 1629v-44h-468v44h468z" />
    <glyph glyph-name="Udieresisacute" unicode="&#x1d7;" horiz-adv-x="1307" 
d="M174 1443v-943q0 -218 129.5 -345.5t349.5 -127.5q221 0 350.5 127.5t129.5 345.5v943h50v-944q0 -237 -143.5 -378t-386.5 -141t-386 141t-143 378v944h50zM608 1754l213 203h62l-218 -203h-57zM515 1554q-22 0 -38 15.5t-16 37.5t16 37.5t38 15.5t38 -15.5t16 -37.5
t-16 -37.5t-38 -15.5zM791 1554q-22 0 -38 15.5t-16 37.5t16 37.5t38 15.5t38 -15.5t16 -37.5t-16 -37.5t-38 -15.5z" />
    <glyph glyph-name="udieresisacute" unicode="&#x1d8;" horiz-adv-x="1027" 
d="M911 1040v-1040h-46v242h-2q-31 -110 -137.5 -183.5t-237.5 -73.5q-169 0 -274 102.5t-105 274.5v678h49v-671q0 -158 92.5 -248.5t243.5 -90.5q157 0 262.5 105.5t105.5 276.5v628h49zM457 1468l253 309h58l-260 -309h-51zM371 1280q-19 0 -33 13.5t-14 33.5
q0 19 14 32.5t33 13.5q20 0 34 -13.5t14 -32.5q0 -20 -14 -33.5t-34 -13.5zM649 1280q-20 0 -34 13.5t-14 33.5q0 19 14 32.5t34 13.5q19 0 33 -13.5t14 -32.5q0 -20 -14 -33.5t-33 -13.5z" />
    <glyph glyph-name="Udieresiscaron" unicode="&#x1d9;" horiz-adv-x="1307" 
d="M174 1443v-943q0 -218 129.5 -345.5t349.5 -127.5q221 0 350.5 127.5t129.5 345.5v943h50v-944q0 -237 -143.5 -378t-386.5 -141t-386 141t-143 378v944h50zM630 1753l-265 204h66l221 -169h2l221 169h66l-265 -204h-46zM515 1660q22 0 38 -15.5t16 -37.5t-16 -37.5
t-38 -15.5t-38 15.5t-16 37.5t16 37.5t38 15.5zM791 1660q22 0 38 -15.5t16 -37.5t-16 -37.5t-38 -15.5t-38 15.5t-16 37.5t16 37.5t38 15.5z" />
    <glyph glyph-name="udieresiscaron" unicode="&#x1da;" horiz-adv-x="1027" 
d="M911 1040v-1040h-46v242h-2q-31 -110 -137.5 -183.5t-237.5 -73.5q-169 0 -274 102.5t-105 274.5v678h49v-671q0 -158 92.5 -248.5t243.5 -90.5q157 0 262.5 105.5t105.5 276.5v628h49zM371 1281q-20 0 -34 13.5t-14 33.5q0 19 14 32.5t34 13.5t34 -13.5t14 -32.5
q0 -20 -14 -33.5t-34 -13.5zM649 1281q-20 0 -34 13.5t-14 33.5q0 19 14 32.5t34 13.5t34 -13.5t14 -32.5q0 -20 -14 -33.5t-34 -13.5zM532 1472h-44l-265 293h56l230 -253h2l230 253h56z" />
    <glyph glyph-name="Udieresisgrave" unicode="&#x1db;" horiz-adv-x="1307" 
d="M174 1443v-943q0 -218 129.5 -345.5t349.5 -127.5q221 0 350.5 127.5t129.5 345.5v943h50v-944q0 -237 -143.5 -378t-386.5 -141t-386 141t-143 378v944h50zM697 1754h-57l-218 203h62zM515 1554q-22 0 -38 15.5t-16 37.5t16 37.5t38 15.5t38 -15.5t16 -37.5t-16 -37.5
t-38 -15.5zM791 1554q-22 0 -38 15.5t-16 37.5t16 37.5t38 15.5t38 -15.5t16 -37.5t-16 -37.5t-38 -15.5z" />
    <glyph glyph-name="udieresisgrave" unicode="&#x1dc;" horiz-adv-x="1027" 
d="M911 1040v-1040h-46v242h-2q-31 -110 -137.5 -183.5t-237.5 -73.5q-169 0 -274 102.5t-105 274.5v678h49v-671q0 -158 92.5 -248.5t243.5 -90.5q157 0 262.5 105.5t105.5 276.5v628h49zM563 1468h-51l-260 309h58zM371 1280q-19 0 -33 13.5t-14 33.5q0 19 14 32.5
t33 13.5q20 0 34 -13.5t14 -32.5q0 -20 -14 -33.5t-34 -13.5zM649 1280q-20 0 -34 13.5t-14 33.5q0 19 14 32.5t34 13.5q19 0 33 -13.5t14 -32.5q0 -20 -14 -33.5t-33 -13.5z" />
    <glyph glyph-name="uni04D9" unicode="&#x4d9;" horiz-adv-x="1040" 
d="M511 30q179 0 288.5 126t118.5 341h-796q1 -215 105.5 -341t283.5 -126zM149 798h-54q53 125 156 191t247 66q216 0 343 -144t127 -390q0 -245 -124 -390.5t-333 -145.5q-204 0 -321.5 138.5t-117.5 379.5l1 39h845v2q0 207 -117 336.5t-303 129.5q-122 0 -211 -54.5
t-138 -157.5z" />
    <glyph glyph-name="uni04D9" unicode="&#x259;" horiz-adv-x="1040" 
d="M511 30q179 0 288.5 126t118.5 341h-796q1 -215 105.5 -341t283.5 -126zM149 798h-54q53 125 156 191t247 66q216 0 343 -144t127 -390q0 -245 -124 -390.5t-333 -145.5q-204 0 -321.5 138.5t-117.5 379.5l1 39h845v2q0 207 -117 336.5t-303 129.5q-122 0 -211 -54.5
t-138 -157.5z" />
    <glyph glyph-name="uni04D9" unicode="&#x1dd;" horiz-adv-x="1040" 
d="M511 30q179 0 288.5 126t118.5 341h-796q1 -215 105.5 -341t283.5 -126zM149 798h-54q53 125 156 191t247 66q216 0 343 -144t127 -390q0 -245 -124 -390.5t-333 -145.5q-204 0 -321.5 138.5t-117.5 379.5l1 39h845v2q0 207 -117 336.5t-303 129.5q-122 0 -211 -54.5
t-138 -157.5z" />
    <glyph glyph-name="Adieresismacron" unicode="&#x1de;" horiz-adv-x="1201" 
d="M1125 0l-189 501h-671l-190 -501h-55l555 1443h51l555 -1443h-56zM598 1374l-315 -827h635l-315 827h-5zM462 1660q22 0 38 -15.5t16 -37.5t-16 -37.5t-38 -15.5t-38 15.5t-16 37.5t16 37.5t38 15.5zM318 1888h564v-43h-564v43zM738 1660q22 0 38 -15.5t16 -37.5
t-16 -37.5t-38 -15.5t-38 15.5t-16 37.5t16 37.5t38 15.5z" />
    <glyph glyph-name="adieresismacron" unicode="&#x1df;" horiz-adv-x="987" 
d="M434 30q164 0 279.5 103.5t115.5 249.5v175l-368 -28q-158 -12 -241 -77t-83 -177q0 -106 84.5 -176t212.5 -70zM431 -15q-151 0 -247 81t-96 210q0 266 366 297l375 28v94q0 147 -83 231t-230 84q-145 0 -234.5 -71t-109.5 -202h-48q17 148 122 233t270 85
q168 0 265 -95.5t97 -260.5v-699h-49v236h-1q-38 -111 -148 -181t-249 -70zM377 1282q-20 0 -34 13.5t-14 33.5q0 19 14 32.5t34 13.5t34 -13.5t14 -32.5q0 -20 -14 -33.5t-34 -13.5zM655 1282q-20 0 -34 13.5t-14 33.5q0 19 14 32.5t34 13.5t34 -13.5t14 -32.5
q0 -20 -14 -33.5t-34 -13.5zM750 1630v-44h-468v44h468z" />
    <glyph glyph-name="Adotmacron" unicode="&#x1e0;" horiz-adv-x="1201" 
d="M1125 0l-189 501h-671l-190 -501h-55l555 1443h51l555 -1443h-56zM598 1374l-315 -827h635l-315 827h-5zM600 1555q-26 0 -45 19t-19 44q0 26 19 44.5t45 18.5t45 -18.5t19 -44.5q0 -25 -19 -44t-45 -19zM882 1888v-43h-564v43h564z" />
    <glyph glyph-name="adotmacron" unicode="&#x1e1;" horiz-adv-x="987" 
d="M434 30q164 0 279.5 103.5t115.5 249.5v175l-368 -28q-158 -12 -241 -77t-83 -177q0 -106 84.5 -176t212.5 -70zM431 -15q-151 0 -247 81t-96 210q0 266 366 297l375 28v94q0 147 -83 231t-230 84q-145 0 -234.5 -71t-109.5 -202h-48q17 148 122 233t270 85
q168 0 265 -95.5t97 -260.5v-699h-49v236h-1q-38 -111 -148 -181t-249 -70zM516 1283q-20 0 -34.5 13.5t-14.5 34.5q0 19 14.5 33t34.5 14t34.5 -14t14.5 -33q0 -21 -14.5 -34.5t-34.5 -13.5zM750 1629v-44h-468v44h468z" />
    <glyph glyph-name="AEmacron" unicode="&#x1e2;" horiz-adv-x="1878" 
d="M819 1397l-476 -939h667v939h-191zM1010 0v411h-689l-208 -411h-55l733 1443h985v-47h-718v-633h681v-46h-681v-670h718v-47h-766zM1518 1722v-43h-468v43h468z" />
    <glyph glyph-name="aemacron" unicode="&#x1e3;" horiz-adv-x="1785" 
d="M1289 -15q-155 0 -265 80.5t-157 233.5h-4q-37 -144 -153.5 -229t-273.5 -85q-156 0 -252.5 80t-96.5 208q0 125 92 195.5t270 82.5l380 24v137q0 141 -84.5 219.5t-233.5 78.5q-142 0 -233.5 -72.5t-109.5 -200.5h-48q16 145 122 231.5t269 86.5q154 0 252.5 -79
t105.5 -217h5q42 132 150.5 214t262.5 82q199 0 317 -134t118 -358v-39h-844v-7q0 -221 112.5 -354t299.5 -133q147 0 244 72.5t121 186.5h51q-28 -135 -139 -219.5t-278 -84.5zM1285 1010q-175 0 -286 -121.5t-120 -319.5h794q-1 199 -106.5 320t-281.5 121zM437 30
q163 0 277.5 104.5t114.5 253.5v144l-370 -25q-159 -10 -240.5 -70t-81.5 -164q0 -106 83.5 -174.5t216.5 -68.5zM1140 1386v-44h-468v44h468z" />
    <glyph glyph-name="Gcaron" unicode="&#x1e6;" horiz-adv-x="1332" 
d="M1259 564q0 -272 -153.5 -428t-420.5 -156q-182 0 -323.5 94.5t-220 265.5t-78.5 391q0 329 171 530.5t451 201.5q213 0 368.5 -118t195.5 -309h-49q-42 172 -183 276t-332 104q-258 0 -415 -188t-157 -497q0 -313 159 -508.5t413 -195.5q244 0 384.5 143t140.5 392v100
h-531v46h580v-144zM707 1554h-44l-265 287h58l228 -249h2l228 249h58z" />
    <glyph glyph-name="gcaron" unicode="&#x1e7;" horiz-adv-x="1070" 
d="M504 32q177 0 289 136t112 352q0 217 -112 353.5t-289 136.5q-174 0 -282.5 -136.5t-108.5 -354.5q0 -217 108.5 -352t282.5 -135zM531 -371q-163 0 -272 73t-132 181h52q28 -91 121.5 -150t232.5 -59q170 0 271 91t101 242v298h-2q-32 -137 -141.5 -228.5t-259.5 -91.5
q-195 0 -317 148.5t-122 386.5t122 386.5t317 148.5q150 0 260 -91.5t144 -232.5h2v309h46v-1031q0 -172 -114.5 -276t-308.5 -104zM518 1216l-263 304h55l229 -264h2l229 264h55l-263 -304h-44z" />
    </font>
</defs>
</svg>
